G04 EAGLE Gerber RS-274X export*
G75*
%MOMM*%
%FSLAX34Y34*%
%LPD*%
%INTop Copper*%
%IPPOS*%
%AMOC8*
5,1,8,0,0,1.08239X$1,22.5*%
G01*
%ADD10P,1.429621X8X112.500000*%
%ADD11P,1.429621X8X22.500000*%
%ADD12P,1.429621X8X382.400000*%
%ADD13C,1.778000*%
%ADD14C,1.408000*%
%ADD15C,1.930400*%
%ADD16P,1.814519X8X22.500000*%
%ADD17P,1.814519X8X202.500000*%
%ADD18R,1.778000X1.778000*%
%ADD19C,2.184400*%
%ADD20R,1.268000X1.268000*%
%ADD21C,1.268000*%
%ADD22C,2.300000*%
%ADD23R,1.308000X1.308000*%
%ADD24C,1.308000*%
%ADD25C,0.406400*%
%ADD26C,0.756400*%

G36*
X306381Y10927D02*
X306381Y10927D01*
X306405Y10924D01*
X306502Y10946D01*
X306600Y10962D01*
X306621Y10974D01*
X306644Y10979D01*
X306730Y11031D01*
X306817Y11078D01*
X306834Y11095D01*
X306854Y11107D01*
X306918Y11184D01*
X306987Y11256D01*
X306997Y11278D01*
X307012Y11296D01*
X307081Y11449D01*
X309604Y19214D01*
X315362Y27138D01*
X323286Y32896D01*
X332602Y35923D01*
X342398Y35923D01*
X351714Y32896D01*
X359638Y27138D01*
X365396Y19214D01*
X367919Y11449D01*
X367930Y11428D01*
X367935Y11404D01*
X367986Y11319D01*
X368032Y11230D01*
X368049Y11214D01*
X368061Y11193D01*
X368137Y11128D01*
X368208Y11059D01*
X368230Y11049D01*
X368248Y11033D01*
X368340Y10996D01*
X368430Y10953D01*
X368454Y10950D01*
X368476Y10941D01*
X368643Y10923D01*
X650000Y10923D01*
X650018Y10926D01*
X650050Y10924D01*
X651788Y11038D01*
X651811Y11044D01*
X651935Y11063D01*
X655293Y11962D01*
X655307Y11969D01*
X655323Y11971D01*
X655476Y12038D01*
X658487Y13776D01*
X658499Y13786D01*
X658514Y13793D01*
X658645Y13897D01*
X661103Y16355D01*
X661112Y16368D01*
X661124Y16378D01*
X661224Y16513D01*
X662962Y19524D01*
X662967Y19538D01*
X662977Y19551D01*
X663038Y19707D01*
X663937Y23065D01*
X663940Y23089D01*
X663962Y23212D01*
X664076Y24950D01*
X664074Y24969D01*
X664077Y25000D01*
X664077Y280000D01*
X664074Y280019D01*
X664076Y280050D01*
X663962Y281788D01*
X663956Y281811D01*
X663937Y281935D01*
X663038Y285293D01*
X663031Y285307D01*
X663029Y285323D01*
X662962Y285476D01*
X661224Y288487D01*
X661214Y288499D01*
X661207Y288514D01*
X661103Y288645D01*
X658645Y291103D01*
X658632Y291112D01*
X658622Y291124D01*
X658487Y291224D01*
X655476Y292962D01*
X655462Y292967D01*
X655449Y292977D01*
X655293Y293038D01*
X651935Y293937D01*
X651911Y293940D01*
X651788Y293962D01*
X650050Y294076D01*
X650031Y294074D01*
X650000Y294077D01*
X510498Y294077D01*
X510427Y294066D01*
X510356Y294064D01*
X510307Y294046D01*
X510255Y294038D01*
X510192Y294004D01*
X510125Y293979D01*
X510084Y293947D01*
X510038Y293922D01*
X509989Y293870D01*
X509933Y293826D01*
X509904Y293782D01*
X509869Y293744D01*
X509838Y293679D01*
X509800Y293619D01*
X509787Y293568D01*
X509765Y293521D01*
X509757Y293450D01*
X509740Y293380D01*
X509744Y293328D01*
X509738Y293277D01*
X509753Y293206D01*
X509759Y293135D01*
X509779Y293087D01*
X509790Y293036D01*
X509827Y292975D01*
X509855Y292909D01*
X509900Y292853D01*
X509916Y292825D01*
X509934Y292810D01*
X509960Y292778D01*
X544014Y258724D01*
X544088Y258671D01*
X544157Y258611D01*
X544187Y258599D01*
X544214Y258580D01*
X544301Y258553D01*
X544385Y258519D01*
X544426Y258515D01*
X544449Y258508D01*
X544481Y258509D01*
X544552Y258501D01*
X567433Y258501D01*
X567523Y258515D01*
X567614Y258523D01*
X567644Y258535D01*
X567676Y258540D01*
X567757Y258583D01*
X567841Y258619D01*
X567873Y258645D01*
X567893Y258656D01*
X567916Y258679D01*
X567972Y258724D01*
X582515Y273267D01*
X582584Y273362D01*
X582653Y273456D01*
X582655Y273462D01*
X582659Y273467D01*
X582693Y273579D01*
X582729Y273690D01*
X582729Y273696D01*
X582731Y273702D01*
X582728Y273819D01*
X582727Y273936D01*
X582725Y273943D01*
X582725Y273948D01*
X582718Y273966D01*
X582680Y274097D01*
X581935Y275896D01*
X581935Y279104D01*
X583163Y282068D01*
X585432Y284337D01*
X588396Y285565D01*
X591604Y285565D01*
X594568Y284337D01*
X596837Y282068D01*
X598065Y279104D01*
X598065Y275896D01*
X596837Y272932D01*
X594568Y270663D01*
X591604Y269435D01*
X589059Y269435D01*
X588968Y269421D01*
X588878Y269413D01*
X588848Y269401D01*
X588816Y269396D01*
X588735Y269353D01*
X588651Y269317D01*
X588619Y269291D01*
X588598Y269280D01*
X588576Y269257D01*
X588520Y269212D01*
X573002Y253694D01*
X571020Y251712D01*
X570978Y251654D01*
X570929Y251602D01*
X570907Y251555D01*
X570877Y251513D01*
X570856Y251444D01*
X570825Y251379D01*
X570820Y251327D01*
X570804Y251277D01*
X570806Y251206D01*
X570798Y251135D01*
X570809Y251084D01*
X570811Y251032D01*
X570835Y250964D01*
X570850Y250894D01*
X570877Y250849D01*
X570895Y250801D01*
X570940Y250745D01*
X570977Y250683D01*
X571016Y250649D01*
X571049Y250609D01*
X571109Y250570D01*
X571164Y250523D01*
X571212Y250504D01*
X571256Y250476D01*
X571325Y250458D01*
X571392Y250431D01*
X571463Y250423D01*
X571494Y250415D01*
X571518Y250417D01*
X571558Y250413D01*
X577623Y250413D01*
X579930Y248106D01*
X605587Y222449D01*
X605681Y222382D01*
X605775Y222311D01*
X605781Y222309D01*
X605786Y222306D01*
X605897Y222272D01*
X606009Y222235D01*
X606016Y222235D01*
X606022Y222233D01*
X606138Y222236D01*
X606255Y222237D01*
X606262Y222240D01*
X606267Y222240D01*
X606285Y222246D01*
X606416Y222284D01*
X609440Y223537D01*
X614392Y223537D01*
X618967Y221642D01*
X622468Y218141D01*
X624363Y213566D01*
X624363Y208614D01*
X622468Y204039D01*
X618967Y200538D01*
X614392Y198643D01*
X609440Y198643D01*
X604865Y200538D01*
X601364Y204039D01*
X599469Y208614D01*
X599469Y213566D01*
X600722Y216590D01*
X600748Y216703D01*
X600777Y216817D01*
X600777Y216823D01*
X600778Y216829D01*
X600767Y216946D01*
X600758Y217062D01*
X600755Y217068D01*
X600755Y217074D01*
X600707Y217182D01*
X600662Y217288D01*
X600657Y217294D01*
X600655Y217299D01*
X600642Y217313D01*
X600557Y217419D01*
X574900Y243076D01*
X574826Y243129D01*
X574756Y243189D01*
X574726Y243201D01*
X574700Y243220D01*
X574613Y243247D01*
X574528Y243281D01*
X574487Y243285D01*
X574465Y243292D01*
X574433Y243291D01*
X574361Y243299D01*
X541069Y243299D01*
X540998Y243288D01*
X540926Y243286D01*
X540877Y243268D01*
X540826Y243260D01*
X540762Y243226D01*
X540695Y243201D01*
X540654Y243169D01*
X540608Y243144D01*
X540559Y243092D01*
X540503Y243048D01*
X540475Y243004D01*
X540439Y242966D01*
X540409Y242901D01*
X540370Y242841D01*
X540357Y242790D01*
X540335Y242743D01*
X540327Y242672D01*
X540310Y242602D01*
X540314Y242550D01*
X540308Y242499D01*
X540324Y242428D01*
X540329Y242357D01*
X540349Y242309D01*
X540361Y242258D01*
X540397Y242197D01*
X540425Y242131D01*
X540470Y242075D01*
X540487Y242047D01*
X540505Y242032D01*
X540530Y242000D01*
X564980Y217550D01*
X565017Y217523D01*
X565049Y217489D01*
X565117Y217452D01*
X565180Y217406D01*
X565224Y217393D01*
X565264Y217371D01*
X565341Y217357D01*
X565415Y217334D01*
X565461Y217335D01*
X565506Y217327D01*
X565583Y217338D01*
X565661Y217340D01*
X565704Y217356D01*
X565749Y217363D01*
X565819Y217398D01*
X565892Y217425D01*
X565928Y217453D01*
X565969Y217474D01*
X566023Y217530D01*
X566084Y217578D01*
X566109Y217617D01*
X566141Y217650D01*
X566207Y217769D01*
X566217Y217785D01*
X566218Y217790D01*
X566222Y217797D01*
X566364Y218141D01*
X569865Y221642D01*
X574440Y223537D01*
X579392Y223537D01*
X583967Y221642D01*
X587468Y218141D01*
X589363Y213566D01*
X589363Y208614D01*
X587468Y204039D01*
X583967Y200538D01*
X579392Y198643D01*
X574440Y198643D01*
X569865Y200538D01*
X566364Y204039D01*
X564961Y207427D01*
X564926Y207483D01*
X564901Y207543D01*
X564849Y207608D01*
X564831Y207636D01*
X564816Y207649D01*
X564796Y207674D01*
X563720Y208750D01*
X508800Y263670D01*
X508726Y263723D01*
X508656Y263783D01*
X508626Y263795D01*
X508600Y263814D01*
X508513Y263841D01*
X508428Y263875D01*
X508387Y263879D01*
X508365Y263886D01*
X508333Y263885D01*
X508261Y263893D01*
X475100Y263893D01*
X474985Y263874D01*
X474869Y263857D01*
X474864Y263855D01*
X474857Y263854D01*
X474755Y263799D01*
X474650Y263746D01*
X474646Y263741D01*
X474640Y263738D01*
X474560Y263654D01*
X474478Y263570D01*
X474474Y263564D01*
X474471Y263560D01*
X474463Y263543D01*
X474397Y263423D01*
X474219Y262995D01*
X472007Y260783D01*
X469116Y259585D01*
X465988Y259585D01*
X463097Y260783D01*
X460885Y262995D01*
X459687Y265886D01*
X459687Y269014D01*
X460885Y271905D01*
X463097Y274117D01*
X465988Y275315D01*
X469116Y275315D01*
X472007Y274117D01*
X474219Y271905D01*
X474397Y271477D01*
X474458Y271377D01*
X474518Y271277D01*
X474523Y271273D01*
X474526Y271268D01*
X474617Y271193D01*
X474705Y271117D01*
X474711Y271115D01*
X474716Y271111D01*
X474824Y271069D01*
X474933Y271025D01*
X474941Y271024D01*
X474946Y271023D01*
X474964Y271022D01*
X475100Y271007D01*
X509430Y271007D01*
X509501Y271018D01*
X509573Y271020D01*
X509622Y271038D01*
X509673Y271046D01*
X509736Y271080D01*
X509804Y271105D01*
X509844Y271137D01*
X509890Y271162D01*
X509940Y271214D01*
X509996Y271258D01*
X510024Y271302D01*
X510060Y271340D01*
X510090Y271405D01*
X510129Y271465D01*
X510142Y271516D01*
X510163Y271563D01*
X510171Y271634D01*
X510189Y271704D01*
X510185Y271756D01*
X510191Y271807D01*
X510175Y271878D01*
X510170Y271949D01*
X510149Y271997D01*
X510138Y272048D01*
X510101Y272109D01*
X510073Y272175D01*
X510029Y272231D01*
X510012Y272259D01*
X509994Y272274D01*
X509969Y272306D01*
X501055Y281220D01*
X500981Y281273D01*
X500911Y281333D01*
X500881Y281345D01*
X500855Y281364D01*
X500768Y281391D01*
X500683Y281425D01*
X500642Y281429D01*
X500620Y281436D01*
X500588Y281435D01*
X500516Y281443D01*
X321789Y281443D01*
X321698Y281429D01*
X321608Y281421D01*
X321578Y281409D01*
X321546Y281404D01*
X321465Y281361D01*
X321381Y281325D01*
X321349Y281299D01*
X321328Y281288D01*
X321306Y281265D01*
X321250Y281220D01*
X314970Y274940D01*
X314917Y274866D01*
X314857Y274796D01*
X314845Y274766D01*
X314826Y274740D01*
X314799Y274653D01*
X314765Y274568D01*
X314761Y274527D01*
X314754Y274505D01*
X314755Y274473D01*
X314747Y274401D01*
X314747Y261211D01*
X313443Y258063D01*
X311034Y255654D01*
X307886Y254350D01*
X304478Y254350D01*
X301330Y255654D01*
X298921Y258063D01*
X297617Y261211D01*
X297617Y278699D01*
X298921Y281847D01*
X301330Y284256D01*
X304478Y285560D01*
X307886Y285560D01*
X311034Y284256D01*
X312091Y283198D01*
X312108Y283186D01*
X312120Y283171D01*
X312207Y283115D01*
X312291Y283054D01*
X312310Y283049D01*
X312327Y283038D01*
X312427Y283012D01*
X312526Y282982D01*
X312546Y282983D01*
X312565Y282978D01*
X312668Y282986D01*
X312772Y282988D01*
X312791Y282995D01*
X312811Y282997D01*
X312906Y283037D01*
X313003Y283073D01*
X313019Y283085D01*
X313037Y283093D01*
X313168Y283198D01*
X317160Y287190D01*
X317202Y287248D01*
X317251Y287300D01*
X317273Y287347D01*
X317303Y287389D01*
X317324Y287458D01*
X317355Y287523D01*
X317360Y287575D01*
X317376Y287625D01*
X317374Y287696D01*
X317382Y287767D01*
X317371Y287818D01*
X317369Y287870D01*
X317345Y287938D01*
X317329Y288008D01*
X317303Y288052D01*
X317285Y288101D01*
X317240Y288157D01*
X317203Y288219D01*
X317164Y288253D01*
X317131Y288293D01*
X317071Y288332D01*
X317016Y288379D01*
X316968Y288398D01*
X316924Y288426D01*
X316855Y288444D01*
X316788Y288471D01*
X316717Y288479D01*
X316686Y288487D01*
X316662Y288485D01*
X316621Y288489D01*
X291789Y288489D01*
X291698Y288475D01*
X291608Y288467D01*
X291578Y288455D01*
X291546Y288450D01*
X291465Y288407D01*
X291381Y288371D01*
X291349Y288345D01*
X291328Y288334D01*
X291306Y288311D01*
X291250Y288266D01*
X208780Y205796D01*
X208727Y205722D01*
X208667Y205652D01*
X208655Y205622D01*
X208636Y205596D01*
X208609Y205509D01*
X208575Y205424D01*
X208571Y205383D01*
X208564Y205361D01*
X208565Y205329D01*
X208557Y205257D01*
X208557Y146789D01*
X208571Y146698D01*
X208579Y146608D01*
X208591Y146578D01*
X208596Y146546D01*
X208639Y146465D01*
X208675Y146381D01*
X208701Y146349D01*
X208712Y146328D01*
X208735Y146306D01*
X208780Y146250D01*
X211571Y143459D01*
X211608Y143433D01*
X211639Y143399D01*
X211707Y143361D01*
X211770Y143316D01*
X211814Y143302D01*
X211854Y143280D01*
X211931Y143266D01*
X212005Y143243D01*
X212051Y143245D01*
X212096Y143237D01*
X212173Y143248D01*
X212251Y143250D01*
X212294Y143266D01*
X212340Y143272D01*
X212409Y143308D01*
X212482Y143334D01*
X212518Y143363D01*
X212559Y143384D01*
X212614Y143439D01*
X212674Y143488D01*
X212699Y143527D01*
X212731Y143559D01*
X212797Y143679D01*
X212807Y143695D01*
X212809Y143700D01*
X212812Y143706D01*
X213182Y144600D01*
X216112Y147530D01*
X219940Y149115D01*
X224083Y149115D01*
X227911Y147530D01*
X230841Y144600D01*
X232426Y140772D01*
X232426Y136629D01*
X230841Y132801D01*
X227911Y129871D01*
X226038Y129096D01*
X225939Y129034D01*
X225839Y128974D01*
X225834Y128969D01*
X225829Y128966D01*
X225755Y128876D01*
X225679Y128787D01*
X225676Y128781D01*
X225672Y128776D01*
X225631Y128668D01*
X225587Y128559D01*
X225586Y128551D01*
X225584Y128547D01*
X225583Y128529D01*
X225568Y128392D01*
X225568Y123609D01*
X225587Y123494D01*
X225604Y123378D01*
X225607Y123372D01*
X225608Y123366D01*
X225662Y123263D01*
X225716Y123159D01*
X225720Y123154D01*
X225723Y123149D01*
X225807Y123069D01*
X225891Y122986D01*
X225898Y122983D01*
X225901Y122979D01*
X225918Y122971D01*
X226038Y122905D01*
X227911Y122130D01*
X230841Y119200D01*
X232426Y115372D01*
X232426Y111229D01*
X230841Y107401D01*
X227911Y104471D01*
X224083Y102886D01*
X219940Y102886D01*
X216112Y104471D01*
X213182Y107401D01*
X211597Y111229D01*
X211597Y115372D01*
X213182Y119200D01*
X216112Y122130D01*
X217985Y122905D01*
X218084Y122967D01*
X218184Y123027D01*
X218189Y123032D01*
X218194Y123035D01*
X218268Y123125D01*
X218344Y123214D01*
X218347Y123220D01*
X218351Y123225D01*
X218392Y123333D01*
X218436Y123442D01*
X218437Y123450D01*
X218439Y123454D01*
X218440Y123472D01*
X218455Y123609D01*
X218455Y128392D01*
X218436Y128507D01*
X218419Y128623D01*
X218416Y128629D01*
X218415Y128635D01*
X218361Y128738D01*
X218307Y128842D01*
X218303Y128847D01*
X218300Y128852D01*
X218216Y128932D01*
X218132Y129015D01*
X218125Y129018D01*
X218122Y129022D01*
X218105Y129030D01*
X217985Y129096D01*
X216112Y129871D01*
X213182Y132801D01*
X212407Y134674D01*
X212345Y134773D01*
X212285Y134873D01*
X212280Y134878D01*
X212277Y134883D01*
X212187Y134957D01*
X212098Y135033D01*
X212092Y135036D01*
X212087Y135040D01*
X211979Y135081D01*
X211870Y135125D01*
X211862Y135126D01*
X211858Y135128D01*
X211840Y135129D01*
X211703Y135144D01*
X209826Y135144D01*
X201443Y143527D01*
X201443Y208519D01*
X203750Y210826D01*
X285702Y292778D01*
X285744Y292836D01*
X285793Y292888D01*
X285815Y292935D01*
X285845Y292977D01*
X285866Y293046D01*
X285897Y293111D01*
X285902Y293163D01*
X285918Y293213D01*
X285916Y293284D01*
X285924Y293355D01*
X285913Y293406D01*
X285911Y293458D01*
X285887Y293526D01*
X285871Y293596D01*
X285845Y293640D01*
X285827Y293689D01*
X285782Y293745D01*
X285745Y293807D01*
X285706Y293841D01*
X285673Y293881D01*
X285613Y293920D01*
X285558Y293967D01*
X285510Y293986D01*
X285466Y294014D01*
X285397Y294032D01*
X285330Y294059D01*
X285259Y294067D01*
X285228Y294075D01*
X285204Y294073D01*
X285163Y294077D01*
X25000Y294077D01*
X24981Y294074D01*
X24950Y294076D01*
X23212Y293962D01*
X23189Y293956D01*
X23065Y293937D01*
X19707Y293038D01*
X19693Y293031D01*
X19677Y293029D01*
X19524Y292962D01*
X16513Y291224D01*
X16501Y291214D01*
X16486Y291207D01*
X16355Y291103D01*
X13897Y288645D01*
X13888Y288632D01*
X13876Y288622D01*
X13776Y288487D01*
X12038Y285476D01*
X12033Y285462D01*
X12023Y285449D01*
X11962Y285293D01*
X11063Y281935D01*
X11060Y281911D01*
X11038Y281788D01*
X10924Y280050D01*
X10926Y280031D01*
X10923Y280000D01*
X10923Y25000D01*
X10926Y24982D01*
X10924Y24950D01*
X11038Y23212D01*
X11044Y23189D01*
X11063Y23065D01*
X11962Y19707D01*
X11969Y19693D01*
X11971Y19677D01*
X12038Y19524D01*
X13776Y16513D01*
X13786Y16501D01*
X13793Y16486D01*
X13897Y16355D01*
X16355Y13897D01*
X16368Y13888D01*
X16378Y13876D01*
X16513Y13776D01*
X19524Y12038D01*
X19538Y12033D01*
X19551Y12023D01*
X19707Y11962D01*
X23065Y11063D01*
X23089Y11060D01*
X23212Y11038D01*
X24950Y10924D01*
X24969Y10926D01*
X25000Y10923D01*
X306357Y10923D01*
X306381Y10927D01*
G37*
%LPC*%
G36*
X616974Y26685D02*
X616974Y26685D01*
X613146Y28271D01*
X610217Y31200D01*
X608631Y35028D01*
X608631Y39172D01*
X610217Y43000D01*
X613146Y45929D01*
X615019Y46705D01*
X615119Y46766D01*
X615219Y46826D01*
X615223Y46831D01*
X615228Y46835D01*
X615303Y46925D01*
X615379Y47013D01*
X615381Y47019D01*
X615385Y47024D01*
X615427Y47132D01*
X615471Y47242D01*
X615472Y47249D01*
X615473Y47254D01*
X615474Y47272D01*
X615489Y47408D01*
X615489Y82379D01*
X615480Y82436D01*
X615480Y82494D01*
X615460Y82557D01*
X615450Y82622D01*
X615422Y82673D01*
X615404Y82728D01*
X615365Y82781D01*
X615334Y82839D01*
X615292Y82879D01*
X615258Y82925D01*
X615179Y82986D01*
X615156Y83008D01*
X615143Y83014D01*
X615125Y83028D01*
X497334Y155085D01*
X497285Y155106D01*
X497240Y155135D01*
X497171Y155152D01*
X497106Y155178D01*
X497053Y155182D01*
X497001Y155195D01*
X496931Y155189D01*
X496861Y155193D01*
X496809Y155180D01*
X496756Y155175D01*
X496691Y155148D01*
X496623Y155130D01*
X496579Y155100D01*
X496530Y155079D01*
X496443Y155009D01*
X496418Y154993D01*
X496412Y154985D01*
X496399Y154974D01*
X495644Y154220D01*
X488910Y154220D01*
X484148Y158981D01*
X484148Y162608D01*
X484138Y162670D01*
X484138Y162733D01*
X484118Y162791D01*
X484109Y162851D01*
X484079Y162906D01*
X484059Y162966D01*
X484022Y163015D01*
X483993Y163068D01*
X483948Y163112D01*
X483910Y163162D01*
X483839Y163215D01*
X483815Y163238D01*
X483799Y163245D01*
X483776Y163263D01*
X453360Y181336D01*
X453249Y181380D01*
X453138Y181425D01*
X453134Y181425D01*
X453131Y181426D01*
X453119Y181427D01*
X452971Y181443D01*
X322646Y181443D01*
X322556Y181429D01*
X322465Y181421D01*
X322435Y181409D01*
X322403Y181404D01*
X322323Y181361D01*
X322239Y181325D01*
X322207Y181299D01*
X322186Y181288D01*
X322185Y181288D01*
X322164Y181265D01*
X322108Y181220D01*
X277380Y136492D01*
X277312Y136398D01*
X277242Y136304D01*
X277240Y136298D01*
X277236Y136292D01*
X277202Y136182D01*
X277166Y136070D01*
X277166Y136063D01*
X277164Y136057D01*
X277167Y135941D01*
X277168Y135824D01*
X277170Y135817D01*
X277170Y135812D01*
X277177Y135794D01*
X277215Y135663D01*
X278169Y133358D01*
X278169Y128912D01*
X276468Y124804D01*
X273324Y121660D01*
X269216Y119958D01*
X264769Y119958D01*
X260661Y121660D01*
X257517Y124804D01*
X255816Y128912D01*
X255816Y133358D01*
X257517Y137466D01*
X260661Y140610D01*
X264769Y142312D01*
X269216Y142312D01*
X271520Y141357D01*
X271634Y141331D01*
X271747Y141302D01*
X271754Y141302D01*
X271760Y141301D01*
X271876Y141312D01*
X271992Y141321D01*
X271998Y141324D01*
X272004Y141324D01*
X272112Y141372D01*
X272219Y141417D01*
X272225Y141422D01*
X272229Y141424D01*
X272243Y141437D01*
X272350Y141522D01*
X319384Y188557D01*
X453616Y188557D01*
X453627Y188559D01*
X453638Y188557D01*
X453804Y188580D01*
X454707Y188810D01*
X454954Y188664D01*
X455066Y188620D01*
X455176Y188575D01*
X455181Y188575D01*
X455183Y188574D01*
X455195Y188573D01*
X455343Y188557D01*
X455630Y188557D01*
X456290Y187897D01*
X456298Y187891D01*
X456305Y187882D01*
X456439Y187781D01*
X487153Y169531D01*
X487198Y169513D01*
X487239Y169487D01*
X487311Y169468D01*
X487382Y169441D01*
X487430Y169439D01*
X487477Y169427D01*
X487552Y169433D01*
X487627Y169429D01*
X487674Y169442D01*
X487722Y169446D01*
X487792Y169475D01*
X487864Y169496D01*
X487904Y169523D01*
X487949Y169542D01*
X488048Y169621D01*
X488067Y169634D01*
X488071Y169640D01*
X488080Y169647D01*
X488910Y170477D01*
X495644Y170477D01*
X495966Y170156D01*
X496032Y170108D01*
X496092Y170054D01*
X496131Y170037D01*
X496165Y170012D01*
X496243Y169988D01*
X496317Y169956D01*
X496360Y169952D01*
X496401Y169940D01*
X496482Y169942D01*
X496562Y169935D01*
X496604Y169945D01*
X496646Y169946D01*
X496723Y169974D01*
X496801Y169993D01*
X496850Y170021D01*
X496877Y170030D01*
X496900Y170048D01*
X496948Y170075D01*
X524986Y190184D01*
X525009Y190208D01*
X525081Y190265D01*
X525873Y191057D01*
X525958Y191057D01*
X525987Y191061D01*
X526016Y191059D01*
X526108Y191081D01*
X526200Y191096D01*
X526226Y191110D01*
X526255Y191117D01*
X526401Y191199D01*
X526470Y191249D01*
X527576Y191067D01*
X527608Y191067D01*
X527699Y191057D01*
X615711Y191057D01*
X615802Y191071D01*
X615892Y191079D01*
X615922Y191091D01*
X615954Y191096D01*
X616035Y191139D01*
X616119Y191175D01*
X616151Y191201D01*
X616172Y191212D01*
X616194Y191235D01*
X616250Y191280D01*
X626220Y201250D01*
X626273Y201324D01*
X626333Y201394D01*
X626345Y201424D01*
X626364Y201450D01*
X626391Y201537D01*
X626425Y201622D01*
X626429Y201663D01*
X626436Y201685D01*
X626435Y201717D01*
X626443Y201789D01*
X626443Y218211D01*
X626429Y218302D01*
X626421Y218392D01*
X626409Y218422D01*
X626404Y218454D01*
X626361Y218535D01*
X626325Y218619D01*
X626299Y218651D01*
X626288Y218672D01*
X626265Y218694D01*
X626220Y218750D01*
X606443Y238527D01*
X606443Y268674D01*
X606440Y268694D01*
X606442Y268713D01*
X606420Y268815D01*
X606404Y268917D01*
X606394Y268934D01*
X606390Y268954D01*
X606337Y269043D01*
X606288Y269134D01*
X606274Y269148D01*
X606264Y269165D01*
X606185Y269232D01*
X606110Y269304D01*
X606092Y269312D01*
X606077Y269325D01*
X605981Y269364D01*
X605887Y269407D01*
X605867Y269409D01*
X605849Y269417D01*
X605682Y269435D01*
X602828Y269435D01*
X601935Y270328D01*
X601935Y284672D01*
X602828Y285565D01*
X617172Y285565D01*
X617892Y284844D01*
X617957Y284798D01*
X618016Y284744D01*
X618056Y284726D01*
X618092Y284700D01*
X618168Y284677D01*
X618241Y284645D01*
X618285Y284641D01*
X618327Y284628D01*
X618407Y284630D01*
X618486Y284623D01*
X618529Y284633D01*
X618573Y284634D01*
X618648Y284662D01*
X618725Y284680D01*
X618762Y284704D01*
X618804Y284719D01*
X618866Y284769D01*
X618933Y284811D01*
X618973Y284854D01*
X618996Y284873D01*
X619011Y284896D01*
X619046Y284935D01*
X620290Y286647D01*
X621853Y288210D01*
X623641Y289509D01*
X625610Y290512D01*
X627712Y291195D01*
X629477Y291475D01*
X629477Y278262D01*
X629480Y278242D01*
X629478Y278223D01*
X629500Y278121D01*
X629517Y278019D01*
X629526Y278002D01*
X629530Y277982D01*
X629583Y277893D01*
X629632Y277802D01*
X629646Y277788D01*
X629656Y277771D01*
X629735Y277704D01*
X629810Y277633D01*
X629828Y277624D01*
X629843Y277611D01*
X629939Y277573D01*
X630033Y277529D01*
X630053Y277527D01*
X630071Y277519D01*
X630238Y277501D01*
X631001Y277501D01*
X631001Y277499D01*
X630238Y277499D01*
X630218Y277496D01*
X630199Y277498D01*
X630097Y277476D01*
X629995Y277459D01*
X629978Y277450D01*
X629958Y277446D01*
X629869Y277393D01*
X629778Y277344D01*
X629764Y277330D01*
X629747Y277320D01*
X629680Y277241D01*
X629609Y277166D01*
X629600Y277148D01*
X629587Y277133D01*
X629548Y277037D01*
X629505Y276943D01*
X629503Y276923D01*
X629495Y276905D01*
X629477Y276738D01*
X629477Y263525D01*
X627712Y263805D01*
X625610Y264488D01*
X623641Y265491D01*
X621853Y266790D01*
X620290Y268353D01*
X619046Y270065D01*
X618990Y270121D01*
X618940Y270183D01*
X618903Y270207D01*
X618872Y270238D01*
X618800Y270273D01*
X618733Y270316D01*
X618690Y270327D01*
X618651Y270346D01*
X618572Y270357D01*
X618495Y270376D01*
X618451Y270373D01*
X618407Y270379D01*
X618329Y270363D01*
X618250Y270357D01*
X618209Y270340D01*
X618165Y270331D01*
X618096Y270292D01*
X618023Y270261D01*
X617977Y270224D01*
X617952Y270210D01*
X617933Y270189D01*
X617892Y270156D01*
X617172Y269435D01*
X614318Y269435D01*
X614298Y269432D01*
X614279Y269434D01*
X614177Y269412D01*
X614075Y269396D01*
X614058Y269386D01*
X614038Y269382D01*
X613949Y269329D01*
X613858Y269280D01*
X613844Y269266D01*
X613827Y269256D01*
X613760Y269177D01*
X613688Y269102D01*
X613680Y269084D01*
X613667Y269069D01*
X613628Y268973D01*
X613585Y268879D01*
X613583Y268859D01*
X613575Y268841D01*
X613557Y268674D01*
X613557Y241789D01*
X613571Y241698D01*
X613579Y241608D01*
X613591Y241578D01*
X613596Y241546D01*
X613639Y241465D01*
X613675Y241381D01*
X613701Y241349D01*
X613712Y241328D01*
X613735Y241306D01*
X613780Y241250D01*
X633557Y221473D01*
X633557Y198527D01*
X618973Y183943D01*
X528734Y183943D01*
X528705Y183939D01*
X528676Y183941D01*
X528584Y183919D01*
X528492Y183904D01*
X528466Y183890D01*
X528437Y183883D01*
X528291Y183801D01*
X500723Y164029D01*
X500702Y164008D01*
X500676Y163992D01*
X500615Y163921D01*
X500549Y163856D01*
X500536Y163829D01*
X500516Y163806D01*
X500481Y163719D01*
X500440Y163635D01*
X500436Y163605D01*
X500424Y163577D01*
X500406Y163411D01*
X500406Y161972D01*
X500415Y161915D01*
X500415Y161857D01*
X500435Y161794D01*
X500445Y161729D01*
X500473Y161678D01*
X500491Y161623D01*
X500530Y161570D01*
X500561Y161512D01*
X500603Y161472D01*
X500637Y161425D01*
X500716Y161364D01*
X500739Y161342D01*
X500752Y161336D01*
X500770Y161323D01*
X501298Y160999D01*
X502542Y160238D01*
X502543Y160238D01*
X503787Y159477D01*
X505031Y158716D01*
X506276Y157954D01*
X507520Y157193D01*
X508764Y156432D01*
X508765Y156432D01*
X510009Y155671D01*
X511253Y154909D01*
X512498Y154148D01*
X513742Y153387D01*
X514986Y152626D01*
X514987Y152626D01*
X516231Y151864D01*
X517475Y151103D01*
X518720Y150342D01*
X519964Y149581D01*
X521209Y148819D01*
X522453Y148058D01*
X523697Y147297D01*
X524942Y146536D01*
X526186Y145774D01*
X527431Y145013D01*
X528675Y144252D01*
X529919Y143491D01*
X531164Y142729D01*
X532408Y141968D01*
X619517Y88681D01*
X619865Y88468D01*
X619866Y88467D01*
X619867Y88466D01*
X619983Y88419D01*
X620093Y88375D01*
X620094Y88375D01*
X620095Y88374D01*
X620262Y88356D01*
X620519Y88356D01*
X621198Y87677D01*
X621203Y87673D01*
X621207Y87668D01*
X621339Y87566D01*
X622005Y87158D01*
X622006Y87158D01*
X622159Y87064D01*
X622219Y86814D01*
X622220Y86813D01*
X622220Y86812D01*
X622237Y86770D01*
X622238Y86768D01*
X622239Y86766D01*
X622266Y86702D01*
X622314Y86588D01*
X622315Y86587D01*
X622316Y86585D01*
X622421Y86454D01*
X622603Y86272D01*
X622603Y85312D01*
X622604Y85306D01*
X622603Y85300D01*
X622624Y85134D01*
X622849Y84200D01*
X622715Y83980D01*
X622714Y83979D01*
X622713Y83978D01*
X622667Y83863D01*
X622622Y83753D01*
X622622Y83751D01*
X622621Y83750D01*
X622603Y83583D01*
X622603Y47408D01*
X622622Y47293D01*
X622639Y47177D01*
X622641Y47172D01*
X622642Y47165D01*
X622697Y47063D01*
X622750Y46958D01*
X622755Y46954D01*
X622758Y46948D01*
X622842Y46868D01*
X622926Y46786D01*
X622932Y46782D01*
X622936Y46779D01*
X622953Y46771D01*
X623073Y46705D01*
X624946Y45929D01*
X627875Y43000D01*
X629461Y39172D01*
X629461Y35028D01*
X627875Y31200D01*
X624946Y28271D01*
X621118Y26685D01*
X616974Y26685D01*
G37*
%LPD*%
%LPC*%
G36*
X254478Y204350D02*
X254478Y204350D01*
X251330Y205654D01*
X248921Y208063D01*
X247617Y211211D01*
X247617Y228699D01*
X248921Y231847D01*
X251330Y234256D01*
X254478Y235560D01*
X257886Y235560D01*
X261034Y234256D01*
X263443Y231847D01*
X264747Y228699D01*
X264747Y224273D01*
X264750Y224253D01*
X264748Y224234D01*
X264770Y224132D01*
X264786Y224030D01*
X264796Y224013D01*
X264800Y223993D01*
X264853Y223904D01*
X264902Y223813D01*
X264916Y223799D01*
X264926Y223782D01*
X265005Y223715D01*
X265080Y223643D01*
X265098Y223635D01*
X265113Y223622D01*
X265209Y223583D01*
X265303Y223540D01*
X265323Y223538D01*
X265341Y223530D01*
X265508Y223512D01*
X271856Y223512D01*
X271876Y223515D01*
X271895Y223513D01*
X271997Y223535D01*
X272099Y223551D01*
X272116Y223561D01*
X272136Y223565D01*
X272225Y223618D01*
X272316Y223667D01*
X272330Y223681D01*
X272347Y223691D01*
X272414Y223770D01*
X272486Y223845D01*
X272494Y223863D01*
X272507Y223878D01*
X272546Y223974D01*
X272589Y224068D01*
X272591Y224088D01*
X272599Y224106D01*
X272617Y224273D01*
X272617Y228699D01*
X273921Y231847D01*
X276330Y234256D01*
X279478Y235560D01*
X282886Y235560D01*
X286034Y234256D01*
X288443Y231847D01*
X289747Y228699D01*
X289747Y224273D01*
X289750Y224253D01*
X289748Y224234D01*
X289770Y224132D01*
X289786Y224030D01*
X289796Y224013D01*
X289800Y223993D01*
X289853Y223904D01*
X289902Y223813D01*
X289916Y223799D01*
X289926Y223782D01*
X290005Y223715D01*
X290080Y223643D01*
X290098Y223635D01*
X290113Y223622D01*
X290209Y223583D01*
X290303Y223540D01*
X290323Y223538D01*
X290341Y223530D01*
X290508Y223512D01*
X321856Y223512D01*
X321876Y223515D01*
X321895Y223513D01*
X321997Y223535D01*
X322099Y223551D01*
X322116Y223561D01*
X322136Y223565D01*
X322225Y223618D01*
X322316Y223667D01*
X322330Y223681D01*
X322347Y223691D01*
X322414Y223770D01*
X322486Y223845D01*
X322494Y223863D01*
X322507Y223878D01*
X322546Y223974D01*
X322589Y224068D01*
X322591Y224088D01*
X322599Y224106D01*
X322617Y224273D01*
X322617Y228699D01*
X323921Y231847D01*
X326330Y234256D01*
X329478Y235560D01*
X332886Y235560D01*
X336034Y234256D01*
X338443Y231847D01*
X339747Y228699D01*
X339747Y224273D01*
X339750Y224253D01*
X339748Y224234D01*
X339770Y224132D01*
X339786Y224030D01*
X339796Y224013D01*
X339800Y223993D01*
X339853Y223904D01*
X339902Y223813D01*
X339916Y223799D01*
X339926Y223782D01*
X340005Y223715D01*
X340080Y223643D01*
X340098Y223635D01*
X340113Y223622D01*
X340209Y223583D01*
X340303Y223540D01*
X340323Y223538D01*
X340341Y223530D01*
X340508Y223512D01*
X346856Y223512D01*
X346876Y223515D01*
X346895Y223513D01*
X346997Y223535D01*
X347099Y223551D01*
X347116Y223561D01*
X347136Y223565D01*
X347225Y223618D01*
X347316Y223667D01*
X347330Y223681D01*
X347347Y223691D01*
X347414Y223770D01*
X347486Y223845D01*
X347494Y223863D01*
X347507Y223878D01*
X347546Y223974D01*
X347589Y224068D01*
X347591Y224088D01*
X347599Y224106D01*
X347617Y224273D01*
X347617Y228699D01*
X348921Y231847D01*
X351330Y234256D01*
X354478Y235560D01*
X357886Y235560D01*
X361034Y234256D01*
X363443Y231847D01*
X364747Y228699D01*
X364747Y224273D01*
X364750Y224253D01*
X364748Y224234D01*
X364770Y224132D01*
X364786Y224030D01*
X364796Y224013D01*
X364800Y223993D01*
X364853Y223904D01*
X364902Y223813D01*
X364916Y223799D01*
X364926Y223782D01*
X365005Y223715D01*
X365080Y223643D01*
X365098Y223635D01*
X365113Y223622D01*
X365209Y223583D01*
X365303Y223540D01*
X365323Y223538D01*
X365341Y223530D01*
X365508Y223512D01*
X392868Y223512D01*
X392959Y223526D01*
X393049Y223534D01*
X393079Y223546D01*
X393111Y223551D01*
X393192Y223594D01*
X393276Y223630D01*
X393308Y223656D01*
X393329Y223667D01*
X393351Y223690D01*
X393407Y223735D01*
X434300Y264628D01*
X434367Y264722D01*
X434438Y264816D01*
X434440Y264822D01*
X434443Y264827D01*
X434477Y264938D01*
X434514Y265050D01*
X434514Y265056D01*
X434516Y265062D01*
X434513Y265179D01*
X434512Y265191D01*
X434516Y265220D01*
X434512Y265237D01*
X434511Y265296D01*
X434509Y265303D01*
X434509Y265308D01*
X434503Y265326D01*
X434465Y265457D01*
X434287Y265886D01*
X434287Y269014D01*
X435485Y271905D01*
X437697Y274117D01*
X440588Y275315D01*
X443716Y275315D01*
X446607Y274117D01*
X448819Y271905D01*
X450017Y269014D01*
X450017Y265886D01*
X448819Y262995D01*
X446607Y260783D01*
X443716Y259585D01*
X440588Y259585D01*
X440159Y259763D01*
X440046Y259789D01*
X439932Y259818D01*
X439926Y259817D01*
X439920Y259819D01*
X439803Y259808D01*
X439687Y259799D01*
X439681Y259796D01*
X439675Y259796D01*
X439567Y259748D01*
X439461Y259702D01*
X439455Y259698D01*
X439450Y259696D01*
X439436Y259683D01*
X439330Y259598D01*
X398437Y218705D01*
X396130Y216398D01*
X365508Y216398D01*
X365488Y216395D01*
X365469Y216397D01*
X365367Y216375D01*
X365265Y216359D01*
X365248Y216349D01*
X365228Y216345D01*
X365139Y216292D01*
X365048Y216243D01*
X365034Y216229D01*
X365017Y216219D01*
X364950Y216140D01*
X364878Y216065D01*
X364870Y216047D01*
X364857Y216032D01*
X364818Y215936D01*
X364775Y215842D01*
X364773Y215822D01*
X364765Y215804D01*
X364747Y215637D01*
X364747Y211211D01*
X363443Y208063D01*
X361034Y205654D01*
X357886Y204350D01*
X354478Y204350D01*
X351330Y205654D01*
X348921Y208063D01*
X347617Y211211D01*
X347617Y215637D01*
X347614Y215657D01*
X347616Y215676D01*
X347594Y215778D01*
X347578Y215880D01*
X347568Y215897D01*
X347564Y215917D01*
X347511Y216006D01*
X347462Y216097D01*
X347448Y216111D01*
X347438Y216128D01*
X347359Y216195D01*
X347284Y216267D01*
X347266Y216275D01*
X347251Y216288D01*
X347155Y216327D01*
X347061Y216370D01*
X347041Y216372D01*
X347023Y216380D01*
X346856Y216398D01*
X340508Y216398D01*
X340488Y216395D01*
X340469Y216397D01*
X340367Y216375D01*
X340265Y216359D01*
X340248Y216349D01*
X340228Y216345D01*
X340139Y216292D01*
X340048Y216243D01*
X340034Y216229D01*
X340017Y216219D01*
X339950Y216140D01*
X339878Y216065D01*
X339870Y216047D01*
X339857Y216032D01*
X339818Y215936D01*
X339775Y215842D01*
X339773Y215822D01*
X339765Y215804D01*
X339747Y215637D01*
X339747Y211211D01*
X338443Y208063D01*
X336034Y205654D01*
X332886Y204350D01*
X329478Y204350D01*
X326330Y205654D01*
X323921Y208063D01*
X322617Y211211D01*
X322617Y215637D01*
X322614Y215657D01*
X322616Y215676D01*
X322594Y215778D01*
X322578Y215880D01*
X322568Y215897D01*
X322564Y215917D01*
X322511Y216006D01*
X322462Y216097D01*
X322448Y216111D01*
X322438Y216128D01*
X322359Y216195D01*
X322284Y216267D01*
X322266Y216275D01*
X322251Y216288D01*
X322155Y216327D01*
X322061Y216370D01*
X322041Y216372D01*
X322023Y216380D01*
X321856Y216398D01*
X290508Y216398D01*
X290488Y216395D01*
X290469Y216397D01*
X290367Y216375D01*
X290265Y216359D01*
X290248Y216349D01*
X290228Y216345D01*
X290139Y216292D01*
X290048Y216243D01*
X290034Y216229D01*
X290017Y216219D01*
X289950Y216140D01*
X289878Y216065D01*
X289870Y216047D01*
X289857Y216032D01*
X289818Y215936D01*
X289775Y215842D01*
X289773Y215822D01*
X289765Y215804D01*
X289747Y215637D01*
X289747Y211211D01*
X288443Y208063D01*
X286034Y205654D01*
X282886Y204350D01*
X279478Y204350D01*
X276330Y205654D01*
X273921Y208063D01*
X272617Y211211D01*
X272617Y215637D01*
X272614Y215657D01*
X272616Y215676D01*
X272594Y215778D01*
X272578Y215880D01*
X272568Y215897D01*
X272564Y215917D01*
X272511Y216006D01*
X272462Y216097D01*
X272448Y216111D01*
X272438Y216128D01*
X272359Y216195D01*
X272284Y216267D01*
X272266Y216275D01*
X272251Y216288D01*
X272155Y216327D01*
X272061Y216370D01*
X272041Y216372D01*
X272023Y216380D01*
X271856Y216398D01*
X265508Y216398D01*
X265488Y216395D01*
X265469Y216397D01*
X265367Y216375D01*
X265265Y216359D01*
X265248Y216349D01*
X265228Y216345D01*
X265139Y216292D01*
X265048Y216243D01*
X265034Y216229D01*
X265017Y216219D01*
X264950Y216140D01*
X264878Y216065D01*
X264870Y216047D01*
X264857Y216032D01*
X264818Y215936D01*
X264775Y215842D01*
X264773Y215822D01*
X264765Y215804D01*
X264747Y215637D01*
X264747Y211211D01*
X263443Y208063D01*
X261034Y205654D01*
X257886Y204350D01*
X254478Y204350D01*
G37*
%LPD*%
%LPC*%
G36*
X429701Y20843D02*
X429701Y20843D01*
X425352Y25192D01*
X425278Y25245D01*
X425209Y25305D01*
X425178Y25317D01*
X425152Y25336D01*
X425065Y25363D01*
X424980Y25397D01*
X424939Y25401D01*
X424917Y25408D01*
X424885Y25407D01*
X424814Y25415D01*
X421800Y25415D01*
X419494Y27722D01*
X378727Y68489D01*
X378653Y68542D01*
X378584Y68601D01*
X378554Y68613D01*
X378527Y68633D01*
X378440Y68659D01*
X378356Y68693D01*
X378314Y68698D01*
X378292Y68705D01*
X378260Y68704D01*
X378190Y68712D01*
X372019Y68723D01*
X367265Y73493D01*
X367277Y80227D01*
X372047Y84980D01*
X378177Y84970D01*
X378268Y84984D01*
X378360Y84991D01*
X378389Y85004D01*
X378420Y85009D01*
X378501Y85052D01*
X378586Y85088D01*
X378617Y85113D01*
X378638Y85124D01*
X378660Y85147D01*
X378717Y85192D01*
X409270Y115746D01*
X409323Y115820D01*
X409383Y115889D01*
X409395Y115920D01*
X409414Y115946D01*
X409441Y116033D01*
X409475Y116118D01*
X409479Y116158D01*
X409486Y116181D01*
X409485Y116213D01*
X409493Y116284D01*
X409493Y120916D01*
X415296Y126719D01*
X423504Y126719D01*
X429307Y120916D01*
X429307Y112709D01*
X423504Y106906D01*
X415296Y106906D01*
X413432Y108771D01*
X413415Y108782D01*
X413403Y108798D01*
X413316Y108854D01*
X413232Y108914D01*
X413213Y108920D01*
X413196Y108931D01*
X413096Y108956D01*
X412997Y108987D01*
X412977Y108986D01*
X412957Y108991D01*
X412855Y108983D01*
X412751Y108980D01*
X412732Y108973D01*
X412712Y108972D01*
X412617Y108931D01*
X412520Y108896D01*
X412504Y108883D01*
X412486Y108876D01*
X412355Y108771D01*
X383756Y80172D01*
X383704Y80099D01*
X383645Y80030D01*
X383632Y79999D01*
X383613Y79972D01*
X383586Y79886D01*
X383552Y79802D01*
X383548Y79760D01*
X383541Y79737D01*
X383541Y79705D01*
X383534Y79635D01*
X383524Y74068D01*
X383539Y73978D01*
X383546Y73886D01*
X383558Y73857D01*
X383563Y73826D01*
X383606Y73744D01*
X383642Y73660D01*
X383667Y73628D01*
X383678Y73608D01*
X383701Y73586D01*
X383747Y73529D01*
X424400Y32876D01*
X424416Y32864D01*
X424428Y32849D01*
X424516Y32793D01*
X424599Y32732D01*
X424618Y32727D01*
X424635Y32716D01*
X424736Y32690D01*
X424834Y32660D01*
X424854Y32661D01*
X424874Y32656D01*
X424977Y32664D01*
X425080Y32666D01*
X425099Y32673D01*
X425119Y32675D01*
X425214Y32715D01*
X425311Y32751D01*
X425327Y32763D01*
X425345Y32771D01*
X425476Y32876D01*
X429701Y37101D01*
X436435Y37101D01*
X441197Y32339D01*
X441197Y25605D01*
X436435Y20843D01*
X429701Y20843D01*
G37*
%LPD*%
%LPC*%
G36*
X321219Y68811D02*
X321219Y68811D01*
X316465Y73581D01*
X316477Y80316D01*
X321247Y85069D01*
X327377Y85058D01*
X327468Y85073D01*
X327560Y85080D01*
X327589Y85092D01*
X327620Y85097D01*
X327702Y85140D01*
X327786Y85176D01*
X327817Y85201D01*
X327838Y85212D01*
X327860Y85236D01*
X327917Y85281D01*
X361484Y118848D01*
X363790Y121154D01*
X377432Y121154D01*
X377452Y121157D01*
X377471Y121155D01*
X377573Y121177D01*
X377675Y121194D01*
X377692Y121203D01*
X377712Y121208D01*
X377801Y121261D01*
X377892Y121309D01*
X377906Y121323D01*
X377923Y121334D01*
X377990Y121412D01*
X378062Y121487D01*
X378070Y121505D01*
X378083Y121521D01*
X378122Y121617D01*
X378133Y121640D01*
X384046Y127554D01*
X384062Y127558D01*
X384151Y127611D01*
X384242Y127659D01*
X384256Y127673D01*
X384273Y127684D01*
X384340Y127762D01*
X384412Y127837D01*
X384420Y127855D01*
X384433Y127871D01*
X384472Y127967D01*
X384515Y128060D01*
X384517Y128080D01*
X384525Y128099D01*
X384543Y128265D01*
X384543Y144647D01*
X384529Y144738D01*
X384521Y144828D01*
X384509Y144858D01*
X384504Y144890D01*
X384461Y144971D01*
X384425Y145055D01*
X384399Y145087D01*
X384388Y145108D01*
X384365Y145130D01*
X384320Y145186D01*
X378722Y150784D01*
X378648Y150837D01*
X378578Y150897D01*
X378548Y150909D01*
X378522Y150928D01*
X378435Y150955D01*
X378350Y150989D01*
X378309Y150993D01*
X378287Y151000D01*
X378255Y150999D01*
X378183Y151007D01*
X372033Y151007D01*
X367271Y155769D01*
X367271Y162503D01*
X372033Y167265D01*
X378767Y167265D01*
X383529Y162503D01*
X383529Y156353D01*
X383543Y156262D01*
X383551Y156172D01*
X383563Y156142D01*
X383568Y156110D01*
X383611Y156029D01*
X383647Y155945D01*
X383673Y155913D01*
X383684Y155892D01*
X383707Y155870D01*
X383752Y155814D01*
X391657Y147909D01*
X391657Y128265D01*
X391660Y128246D01*
X391658Y128226D01*
X391680Y128125D01*
X391696Y128023D01*
X391706Y128005D01*
X391710Y127986D01*
X391763Y127897D01*
X391812Y127805D01*
X391826Y127792D01*
X391836Y127775D01*
X391915Y127707D01*
X391990Y127636D01*
X392008Y127628D01*
X392023Y127615D01*
X392119Y127576D01*
X392143Y127565D01*
X398007Y121701D01*
X398007Y113494D01*
X392204Y107691D01*
X383996Y107691D01*
X378143Y113544D01*
X378140Y113559D01*
X378087Y113648D01*
X378038Y113740D01*
X378024Y113753D01*
X378014Y113770D01*
X377935Y113838D01*
X377860Y113909D01*
X377842Y113917D01*
X377827Y113930D01*
X377731Y113969D01*
X377637Y114013D01*
X377617Y114015D01*
X377599Y114022D01*
X377432Y114041D01*
X367052Y114041D01*
X366962Y114026D01*
X366871Y114019D01*
X366841Y114006D01*
X366809Y114001D01*
X366728Y113958D01*
X366644Y113923D01*
X366612Y113897D01*
X366592Y113886D01*
X366569Y113863D01*
X366514Y113818D01*
X332957Y80261D01*
X332904Y80187D01*
X332845Y80119D01*
X332832Y80088D01*
X332813Y80061D01*
X332786Y79975D01*
X332752Y79891D01*
X332748Y79849D01*
X332741Y79826D01*
X332742Y79794D01*
X332734Y79724D01*
X332723Y73553D01*
X327953Y68800D01*
X321219Y68811D01*
G37*
%LPD*%
%LPC*%
G36*
X264769Y69158D02*
X264769Y69158D01*
X260661Y70860D01*
X257517Y74004D01*
X255816Y78112D01*
X255816Y82558D01*
X257517Y86666D01*
X260661Y89810D01*
X264769Y91512D01*
X269216Y91512D01*
X271520Y90557D01*
X271634Y90530D01*
X271747Y90502D01*
X271753Y90502D01*
X271760Y90501D01*
X271876Y90512D01*
X271992Y90521D01*
X271998Y90524D01*
X272004Y90524D01*
X272112Y90572D01*
X272219Y90617D01*
X272225Y90622D01*
X272229Y90624D01*
X272243Y90637D01*
X272350Y90722D01*
X288720Y107093D01*
X288767Y107157D01*
X288782Y107173D01*
X288785Y107181D01*
X288833Y107236D01*
X288845Y107266D01*
X288864Y107293D01*
X288891Y107379D01*
X288925Y107464D01*
X288929Y107505D01*
X288936Y107528D01*
X288935Y107560D01*
X288943Y107631D01*
X288943Y128509D01*
X316248Y155814D01*
X316295Y155879D01*
X316308Y155893D01*
X316311Y155900D01*
X316361Y155958D01*
X316373Y155988D01*
X316392Y156014D01*
X316419Y156101D01*
X316453Y156186D01*
X316457Y156227D01*
X316464Y156249D01*
X316463Y156281D01*
X316471Y156353D01*
X316471Y162503D01*
X321233Y167265D01*
X327967Y167265D01*
X332729Y162503D01*
X332729Y155769D01*
X327967Y151007D01*
X321817Y151007D01*
X321726Y150993D01*
X321636Y150985D01*
X321606Y150973D01*
X321574Y150968D01*
X321493Y150925D01*
X321409Y150889D01*
X321377Y150863D01*
X321356Y150852D01*
X321343Y150839D01*
X321342Y150838D01*
X321331Y150827D01*
X321278Y150784D01*
X296280Y125786D01*
X296227Y125712D01*
X296167Y125642D01*
X296155Y125612D01*
X296136Y125586D01*
X296109Y125499D01*
X296075Y125414D01*
X296071Y125373D01*
X296064Y125351D01*
X296065Y125319D01*
X296057Y125247D01*
X296057Y104369D01*
X293750Y102063D01*
X277380Y85692D01*
X277312Y85597D01*
X277242Y85504D01*
X277240Y85498D01*
X277236Y85492D01*
X277202Y85381D01*
X277166Y85270D01*
X277166Y85263D01*
X277164Y85257D01*
X277167Y85141D01*
X277168Y85024D01*
X277170Y85017D01*
X277170Y85012D01*
X277177Y84994D01*
X277215Y84863D01*
X278169Y82558D01*
X278169Y78112D01*
X276468Y74004D01*
X273324Y70860D01*
X269216Y69158D01*
X264769Y69158D01*
G37*
%LPD*%
%LPC*%
G36*
X480501Y20843D02*
X480501Y20843D01*
X475739Y25605D01*
X475739Y32339D01*
X480501Y37101D01*
X487235Y37101D01*
X491584Y32752D01*
X491658Y32699D01*
X491727Y32639D01*
X491758Y32627D01*
X491784Y32608D01*
X491871Y32581D01*
X491956Y32547D01*
X491997Y32543D01*
X492019Y32536D01*
X492051Y32537D01*
X492122Y32529D01*
X532327Y32529D01*
X532373Y32536D01*
X532419Y32534D01*
X532493Y32556D01*
X532570Y32568D01*
X532611Y32590D01*
X532655Y32603D01*
X532719Y32647D01*
X532788Y32684D01*
X532819Y32717D01*
X532857Y32743D01*
X532903Y32805D01*
X532957Y32862D01*
X532976Y32904D01*
X533004Y32940D01*
X533028Y33014D01*
X533061Y33085D01*
X533066Y33131D01*
X533080Y33174D01*
X533079Y33252D01*
X533088Y33329D01*
X533078Y33374D01*
X533077Y33420D01*
X533039Y33552D01*
X533035Y33570D01*
X533033Y33574D01*
X533031Y33581D01*
X532431Y35028D01*
X532431Y39172D01*
X534017Y43000D01*
X536946Y45929D01*
X540774Y47515D01*
X544918Y47515D01*
X548746Y45929D01*
X551675Y43000D01*
X553261Y39172D01*
X553261Y35028D01*
X551675Y31200D01*
X548746Y28271D01*
X544918Y26685D01*
X540774Y26685D01*
X538902Y27461D01*
X538788Y27488D01*
X538674Y27516D01*
X538668Y27516D01*
X538662Y27517D01*
X538546Y27506D01*
X538429Y27497D01*
X538424Y27495D01*
X538417Y27494D01*
X538310Y27446D01*
X538203Y27401D01*
X538197Y27396D01*
X538193Y27394D01*
X538179Y27381D01*
X538072Y27296D01*
X536191Y25415D01*
X492122Y25415D01*
X492032Y25401D01*
X491941Y25393D01*
X491912Y25381D01*
X491880Y25376D01*
X491799Y25333D01*
X491715Y25297D01*
X491683Y25271D01*
X491662Y25260D01*
X491640Y25237D01*
X491584Y25192D01*
X487235Y20843D01*
X480501Y20843D01*
G37*
%LPD*%
%LPC*%
G36*
X550523Y276738D02*
X550523Y276738D01*
X550520Y276758D01*
X550522Y276777D01*
X550500Y276879D01*
X550483Y276981D01*
X550474Y276998D01*
X550470Y277018D01*
X550417Y277107D01*
X550368Y277198D01*
X550354Y277212D01*
X550344Y277229D01*
X550265Y277296D01*
X550190Y277367D01*
X550172Y277376D01*
X550157Y277389D01*
X550061Y277427D01*
X549967Y277471D01*
X549947Y277473D01*
X549929Y277481D01*
X549762Y277499D01*
X548999Y277499D01*
X548999Y277501D01*
X549762Y277501D01*
X549782Y277504D01*
X549801Y277502D01*
X549903Y277524D01*
X550005Y277541D01*
X550022Y277550D01*
X550042Y277554D01*
X550131Y277607D01*
X550222Y277656D01*
X550236Y277670D01*
X550253Y277680D01*
X550320Y277759D01*
X550391Y277834D01*
X550400Y277852D01*
X550413Y277867D01*
X550452Y277963D01*
X550495Y278057D01*
X550497Y278077D01*
X550505Y278095D01*
X550523Y278262D01*
X550523Y291475D01*
X552288Y291195D01*
X554390Y290512D01*
X556359Y289509D01*
X558147Y288210D01*
X559710Y286647D01*
X561009Y284859D01*
X562012Y282890D01*
X562112Y282582D01*
X562147Y282515D01*
X562173Y282444D01*
X562203Y282407D01*
X562225Y282364D01*
X562279Y282311D01*
X562326Y282252D01*
X562367Y282226D01*
X562401Y282193D01*
X562469Y282160D01*
X562533Y282119D01*
X562580Y282107D01*
X562623Y282087D01*
X562698Y282078D01*
X562772Y282059D01*
X562820Y282063D01*
X562867Y282057D01*
X562942Y282072D01*
X563017Y282078D01*
X563061Y282097D01*
X563108Y282107D01*
X563174Y282145D01*
X563243Y282175D01*
X563294Y282215D01*
X563321Y282231D01*
X563338Y282250D01*
X563374Y282279D01*
X565432Y284337D01*
X568396Y285565D01*
X571604Y285565D01*
X574568Y284337D01*
X576837Y282068D01*
X578065Y279104D01*
X578065Y275896D01*
X576837Y272932D01*
X574568Y270663D01*
X571604Y269435D01*
X568396Y269435D01*
X565432Y270663D01*
X563374Y272721D01*
X563313Y272765D01*
X563257Y272816D01*
X563213Y272836D01*
X563174Y272864D01*
X563102Y272886D01*
X563033Y272918D01*
X562985Y272922D01*
X562939Y272936D01*
X562864Y272935D01*
X562789Y272942D01*
X562742Y272931D01*
X562693Y272930D01*
X562622Y272904D01*
X562549Y272887D01*
X562508Y272862D01*
X562462Y272846D01*
X562403Y272798D01*
X562339Y272759D01*
X562308Y272722D01*
X562270Y272692D01*
X562230Y272628D01*
X562181Y272570D01*
X562154Y272511D01*
X562137Y272485D01*
X562131Y272460D01*
X562112Y272418D01*
X562012Y272110D01*
X561009Y270141D01*
X559710Y268353D01*
X558147Y266790D01*
X556359Y265491D01*
X554390Y264488D01*
X552288Y263805D01*
X550523Y263525D01*
X550523Y276738D01*
G37*
%LPD*%
%LPC*%
G36*
X264769Y43758D02*
X264769Y43758D01*
X260661Y45460D01*
X257517Y48604D01*
X255816Y52712D01*
X255816Y57158D01*
X257517Y61266D01*
X260661Y64410D01*
X264769Y66112D01*
X269216Y66112D01*
X273324Y64410D01*
X276468Y61266D01*
X278169Y57158D01*
X278169Y52712D01*
X276468Y48604D01*
X273324Y45460D01*
X269216Y43758D01*
X264769Y43758D01*
G37*
%LPD*%
%LPC*%
G36*
X264769Y94558D02*
X264769Y94558D01*
X260661Y96260D01*
X257517Y99404D01*
X255816Y103512D01*
X255816Y107958D01*
X257517Y112066D01*
X260661Y115210D01*
X264769Y116912D01*
X269216Y116912D01*
X273324Y115210D01*
X276468Y112066D01*
X278169Y107958D01*
X278169Y103512D01*
X276468Y99404D01*
X273324Y96260D01*
X269216Y94558D01*
X264769Y94558D01*
G37*
%LPD*%
%LPC*%
G36*
X566174Y26685D02*
X566174Y26685D01*
X562346Y28271D01*
X559417Y31200D01*
X557831Y35028D01*
X557831Y39172D01*
X559417Y43000D01*
X562346Y45929D01*
X566174Y47515D01*
X570318Y47515D01*
X574146Y45929D01*
X577075Y43000D01*
X578661Y39172D01*
X578661Y35028D01*
X577075Y31200D01*
X574146Y28271D01*
X570318Y26685D01*
X566174Y26685D01*
G37*
%LPD*%
%LPC*%
G36*
X591574Y26685D02*
X591574Y26685D01*
X587746Y28271D01*
X584817Y31200D01*
X583231Y35028D01*
X583231Y39172D01*
X584817Y43000D01*
X587746Y45929D01*
X591574Y47515D01*
X595718Y47515D01*
X599546Y45929D01*
X602475Y43000D01*
X604061Y39172D01*
X604061Y35028D01*
X602475Y31200D01*
X599546Y28271D01*
X595718Y26685D01*
X591574Y26685D01*
G37*
%LPD*%
%LPC*%
G36*
X409780Y259585D02*
X409780Y259585D01*
X408887Y260478D01*
X408887Y274422D01*
X409780Y275315D01*
X423724Y275315D01*
X424617Y274422D01*
X424617Y260478D01*
X423724Y259585D01*
X409780Y259585D01*
G37*
%LPD*%
%LPC*%
G36*
X632523Y279023D02*
X632523Y279023D01*
X632523Y291475D01*
X634288Y291195D01*
X636390Y290512D01*
X638359Y289509D01*
X640147Y288210D01*
X641710Y286647D01*
X643009Y284859D01*
X644012Y282890D01*
X644695Y280788D01*
X644975Y279023D01*
X632523Y279023D01*
G37*
%LPD*%
%LPC*%
G36*
X535025Y279023D02*
X535025Y279023D01*
X535305Y280788D01*
X535988Y282890D01*
X536991Y284859D01*
X538290Y286647D01*
X539853Y288210D01*
X541641Y289509D01*
X543610Y290512D01*
X545712Y291195D01*
X547477Y291475D01*
X547477Y279023D01*
X535025Y279023D01*
G37*
%LPD*%
%LPC*%
G36*
X632523Y275977D02*
X632523Y275977D01*
X644975Y275977D01*
X644695Y274212D01*
X644012Y272110D01*
X643009Y270141D01*
X641710Y268353D01*
X640147Y266790D01*
X638359Y265491D01*
X636390Y264488D01*
X634288Y263805D01*
X632523Y263525D01*
X632523Y275977D01*
G37*
%LPD*%
%LPC*%
G36*
X545712Y263805D02*
X545712Y263805D01*
X543610Y264488D01*
X541641Y265491D01*
X539853Y266790D01*
X538290Y268353D01*
X536991Y270141D01*
X535988Y272110D01*
X535305Y274212D01*
X535025Y275977D01*
X547477Y275977D01*
X547477Y263525D01*
X545712Y263805D01*
G37*
%LPD*%
%LPC*%
G36*
X645969Y38623D02*
X645969Y38623D01*
X645969Y48531D01*
X653670Y48531D01*
X654317Y48358D01*
X654896Y48023D01*
X655369Y47550D01*
X655704Y46971D01*
X655877Y46324D01*
X655877Y38623D01*
X645969Y38623D01*
G37*
%LPD*%
%LPC*%
G36*
X633015Y38623D02*
X633015Y38623D01*
X633015Y46324D01*
X633188Y46971D01*
X633523Y47550D01*
X633996Y48023D01*
X634575Y48358D01*
X635222Y48531D01*
X642923Y48531D01*
X642923Y38623D01*
X633015Y38623D01*
G37*
%LPD*%
%LPC*%
G36*
X645969Y25669D02*
X645969Y25669D01*
X645969Y35577D01*
X655877Y35577D01*
X655877Y27876D01*
X655704Y27229D01*
X655369Y26650D01*
X654896Y26177D01*
X654317Y25842D01*
X653670Y25669D01*
X645969Y25669D01*
G37*
%LPD*%
%LPC*%
G36*
X635222Y25669D02*
X635222Y25669D01*
X634575Y25842D01*
X633996Y26177D01*
X633523Y26650D01*
X633188Y27229D01*
X633015Y27876D01*
X633015Y35577D01*
X642923Y35577D01*
X642923Y25669D01*
X635222Y25669D01*
G37*
%LPD*%
%LPC*%
G36*
X347802Y244693D02*
X347802Y244693D01*
X344693Y247802D01*
X344693Y252198D01*
X347802Y255307D01*
X352198Y255307D01*
X355307Y252198D01*
X355307Y247802D01*
X352198Y244693D01*
X347802Y244693D01*
G37*
%LPD*%
%LPC*%
G36*
X97802Y244693D02*
X97802Y244693D01*
X94693Y247802D01*
X94693Y252198D01*
X97802Y255307D01*
X102198Y255307D01*
X105307Y252198D01*
X105307Y247802D01*
X102198Y244693D01*
X97802Y244693D01*
G37*
%LPD*%
%LPC*%
G36*
X97802Y44693D02*
X97802Y44693D01*
X94693Y47802D01*
X94693Y52198D01*
X97802Y55307D01*
X102198Y55307D01*
X105307Y52198D01*
X105307Y47802D01*
X102198Y44693D01*
X97802Y44693D01*
G37*
%LPD*%
%LPC*%
G36*
X347802Y44693D02*
X347802Y44693D01*
X344693Y47802D01*
X344693Y52198D01*
X347802Y55307D01*
X352198Y55307D01*
X355307Y52198D01*
X355307Y47802D01*
X352198Y44693D01*
X347802Y44693D01*
G37*
%LPD*%
%LPC*%
G36*
X597802Y144693D02*
X597802Y144693D01*
X594693Y147802D01*
X594693Y152198D01*
X597802Y155307D01*
X602198Y155307D01*
X605307Y152198D01*
X605307Y147802D01*
X602198Y144693D01*
X597802Y144693D01*
G37*
%LPD*%
%LPC*%
G36*
X447802Y144693D02*
X447802Y144693D01*
X444693Y147802D01*
X444693Y152198D01*
X447802Y155307D01*
X452198Y155307D01*
X455307Y152198D01*
X455307Y147802D01*
X452198Y144693D01*
X447802Y144693D01*
G37*
%LPD*%
%LPC*%
G36*
X268516Y158058D02*
X268516Y158058D01*
X268516Y168638D01*
X269848Y168428D01*
X271673Y167834D01*
X273383Y166963D01*
X274936Y165835D01*
X276292Y164478D01*
X277421Y162925D01*
X278292Y161215D01*
X278885Y159390D01*
X279096Y158058D01*
X268516Y158058D01*
G37*
%LPD*%
%LPC*%
G36*
X268516Y155012D02*
X268516Y155012D01*
X279096Y155012D01*
X278885Y153680D01*
X278292Y151855D01*
X277421Y150145D01*
X276292Y148592D01*
X274936Y147235D01*
X273383Y146107D01*
X271673Y145236D01*
X269848Y144642D01*
X268516Y144432D01*
X268516Y155012D01*
G37*
%LPD*%
%LPC*%
G36*
X254889Y158058D02*
X254889Y158058D01*
X255100Y159390D01*
X255693Y161215D01*
X256564Y162925D01*
X257693Y164478D01*
X259049Y165835D01*
X260602Y166963D01*
X262312Y167834D01*
X264137Y168428D01*
X265469Y168638D01*
X265469Y158058D01*
X254889Y158058D01*
G37*
%LPD*%
%LPC*%
G36*
X264137Y144642D02*
X264137Y144642D01*
X262312Y145236D01*
X260602Y146107D01*
X259049Y147235D01*
X257693Y148592D01*
X256564Y150145D01*
X255693Y151855D01*
X255100Y153680D01*
X254889Y155012D01*
X265469Y155012D01*
X265469Y144432D01*
X264137Y144642D01*
G37*
%LPD*%
%LPC*%
G36*
X223535Y191024D02*
X223535Y191024D01*
X223535Y200832D01*
X224688Y200650D01*
X226399Y200094D01*
X228002Y199277D01*
X229458Y198219D01*
X230730Y196947D01*
X231788Y195491D01*
X232605Y193888D01*
X233161Y192177D01*
X233343Y191024D01*
X223535Y191024D01*
G37*
%LPD*%
%LPC*%
G36*
X223535Y165624D02*
X223535Y165624D01*
X223535Y175432D01*
X224688Y175250D01*
X226399Y174694D01*
X228002Y173877D01*
X229458Y172819D01*
X230730Y171547D01*
X231788Y170091D01*
X232605Y168488D01*
X233161Y166777D01*
X233343Y165624D01*
X223535Y165624D01*
G37*
%LPD*%
%LPC*%
G36*
X223535Y187977D02*
X223535Y187977D01*
X233343Y187977D01*
X233161Y186824D01*
X232605Y185113D01*
X231788Y183510D01*
X230730Y182054D01*
X229458Y180782D01*
X228002Y179724D01*
X226399Y178907D01*
X224688Y178351D01*
X223535Y178169D01*
X223535Y187977D01*
G37*
%LPD*%
%LPC*%
G36*
X210680Y191024D02*
X210680Y191024D01*
X210862Y192177D01*
X211418Y193888D01*
X212235Y195491D01*
X213293Y196947D01*
X214565Y198219D01*
X216021Y199277D01*
X217624Y200094D01*
X219335Y200650D01*
X220488Y200832D01*
X220488Y191024D01*
X210680Y191024D01*
G37*
%LPD*%
%LPC*%
G36*
X223535Y162577D02*
X223535Y162577D01*
X233343Y162577D01*
X233161Y161424D01*
X232605Y159713D01*
X231788Y158110D01*
X230730Y156654D01*
X229458Y155382D01*
X228002Y154324D01*
X226399Y153507D01*
X224688Y152951D01*
X223535Y152769D01*
X223535Y162577D01*
G37*
%LPD*%
%LPC*%
G36*
X210680Y165624D02*
X210680Y165624D01*
X210862Y166777D01*
X211418Y168488D01*
X212235Y170091D01*
X213293Y171547D01*
X214565Y172819D01*
X216021Y173877D01*
X217624Y174694D01*
X219335Y175250D01*
X220488Y175432D01*
X220488Y165624D01*
X210680Y165624D01*
G37*
%LPD*%
%LPC*%
G36*
X219335Y152951D02*
X219335Y152951D01*
X217624Y153507D01*
X216021Y154324D01*
X214565Y155382D01*
X213293Y156654D01*
X212235Y158110D01*
X211418Y159713D01*
X210862Y161424D01*
X210680Y162577D01*
X220488Y162577D01*
X220488Y152769D01*
X219335Y152951D01*
G37*
%LPD*%
%LPC*%
G36*
X219335Y178351D02*
X219335Y178351D01*
X217624Y178907D01*
X216021Y179724D01*
X214565Y180782D01*
X213293Y182054D01*
X212235Y183510D01*
X211418Y185113D01*
X210862Y186824D01*
X210680Y187977D01*
X220488Y187977D01*
X220488Y178169D01*
X219335Y178351D01*
G37*
%LPD*%
%LPC*%
G36*
X497123Y118336D02*
X497123Y118336D01*
X497123Y127735D01*
X500124Y127735D01*
X506523Y121337D01*
X506523Y118336D01*
X497123Y118336D01*
G37*
%LPD*%
%LPC*%
G36*
X313423Y119121D02*
X313423Y119121D01*
X313423Y128520D01*
X316424Y128520D01*
X322823Y122122D01*
X322823Y119121D01*
X313423Y119121D01*
G37*
%LPD*%
%LPC*%
G36*
X497123Y105890D02*
X497123Y105890D01*
X497123Y115289D01*
X506523Y115289D01*
X506523Y112288D01*
X500124Y105890D01*
X497123Y105890D01*
G37*
%LPD*%
%LPC*%
G36*
X484677Y118336D02*
X484677Y118336D01*
X484677Y121337D01*
X491076Y127735D01*
X494077Y127735D01*
X494077Y118336D01*
X484677Y118336D01*
G37*
%LPD*%
%LPC*%
G36*
X300977Y119121D02*
X300977Y119121D01*
X300977Y122122D01*
X307376Y128520D01*
X310377Y128520D01*
X310377Y119121D01*
X300977Y119121D01*
G37*
%LPD*%
%LPC*%
G36*
X313423Y106675D02*
X313423Y106675D01*
X313423Y116074D01*
X322823Y116074D01*
X322823Y113073D01*
X316424Y106675D01*
X313423Y106675D01*
G37*
%LPD*%
%LPC*%
G36*
X307376Y106675D02*
X307376Y106675D01*
X300977Y113073D01*
X300977Y116074D01*
X310377Y116074D01*
X310377Y106675D01*
X307376Y106675D01*
G37*
%LPD*%
%LPC*%
G36*
X491076Y105890D02*
X491076Y105890D01*
X484677Y112288D01*
X484677Y115289D01*
X494077Y115289D01*
X494077Y105890D01*
X491076Y105890D01*
G37*
%LPD*%
%LPC*%
G36*
X493800Y214672D02*
X493800Y214672D01*
X493800Y222293D01*
X496065Y222293D01*
X501422Y216936D01*
X501422Y214672D01*
X493800Y214672D01*
G37*
%LPD*%
%LPC*%
G36*
X483132Y214672D02*
X483132Y214672D01*
X483132Y216936D01*
X488489Y222293D01*
X490754Y222293D01*
X490754Y214672D01*
X483132Y214672D01*
G37*
%LPD*%
%LPC*%
G36*
X493800Y204004D02*
X493800Y204004D01*
X493800Y211625D01*
X501422Y211625D01*
X501422Y209361D01*
X496065Y204004D01*
X493800Y204004D01*
G37*
%LPD*%
%LPC*%
G36*
X488489Y204004D02*
X488489Y204004D01*
X483132Y209361D01*
X483132Y211625D01*
X490754Y211625D01*
X490754Y204004D01*
X488489Y204004D01*
G37*
%LPD*%
%LPC*%
G36*
X492276Y213148D02*
X492276Y213148D01*
X492276Y213149D01*
X492278Y213149D01*
X492278Y213148D01*
X492276Y213148D01*
G37*
%LPD*%
%LPC*%
G36*
X495599Y116812D02*
X495599Y116812D01*
X495599Y116813D01*
X495601Y116813D01*
X495601Y116812D01*
X495599Y116812D01*
G37*
%LPD*%
%LPC*%
G36*
X311899Y117597D02*
X311899Y117597D01*
X311899Y117598D01*
X311901Y117598D01*
X311901Y117597D01*
X311899Y117597D01*
G37*
%LPD*%
%LPC*%
G36*
X266992Y156534D02*
X266992Y156534D01*
X266992Y156536D01*
X266993Y156536D01*
X266993Y156534D01*
X266992Y156534D01*
G37*
%LPD*%
%LPC*%
G36*
X222011Y164100D02*
X222011Y164100D01*
X222011Y164101D01*
X222012Y164101D01*
X222012Y164100D01*
X222011Y164100D01*
G37*
%LPD*%
%LPC*%
G36*
X644445Y37099D02*
X644445Y37099D01*
X644445Y37101D01*
X644447Y37101D01*
X644447Y37099D01*
X644445Y37099D01*
G37*
%LPD*%
%LPC*%
G36*
X222011Y189500D02*
X222011Y189500D01*
X222011Y189501D01*
X222012Y189501D01*
X222012Y189500D01*
X222011Y189500D01*
G37*
%LPD*%
D10*
X492277Y162349D03*
X492277Y213149D03*
D11*
X324600Y159136D03*
X375400Y159136D03*
D12*
X324600Y76934D03*
X375400Y76846D03*
D13*
X222012Y189501D03*
X222012Y164101D03*
X222012Y138701D03*
X222012Y113301D03*
D14*
X306182Y262915D02*
X306182Y276995D01*
X256182Y226995D02*
X256182Y212915D01*
X281182Y212915D02*
X281182Y226995D01*
X356182Y226995D02*
X356182Y212915D01*
X331182Y212915D02*
X331182Y226995D01*
D15*
X266993Y54935D03*
X266993Y80335D03*
X266993Y105735D03*
X266993Y131135D03*
X266993Y156535D03*
D16*
X311900Y117598D03*
X388100Y117598D03*
D17*
X495600Y116813D03*
X419400Y116813D03*
D18*
X644446Y37100D03*
D13*
X619046Y37100D03*
X593646Y37100D03*
X568246Y37100D03*
X542846Y37100D03*
D19*
X576916Y211090D03*
X611916Y211090D03*
D11*
X433068Y28972D03*
X483868Y28972D03*
D20*
X416752Y267450D03*
D21*
X442152Y267450D03*
X467552Y267450D03*
D22*
X631000Y277500D03*
X549000Y277500D03*
D23*
X610000Y277500D03*
D24*
X590000Y277500D03*
X570000Y277500D03*
D25*
X442152Y267450D02*
X394657Y219955D01*
X356182Y219955D01*
X331182Y219955D01*
X281182Y219955D01*
X256182Y219955D01*
X534718Y28972D02*
X542846Y37100D01*
X534718Y28972D02*
X483868Y28972D01*
X610000Y240000D02*
X610000Y277500D01*
X630000Y220000D02*
X630000Y200000D01*
X617500Y187500D01*
X527346Y187500D02*
X492277Y162349D01*
X610000Y240000D02*
X630000Y220000D01*
X617500Y187500D02*
X527346Y187500D01*
X492277Y162349D02*
X619046Y84799D01*
X619046Y37100D01*
X320858Y185000D02*
X266993Y131135D01*
X454157Y185000D02*
X492277Y162349D01*
X454157Y185000D02*
X320858Y185000D01*
X590000Y275722D02*
X590000Y277500D01*
X590000Y275722D02*
X569222Y254944D01*
X542764Y254944D01*
X505662Y292046D01*
X290000Y292046D01*
X205000Y207046D01*
X205000Y145000D01*
X211300Y138701D01*
X222012Y138701D01*
X222012Y113301D01*
X375400Y159136D02*
X388100Y146436D01*
X388100Y117598D01*
X365263Y117598D02*
X324600Y76934D01*
X365263Y117598D02*
X388100Y117598D01*
X324600Y159136D02*
X292500Y127036D01*
X292500Y105843D02*
X266993Y80335D01*
X292500Y105843D02*
X292500Y127036D01*
X375400Y76846D02*
X423274Y28972D01*
X433068Y28972D01*
X375400Y76846D02*
X415367Y116813D01*
X419400Y116813D01*
X467552Y267450D02*
X510050Y267450D01*
X567500Y210000D01*
X575826Y210000D01*
X576916Y211090D01*
X611916Y211090D02*
X576150Y246856D01*
X540449Y246856D01*
X502305Y285000D02*
X320000Y285000D01*
X502305Y285000D02*
X540449Y246856D01*
X320000Y285000D02*
X306182Y271182D01*
X306182Y269955D01*
D26*
X100000Y50000D03*
X100000Y250000D03*
X600000Y150000D03*
X450000Y150000D03*
X350000Y250000D03*
X350000Y50000D03*
M02*
