G04 EAGLE Gerber RS-274X export*
G75*
%MOMM*%
%FSLAX34Y34*%
%LPD*%
%INBottom Copper*%
%IPPOS*%
%AMOC8*
5,1,8,0,0,1.08239X$1,22.5*%
G01*
%ADD10P,1.429621X8X112.500000*%
%ADD11P,1.429621X8X22.500000*%
%ADD12P,1.429621X8X382.400000*%
%ADD13C,1.778000*%
%ADD14C,1.408000*%
%ADD15C,1.930400*%
%ADD16P,1.814519X8X22.500000*%
%ADD17P,1.814519X8X202.500000*%
%ADD18R,1.778000X1.778000*%
%ADD19C,2.184400*%
%ADD20R,1.268000X1.268000*%
%ADD21C,1.268000*%
%ADD22C,2.300000*%
%ADD23R,1.308000X1.308000*%
%ADD24C,1.308000*%
%ADD25C,0.756400*%

G36*
X306381Y10927D02*
X306381Y10927D01*
X306405Y10924D01*
X306502Y10946D01*
X306600Y10962D01*
X306621Y10974D01*
X306644Y10979D01*
X306730Y11031D01*
X306817Y11078D01*
X306834Y11095D01*
X306854Y11107D01*
X306918Y11184D01*
X306987Y11256D01*
X306997Y11278D01*
X307012Y11296D01*
X307081Y11449D01*
X309604Y19214D01*
X315362Y27138D01*
X323286Y32896D01*
X332602Y35923D01*
X342398Y35923D01*
X351714Y32896D01*
X359638Y27138D01*
X365396Y19214D01*
X367919Y11449D01*
X367930Y11428D01*
X367935Y11404D01*
X367986Y11319D01*
X368032Y11230D01*
X368049Y11214D01*
X368061Y11193D01*
X368137Y11128D01*
X368208Y11059D01*
X368230Y11049D01*
X368248Y11033D01*
X368340Y10996D01*
X368430Y10953D01*
X368454Y10950D01*
X368476Y10941D01*
X368643Y10923D01*
X650000Y10923D01*
X650018Y10926D01*
X650050Y10924D01*
X651788Y11038D01*
X651811Y11044D01*
X651935Y11063D01*
X655293Y11962D01*
X655307Y11969D01*
X655323Y11971D01*
X655476Y12038D01*
X658487Y13776D01*
X658499Y13786D01*
X658514Y13793D01*
X658645Y13897D01*
X661103Y16355D01*
X661112Y16368D01*
X661124Y16378D01*
X661224Y16513D01*
X662962Y19524D01*
X662967Y19538D01*
X662977Y19551D01*
X663038Y19707D01*
X663937Y23065D01*
X663940Y23089D01*
X663962Y23212D01*
X664076Y24950D01*
X664074Y24969D01*
X664077Y25000D01*
X664077Y280000D01*
X664074Y280019D01*
X664076Y280050D01*
X663962Y281788D01*
X663956Y281811D01*
X663937Y281935D01*
X663038Y285293D01*
X663031Y285307D01*
X663029Y285323D01*
X662962Y285476D01*
X661224Y288487D01*
X661214Y288499D01*
X661207Y288514D01*
X661103Y288645D01*
X658645Y291103D01*
X658632Y291112D01*
X658622Y291124D01*
X658487Y291224D01*
X655476Y292962D01*
X655462Y292967D01*
X655449Y292977D01*
X655293Y293038D01*
X651935Y293937D01*
X651911Y293940D01*
X651788Y293962D01*
X650050Y294076D01*
X650031Y294074D01*
X650000Y294077D01*
X25000Y294077D01*
X24981Y294074D01*
X24950Y294076D01*
X23212Y293962D01*
X23189Y293956D01*
X23065Y293937D01*
X19707Y293038D01*
X19693Y293031D01*
X19677Y293029D01*
X19524Y292962D01*
X16513Y291224D01*
X16501Y291214D01*
X16486Y291207D01*
X16355Y291103D01*
X13897Y288645D01*
X13888Y288632D01*
X13876Y288622D01*
X13776Y288487D01*
X12038Y285476D01*
X12033Y285462D01*
X12023Y285449D01*
X11962Y285293D01*
X11063Y281935D01*
X11060Y281911D01*
X11038Y281788D01*
X10924Y280050D01*
X10926Y280031D01*
X10923Y280000D01*
X10923Y25000D01*
X10926Y24982D01*
X10924Y24950D01*
X11038Y23212D01*
X11044Y23189D01*
X11063Y23065D01*
X11962Y19707D01*
X11969Y19693D01*
X11971Y19677D01*
X12038Y19524D01*
X13776Y16513D01*
X13786Y16501D01*
X13793Y16486D01*
X13897Y16355D01*
X16355Y13897D01*
X16368Y13888D01*
X16378Y13876D01*
X16513Y13776D01*
X19524Y12038D01*
X19538Y12033D01*
X19551Y12023D01*
X19707Y11962D01*
X23065Y11063D01*
X23089Y11060D01*
X23212Y11038D01*
X24950Y10924D01*
X24969Y10926D01*
X25000Y10923D01*
X306357Y10923D01*
X306381Y10927D01*
G37*
%LPC*%
G36*
X627712Y263805D02*
X627712Y263805D01*
X625610Y264488D01*
X623641Y265491D01*
X621853Y266790D01*
X620290Y268353D01*
X619046Y270065D01*
X618990Y270121D01*
X618940Y270183D01*
X618903Y270207D01*
X618872Y270238D01*
X618800Y270273D01*
X618733Y270316D01*
X618690Y270327D01*
X618651Y270346D01*
X618572Y270357D01*
X618495Y270376D01*
X618451Y270373D01*
X618407Y270379D01*
X618329Y270363D01*
X618250Y270357D01*
X618209Y270340D01*
X618165Y270331D01*
X618096Y270292D01*
X618023Y270261D01*
X617977Y270224D01*
X617952Y270210D01*
X617933Y270189D01*
X617892Y270156D01*
X617172Y269435D01*
X602828Y269435D01*
X601935Y270328D01*
X601935Y284672D01*
X602828Y285565D01*
X617172Y285565D01*
X617892Y284844D01*
X617957Y284798D01*
X618016Y284744D01*
X618056Y284726D01*
X618092Y284700D01*
X618168Y284677D01*
X618241Y284645D01*
X618285Y284641D01*
X618327Y284628D01*
X618407Y284630D01*
X618486Y284623D01*
X618529Y284633D01*
X618573Y284634D01*
X618648Y284662D01*
X618725Y284680D01*
X618762Y284704D01*
X618804Y284719D01*
X618866Y284769D01*
X618933Y284811D01*
X618973Y284854D01*
X618996Y284873D01*
X619011Y284896D01*
X619046Y284935D01*
X620290Y286647D01*
X621853Y288210D01*
X623641Y289509D01*
X625610Y290512D01*
X627712Y291195D01*
X629477Y291475D01*
X629477Y278262D01*
X629480Y278242D01*
X629478Y278223D01*
X629500Y278121D01*
X629517Y278019D01*
X629526Y278002D01*
X629530Y277982D01*
X629583Y277893D01*
X629632Y277802D01*
X629646Y277788D01*
X629656Y277771D01*
X629735Y277704D01*
X629810Y277633D01*
X629828Y277624D01*
X629843Y277611D01*
X629939Y277573D01*
X630033Y277529D01*
X630053Y277527D01*
X630071Y277519D01*
X630238Y277501D01*
X631001Y277501D01*
X631001Y277499D01*
X630238Y277499D01*
X630218Y277496D01*
X630199Y277498D01*
X630097Y277476D01*
X629995Y277459D01*
X629978Y277450D01*
X629958Y277446D01*
X629869Y277393D01*
X629778Y277344D01*
X629764Y277330D01*
X629747Y277320D01*
X629680Y277241D01*
X629609Y277166D01*
X629600Y277148D01*
X629587Y277133D01*
X629548Y277037D01*
X629505Y276943D01*
X629503Y276923D01*
X629495Y276905D01*
X629477Y276738D01*
X629477Y263525D01*
X627712Y263805D01*
G37*
%LPD*%
%LPC*%
G36*
X609440Y198643D02*
X609440Y198643D01*
X604865Y200538D01*
X601364Y204039D01*
X599469Y208614D01*
X599469Y213566D01*
X601364Y218141D01*
X604865Y221642D01*
X609440Y223537D01*
X614392Y223537D01*
X618967Y221642D01*
X622468Y218141D01*
X624363Y213566D01*
X624363Y208614D01*
X622468Y204039D01*
X618967Y200538D01*
X614392Y198643D01*
X609440Y198643D01*
G37*
%LPD*%
%LPC*%
G36*
X574440Y198643D02*
X574440Y198643D01*
X569865Y200538D01*
X566364Y204039D01*
X564469Y208614D01*
X564469Y213566D01*
X566364Y218141D01*
X569865Y221642D01*
X574440Y223537D01*
X579392Y223537D01*
X583967Y221642D01*
X587468Y218141D01*
X589363Y213566D01*
X589363Y208614D01*
X587468Y204039D01*
X583967Y200538D01*
X579392Y198643D01*
X574440Y198643D01*
G37*
%LPD*%
%LPC*%
G36*
X354478Y204350D02*
X354478Y204350D01*
X351330Y205654D01*
X348921Y208063D01*
X347617Y211211D01*
X347617Y228699D01*
X348921Y231847D01*
X351330Y234256D01*
X354478Y235560D01*
X357886Y235560D01*
X361034Y234256D01*
X363443Y231847D01*
X364747Y228699D01*
X364747Y211211D01*
X363443Y208063D01*
X361034Y205654D01*
X357886Y204350D01*
X354478Y204350D01*
G37*
%LPD*%
%LPC*%
G36*
X329478Y204350D02*
X329478Y204350D01*
X326330Y205654D01*
X323921Y208063D01*
X322617Y211211D01*
X322617Y228699D01*
X323921Y231847D01*
X326330Y234256D01*
X329478Y235560D01*
X332886Y235560D01*
X336034Y234256D01*
X338443Y231847D01*
X339747Y228699D01*
X339747Y211211D01*
X338443Y208063D01*
X336034Y205654D01*
X332886Y204350D01*
X329478Y204350D01*
G37*
%LPD*%
%LPC*%
G36*
X279478Y204350D02*
X279478Y204350D01*
X276330Y205654D01*
X273921Y208063D01*
X272617Y211211D01*
X272617Y228699D01*
X273921Y231847D01*
X276330Y234256D01*
X279478Y235560D01*
X282886Y235560D01*
X286034Y234256D01*
X288443Y231847D01*
X289747Y228699D01*
X289747Y211211D01*
X288443Y208063D01*
X286034Y205654D01*
X282886Y204350D01*
X279478Y204350D01*
G37*
%LPD*%
%LPC*%
G36*
X304478Y254350D02*
X304478Y254350D01*
X301330Y255654D01*
X298921Y258063D01*
X297617Y261211D01*
X297617Y278699D01*
X298921Y281847D01*
X301330Y284256D01*
X304478Y285560D01*
X307886Y285560D01*
X311034Y284256D01*
X313443Y281847D01*
X314747Y278699D01*
X314747Y261211D01*
X313443Y258063D01*
X311034Y255654D01*
X307886Y254350D01*
X304478Y254350D01*
G37*
%LPD*%
%LPC*%
G36*
X254478Y204350D02*
X254478Y204350D01*
X251330Y205654D01*
X248921Y208063D01*
X247617Y211211D01*
X247617Y228699D01*
X248921Y231847D01*
X251330Y234256D01*
X254478Y235560D01*
X257886Y235560D01*
X261034Y234256D01*
X263443Y231847D01*
X264747Y228699D01*
X264747Y211211D01*
X263443Y208063D01*
X261034Y205654D01*
X257886Y204350D01*
X254478Y204350D01*
G37*
%LPD*%
%LPC*%
G36*
X550523Y276738D02*
X550523Y276738D01*
X550520Y276758D01*
X550522Y276777D01*
X550500Y276879D01*
X550483Y276981D01*
X550474Y276998D01*
X550470Y277018D01*
X550417Y277107D01*
X550368Y277198D01*
X550354Y277212D01*
X550344Y277229D01*
X550265Y277296D01*
X550190Y277367D01*
X550172Y277376D01*
X550157Y277389D01*
X550061Y277427D01*
X549967Y277471D01*
X549947Y277473D01*
X549929Y277481D01*
X549762Y277499D01*
X548999Y277499D01*
X548999Y277501D01*
X549762Y277501D01*
X549782Y277504D01*
X549801Y277502D01*
X549903Y277524D01*
X550005Y277541D01*
X550022Y277550D01*
X550042Y277554D01*
X550131Y277607D01*
X550222Y277656D01*
X550236Y277670D01*
X550253Y277680D01*
X550320Y277759D01*
X550391Y277834D01*
X550400Y277852D01*
X550413Y277867D01*
X550452Y277963D01*
X550495Y278057D01*
X550497Y278077D01*
X550505Y278095D01*
X550523Y278262D01*
X550523Y291475D01*
X552288Y291195D01*
X554390Y290512D01*
X556359Y289509D01*
X558147Y288210D01*
X559710Y286647D01*
X561009Y284859D01*
X562012Y282890D01*
X562112Y282582D01*
X562147Y282515D01*
X562173Y282444D01*
X562203Y282407D01*
X562225Y282364D01*
X562279Y282311D01*
X562326Y282252D01*
X562367Y282226D01*
X562401Y282193D01*
X562469Y282160D01*
X562533Y282119D01*
X562580Y282107D01*
X562623Y282087D01*
X562698Y282078D01*
X562772Y282059D01*
X562820Y282063D01*
X562867Y282057D01*
X562942Y282072D01*
X563017Y282078D01*
X563061Y282097D01*
X563108Y282107D01*
X563174Y282145D01*
X563243Y282175D01*
X563294Y282215D01*
X563321Y282231D01*
X563338Y282250D01*
X563374Y282279D01*
X565432Y284337D01*
X568396Y285565D01*
X571604Y285565D01*
X574568Y284337D01*
X576837Y282068D01*
X578065Y279104D01*
X578065Y275896D01*
X576837Y272932D01*
X574568Y270663D01*
X571604Y269435D01*
X568396Y269435D01*
X565432Y270663D01*
X563374Y272721D01*
X563313Y272765D01*
X563257Y272816D01*
X563213Y272836D01*
X563174Y272864D01*
X563102Y272886D01*
X563033Y272918D01*
X562985Y272922D01*
X562939Y272936D01*
X562864Y272935D01*
X562789Y272942D01*
X562742Y272931D01*
X562693Y272930D01*
X562622Y272904D01*
X562549Y272887D01*
X562508Y272862D01*
X562462Y272846D01*
X562403Y272798D01*
X562339Y272759D01*
X562308Y272722D01*
X562270Y272692D01*
X562230Y272628D01*
X562181Y272570D01*
X562154Y272511D01*
X562137Y272485D01*
X562131Y272460D01*
X562112Y272418D01*
X562012Y272110D01*
X561009Y270141D01*
X559710Y268353D01*
X558147Y266790D01*
X556359Y265491D01*
X554390Y264488D01*
X552288Y263805D01*
X550523Y263525D01*
X550523Y276738D01*
G37*
%LPD*%
%LPC*%
G36*
X264769Y43758D02*
X264769Y43758D01*
X260661Y45460D01*
X257517Y48604D01*
X255816Y52712D01*
X255816Y57158D01*
X257517Y61266D01*
X260661Y64410D01*
X264769Y66112D01*
X269216Y66112D01*
X273324Y64410D01*
X276468Y61266D01*
X278169Y57158D01*
X278169Y52712D01*
X276468Y48604D01*
X273324Y45460D01*
X269216Y43758D01*
X264769Y43758D01*
G37*
%LPD*%
%LPC*%
G36*
X264769Y119958D02*
X264769Y119958D01*
X260661Y121660D01*
X257517Y124804D01*
X255816Y128912D01*
X255816Y133358D01*
X257517Y137466D01*
X260661Y140610D01*
X264769Y142312D01*
X269216Y142312D01*
X273324Y140610D01*
X276468Y137466D01*
X278169Y133358D01*
X278169Y128912D01*
X276468Y124804D01*
X273324Y121660D01*
X269216Y119958D01*
X264769Y119958D01*
G37*
%LPD*%
%LPC*%
G36*
X264769Y94558D02*
X264769Y94558D01*
X260661Y96260D01*
X257517Y99404D01*
X255816Y103512D01*
X255816Y107958D01*
X257517Y112066D01*
X260661Y115210D01*
X264769Y116912D01*
X269216Y116912D01*
X273324Y115210D01*
X276468Y112066D01*
X278169Y107958D01*
X278169Y103512D01*
X276468Y99404D01*
X273324Y96260D01*
X269216Y94558D01*
X264769Y94558D01*
G37*
%LPD*%
%LPC*%
G36*
X264769Y69158D02*
X264769Y69158D01*
X260661Y70860D01*
X257517Y74004D01*
X255816Y78112D01*
X255816Y82558D01*
X257517Y86666D01*
X260661Y89810D01*
X264769Y91512D01*
X269216Y91512D01*
X273324Y89810D01*
X276468Y86666D01*
X278169Y82558D01*
X278169Y78112D01*
X276468Y74004D01*
X273324Y70860D01*
X269216Y69158D01*
X264769Y69158D01*
G37*
%LPD*%
%LPC*%
G36*
X540774Y26685D02*
X540774Y26685D01*
X536946Y28271D01*
X534017Y31200D01*
X532431Y35028D01*
X532431Y39172D01*
X534017Y43000D01*
X536946Y45929D01*
X540774Y47515D01*
X544918Y47515D01*
X548746Y45929D01*
X551675Y43000D01*
X553261Y39172D01*
X553261Y35028D01*
X551675Y31200D01*
X548746Y28271D01*
X544918Y26685D01*
X540774Y26685D01*
G37*
%LPD*%
%LPC*%
G36*
X566174Y26685D02*
X566174Y26685D01*
X562346Y28271D01*
X559417Y31200D01*
X557831Y35028D01*
X557831Y39172D01*
X559417Y43000D01*
X562346Y45929D01*
X566174Y47515D01*
X570318Y47515D01*
X574146Y45929D01*
X577075Y43000D01*
X578661Y39172D01*
X578661Y35028D01*
X577075Y31200D01*
X574146Y28271D01*
X570318Y26685D01*
X566174Y26685D01*
G37*
%LPD*%
%LPC*%
G36*
X591574Y26685D02*
X591574Y26685D01*
X587746Y28271D01*
X584817Y31200D01*
X583231Y35028D01*
X583231Y39172D01*
X584817Y43000D01*
X587746Y45929D01*
X591574Y47515D01*
X595718Y47515D01*
X599546Y45929D01*
X602475Y43000D01*
X604061Y39172D01*
X604061Y35028D01*
X602475Y31200D01*
X599546Y28271D01*
X595718Y26685D01*
X591574Y26685D01*
G37*
%LPD*%
%LPC*%
G36*
X616974Y26685D02*
X616974Y26685D01*
X613146Y28271D01*
X610217Y31200D01*
X608631Y35028D01*
X608631Y39172D01*
X610217Y43000D01*
X613146Y45929D01*
X616974Y47515D01*
X621118Y47515D01*
X624946Y45929D01*
X627875Y43000D01*
X629461Y39172D01*
X629461Y35028D01*
X627875Y31200D01*
X624946Y28271D01*
X621118Y26685D01*
X616974Y26685D01*
G37*
%LPD*%
%LPC*%
G36*
X219940Y102886D02*
X219940Y102886D01*
X216112Y104471D01*
X213182Y107401D01*
X211597Y111229D01*
X211597Y115372D01*
X213182Y119200D01*
X216112Y122130D01*
X219940Y123715D01*
X224083Y123715D01*
X227911Y122130D01*
X230841Y119200D01*
X232426Y115372D01*
X232426Y111229D01*
X230841Y107401D01*
X227911Y104471D01*
X224083Y102886D01*
X219940Y102886D01*
G37*
%LPD*%
%LPC*%
G36*
X219940Y128286D02*
X219940Y128286D01*
X216112Y129871D01*
X213182Y132801D01*
X211597Y136629D01*
X211597Y140772D01*
X213182Y144600D01*
X216112Y147530D01*
X219940Y149115D01*
X224083Y149115D01*
X227911Y147530D01*
X230841Y144600D01*
X232426Y140772D01*
X232426Y136629D01*
X230841Y132801D01*
X227911Y129871D01*
X224083Y128286D01*
X219940Y128286D01*
G37*
%LPD*%
%LPC*%
G36*
X415296Y106906D02*
X415296Y106906D01*
X409493Y112709D01*
X409493Y120916D01*
X415296Y126719D01*
X423504Y126719D01*
X429307Y120916D01*
X429307Y112709D01*
X423504Y106906D01*
X415296Y106906D01*
G37*
%LPD*%
%LPC*%
G36*
X383996Y107691D02*
X383996Y107691D01*
X378193Y113494D01*
X378193Y121701D01*
X383996Y127504D01*
X392204Y127504D01*
X398007Y121701D01*
X398007Y113494D01*
X392204Y107691D01*
X383996Y107691D01*
G37*
%LPD*%
%LPC*%
G36*
X409780Y259585D02*
X409780Y259585D01*
X408887Y260478D01*
X408887Y274422D01*
X409780Y275315D01*
X423724Y275315D01*
X424617Y274422D01*
X424617Y260478D01*
X423724Y259585D01*
X409780Y259585D01*
G37*
%LPD*%
%LPC*%
G36*
X480501Y20843D02*
X480501Y20843D01*
X475739Y25605D01*
X475739Y32339D01*
X480501Y37101D01*
X487235Y37101D01*
X491997Y32339D01*
X491997Y25605D01*
X487235Y20843D01*
X480501Y20843D01*
G37*
%LPD*%
%LPC*%
G36*
X429701Y20843D02*
X429701Y20843D01*
X424939Y25605D01*
X424939Y32339D01*
X429701Y37101D01*
X436435Y37101D01*
X441197Y32339D01*
X441197Y25605D01*
X436435Y20843D01*
X429701Y20843D01*
G37*
%LPD*%
%LPC*%
G36*
X488910Y154220D02*
X488910Y154220D01*
X484148Y158981D01*
X484148Y165716D01*
X488910Y170477D01*
X495644Y170477D01*
X500406Y165716D01*
X500406Y158981D01*
X495644Y154220D01*
X488910Y154220D01*
G37*
%LPD*%
%LPC*%
G36*
X372033Y151007D02*
X372033Y151007D01*
X367271Y155769D01*
X367271Y162503D01*
X372033Y167265D01*
X378767Y167265D01*
X383529Y162503D01*
X383529Y155769D01*
X378767Y151007D01*
X372033Y151007D01*
G37*
%LPD*%
%LPC*%
G36*
X321233Y151007D02*
X321233Y151007D01*
X316471Y155769D01*
X316471Y162503D01*
X321233Y167265D01*
X327967Y167265D01*
X332729Y162503D01*
X332729Y155769D01*
X327967Y151007D01*
X321233Y151007D01*
G37*
%LPD*%
%LPC*%
G36*
X372019Y68723D02*
X372019Y68723D01*
X367265Y73493D01*
X367277Y80227D01*
X372047Y84980D01*
X378781Y84968D01*
X383535Y80199D01*
X383523Y73464D01*
X378753Y68711D01*
X372019Y68723D01*
G37*
%LPD*%
%LPC*%
G36*
X321219Y68811D02*
X321219Y68811D01*
X316465Y73581D01*
X316477Y80316D01*
X321247Y85069D01*
X327981Y85057D01*
X332735Y80287D01*
X332723Y73553D01*
X327953Y68800D01*
X321219Y68811D01*
G37*
%LPD*%
%LPC*%
G36*
X588396Y269435D02*
X588396Y269435D01*
X585432Y270663D01*
X583163Y272932D01*
X581935Y275896D01*
X581935Y279104D01*
X583163Y282068D01*
X585432Y284337D01*
X588396Y285565D01*
X591604Y285565D01*
X594568Y284337D01*
X596837Y282068D01*
X598065Y279104D01*
X598065Y275896D01*
X596837Y272932D01*
X594568Y270663D01*
X591604Y269435D01*
X588396Y269435D01*
G37*
%LPD*%
%LPC*%
G36*
X440588Y259585D02*
X440588Y259585D01*
X437697Y260783D01*
X435485Y262995D01*
X434287Y265886D01*
X434287Y269014D01*
X435485Y271905D01*
X437697Y274117D01*
X440588Y275315D01*
X443716Y275315D01*
X446607Y274117D01*
X448819Y271905D01*
X450017Y269014D01*
X450017Y265886D01*
X448819Y262995D01*
X446607Y260783D01*
X443716Y259585D01*
X440588Y259585D01*
G37*
%LPD*%
%LPC*%
G36*
X465988Y259585D02*
X465988Y259585D01*
X463097Y260783D01*
X460885Y262995D01*
X459687Y265886D01*
X459687Y269014D01*
X460885Y271905D01*
X463097Y274117D01*
X465988Y275315D01*
X469116Y275315D01*
X472007Y274117D01*
X474219Y271905D01*
X475417Y269014D01*
X475417Y265886D01*
X474219Y262995D01*
X472007Y260783D01*
X469116Y259585D01*
X465988Y259585D01*
G37*
%LPD*%
%LPC*%
G36*
X632523Y279023D02*
X632523Y279023D01*
X632523Y291475D01*
X634288Y291195D01*
X636390Y290512D01*
X638359Y289509D01*
X640147Y288210D01*
X641710Y286647D01*
X643009Y284859D01*
X644012Y282890D01*
X644695Y280788D01*
X644975Y279023D01*
X632523Y279023D01*
G37*
%LPD*%
%LPC*%
G36*
X535025Y279023D02*
X535025Y279023D01*
X535305Y280788D01*
X535988Y282890D01*
X536991Y284859D01*
X538290Y286647D01*
X539853Y288210D01*
X541641Y289509D01*
X543610Y290512D01*
X545712Y291195D01*
X547477Y291475D01*
X547477Y279023D01*
X535025Y279023D01*
G37*
%LPD*%
%LPC*%
G36*
X632523Y275977D02*
X632523Y275977D01*
X644975Y275977D01*
X644695Y274212D01*
X644012Y272110D01*
X643009Y270141D01*
X641710Y268353D01*
X640147Y266790D01*
X638359Y265491D01*
X636390Y264488D01*
X634288Y263805D01*
X632523Y263525D01*
X632523Y275977D01*
G37*
%LPD*%
%LPC*%
G36*
X545712Y263805D02*
X545712Y263805D01*
X543610Y264488D01*
X541641Y265491D01*
X539853Y266790D01*
X538290Y268353D01*
X536991Y270141D01*
X535988Y272110D01*
X535305Y274212D01*
X535025Y275977D01*
X547477Y275977D01*
X547477Y263525D01*
X545712Y263805D01*
G37*
%LPD*%
%LPC*%
G36*
X645969Y38623D02*
X645969Y38623D01*
X645969Y48531D01*
X653670Y48531D01*
X654317Y48358D01*
X654896Y48023D01*
X655369Y47550D01*
X655704Y46971D01*
X655877Y46324D01*
X655877Y38623D01*
X645969Y38623D01*
G37*
%LPD*%
%LPC*%
G36*
X633015Y38623D02*
X633015Y38623D01*
X633015Y46324D01*
X633188Y46971D01*
X633523Y47550D01*
X633996Y48023D01*
X634575Y48358D01*
X635222Y48531D01*
X642923Y48531D01*
X642923Y38623D01*
X633015Y38623D01*
G37*
%LPD*%
%LPC*%
G36*
X645969Y25669D02*
X645969Y25669D01*
X645969Y35577D01*
X655877Y35577D01*
X655877Y27876D01*
X655704Y27229D01*
X655369Y26650D01*
X654896Y26177D01*
X654317Y25842D01*
X653670Y25669D01*
X645969Y25669D01*
G37*
%LPD*%
%LPC*%
G36*
X635222Y25669D02*
X635222Y25669D01*
X634575Y25842D01*
X633996Y26177D01*
X633523Y26650D01*
X633188Y27229D01*
X633015Y27876D01*
X633015Y35577D01*
X642923Y35577D01*
X642923Y25669D01*
X635222Y25669D01*
G37*
%LPD*%
%LPC*%
G36*
X597802Y144693D02*
X597802Y144693D01*
X594693Y147802D01*
X594693Y152198D01*
X597802Y155307D01*
X602198Y155307D01*
X605307Y152198D01*
X605307Y147802D01*
X602198Y144693D01*
X597802Y144693D01*
G37*
%LPD*%
%LPC*%
G36*
X447802Y144693D02*
X447802Y144693D01*
X444693Y147802D01*
X444693Y152198D01*
X447802Y155307D01*
X452198Y155307D01*
X455307Y152198D01*
X455307Y147802D01*
X452198Y144693D01*
X447802Y144693D01*
G37*
%LPD*%
%LPC*%
G36*
X347802Y244693D02*
X347802Y244693D01*
X344693Y247802D01*
X344693Y252198D01*
X347802Y255307D01*
X352198Y255307D01*
X355307Y252198D01*
X355307Y247802D01*
X352198Y244693D01*
X347802Y244693D01*
G37*
%LPD*%
%LPC*%
G36*
X97802Y244693D02*
X97802Y244693D01*
X94693Y247802D01*
X94693Y252198D01*
X97802Y255307D01*
X102198Y255307D01*
X105307Y252198D01*
X105307Y247802D01*
X102198Y244693D01*
X97802Y244693D01*
G37*
%LPD*%
%LPC*%
G36*
X97802Y44693D02*
X97802Y44693D01*
X94693Y47802D01*
X94693Y52198D01*
X97802Y55307D01*
X102198Y55307D01*
X105307Y52198D01*
X105307Y47802D01*
X102198Y44693D01*
X97802Y44693D01*
G37*
%LPD*%
%LPC*%
G36*
X347802Y44693D02*
X347802Y44693D01*
X344693Y47802D01*
X344693Y52198D01*
X347802Y55307D01*
X352198Y55307D01*
X355307Y52198D01*
X355307Y47802D01*
X352198Y44693D01*
X347802Y44693D01*
G37*
%LPD*%
%LPC*%
G36*
X268516Y158058D02*
X268516Y158058D01*
X268516Y168638D01*
X269848Y168428D01*
X271673Y167834D01*
X273383Y166963D01*
X274936Y165835D01*
X276292Y164478D01*
X277421Y162925D01*
X278292Y161215D01*
X278885Y159390D01*
X279096Y158058D01*
X268516Y158058D01*
G37*
%LPD*%
%LPC*%
G36*
X268516Y155012D02*
X268516Y155012D01*
X279096Y155012D01*
X278885Y153680D01*
X278292Y151855D01*
X277421Y150145D01*
X276292Y148592D01*
X274936Y147235D01*
X273383Y146107D01*
X271673Y145236D01*
X269848Y144642D01*
X268516Y144432D01*
X268516Y155012D01*
G37*
%LPD*%
%LPC*%
G36*
X254889Y158058D02*
X254889Y158058D01*
X255100Y159390D01*
X255693Y161215D01*
X256564Y162925D01*
X257693Y164478D01*
X259049Y165835D01*
X260602Y166963D01*
X262312Y167834D01*
X264137Y168428D01*
X265469Y168638D01*
X265469Y158058D01*
X254889Y158058D01*
G37*
%LPD*%
%LPC*%
G36*
X264137Y144642D02*
X264137Y144642D01*
X262312Y145236D01*
X260602Y146107D01*
X259049Y147235D01*
X257693Y148592D01*
X256564Y150145D01*
X255693Y151855D01*
X255100Y153680D01*
X254889Y155012D01*
X265469Y155012D01*
X265469Y144432D01*
X264137Y144642D01*
G37*
%LPD*%
%LPC*%
G36*
X223535Y191024D02*
X223535Y191024D01*
X223535Y200832D01*
X224688Y200650D01*
X226399Y200094D01*
X228002Y199277D01*
X229458Y198219D01*
X230730Y196947D01*
X231788Y195491D01*
X232605Y193888D01*
X233161Y192177D01*
X233343Y191024D01*
X223535Y191024D01*
G37*
%LPD*%
%LPC*%
G36*
X223535Y165624D02*
X223535Y165624D01*
X223535Y175432D01*
X224688Y175250D01*
X226399Y174694D01*
X228002Y173877D01*
X229458Y172819D01*
X230730Y171547D01*
X231788Y170091D01*
X232605Y168488D01*
X233161Y166777D01*
X233343Y165624D01*
X223535Y165624D01*
G37*
%LPD*%
%LPC*%
G36*
X223535Y162577D02*
X223535Y162577D01*
X233343Y162577D01*
X233161Y161424D01*
X232605Y159713D01*
X231788Y158110D01*
X230730Y156654D01*
X229458Y155382D01*
X228002Y154324D01*
X226399Y153507D01*
X224688Y152951D01*
X223535Y152769D01*
X223535Y162577D01*
G37*
%LPD*%
%LPC*%
G36*
X223535Y187977D02*
X223535Y187977D01*
X233343Y187977D01*
X233161Y186824D01*
X232605Y185113D01*
X231788Y183510D01*
X230730Y182054D01*
X229458Y180782D01*
X228002Y179724D01*
X226399Y178907D01*
X224688Y178351D01*
X223535Y178169D01*
X223535Y187977D01*
G37*
%LPD*%
%LPC*%
G36*
X210680Y165624D02*
X210680Y165624D01*
X210862Y166777D01*
X211418Y168488D01*
X212235Y170091D01*
X213293Y171547D01*
X214565Y172819D01*
X216021Y173877D01*
X217624Y174694D01*
X219335Y175250D01*
X220488Y175432D01*
X220488Y165624D01*
X210680Y165624D01*
G37*
%LPD*%
%LPC*%
G36*
X210680Y191024D02*
X210680Y191024D01*
X210862Y192177D01*
X211418Y193888D01*
X212235Y195491D01*
X213293Y196947D01*
X214565Y198219D01*
X216021Y199277D01*
X217624Y200094D01*
X219335Y200650D01*
X220488Y200832D01*
X220488Y191024D01*
X210680Y191024D01*
G37*
%LPD*%
%LPC*%
G36*
X219335Y178351D02*
X219335Y178351D01*
X217624Y178907D01*
X216021Y179724D01*
X214565Y180782D01*
X213293Y182054D01*
X212235Y183510D01*
X211418Y185113D01*
X210862Y186824D01*
X210680Y187977D01*
X220488Y187977D01*
X220488Y178169D01*
X219335Y178351D01*
G37*
%LPD*%
%LPC*%
G36*
X219335Y152951D02*
X219335Y152951D01*
X217624Y153507D01*
X216021Y154324D01*
X214565Y155382D01*
X213293Y156654D01*
X212235Y158110D01*
X211418Y159713D01*
X210862Y161424D01*
X210680Y162577D01*
X220488Y162577D01*
X220488Y152769D01*
X219335Y152951D01*
G37*
%LPD*%
%LPC*%
G36*
X313423Y119121D02*
X313423Y119121D01*
X313423Y128520D01*
X316424Y128520D01*
X322823Y122122D01*
X322823Y119121D01*
X313423Y119121D01*
G37*
%LPD*%
%LPC*%
G36*
X497123Y118336D02*
X497123Y118336D01*
X497123Y127735D01*
X500124Y127735D01*
X506523Y121337D01*
X506523Y118336D01*
X497123Y118336D01*
G37*
%LPD*%
%LPC*%
G36*
X313423Y106675D02*
X313423Y106675D01*
X313423Y116074D01*
X322823Y116074D01*
X322823Y113073D01*
X316424Y106675D01*
X313423Y106675D01*
G37*
%LPD*%
%LPC*%
G36*
X484677Y118336D02*
X484677Y118336D01*
X484677Y121337D01*
X491076Y127735D01*
X494077Y127735D01*
X494077Y118336D01*
X484677Y118336D01*
G37*
%LPD*%
%LPC*%
G36*
X300977Y119121D02*
X300977Y119121D01*
X300977Y122122D01*
X307376Y128520D01*
X310377Y128520D01*
X310377Y119121D01*
X300977Y119121D01*
G37*
%LPD*%
%LPC*%
G36*
X497123Y105890D02*
X497123Y105890D01*
X497123Y115289D01*
X506523Y115289D01*
X506523Y112288D01*
X500124Y105890D01*
X497123Y105890D01*
G37*
%LPD*%
%LPC*%
G36*
X307376Y106675D02*
X307376Y106675D01*
X300977Y113073D01*
X300977Y116074D01*
X310377Y116074D01*
X310377Y106675D01*
X307376Y106675D01*
G37*
%LPD*%
%LPC*%
G36*
X491076Y105890D02*
X491076Y105890D01*
X484677Y112288D01*
X484677Y115289D01*
X494077Y115289D01*
X494077Y105890D01*
X491076Y105890D01*
G37*
%LPD*%
%LPC*%
G36*
X493800Y214672D02*
X493800Y214672D01*
X493800Y222293D01*
X496065Y222293D01*
X501422Y216936D01*
X501422Y214672D01*
X493800Y214672D01*
G37*
%LPD*%
%LPC*%
G36*
X493800Y204004D02*
X493800Y204004D01*
X493800Y211625D01*
X501422Y211625D01*
X501422Y209361D01*
X496065Y204004D01*
X493800Y204004D01*
G37*
%LPD*%
%LPC*%
G36*
X483132Y214672D02*
X483132Y214672D01*
X483132Y216936D01*
X488489Y222293D01*
X490754Y222293D01*
X490754Y214672D01*
X483132Y214672D01*
G37*
%LPD*%
%LPC*%
G36*
X488489Y204004D02*
X488489Y204004D01*
X483132Y209361D01*
X483132Y211625D01*
X490754Y211625D01*
X490754Y204004D01*
X488489Y204004D01*
G37*
%LPD*%
%LPC*%
G36*
X222011Y164100D02*
X222011Y164100D01*
X222011Y164101D01*
X222012Y164101D01*
X222012Y164100D01*
X222011Y164100D01*
G37*
%LPD*%
%LPC*%
G36*
X222011Y189500D02*
X222011Y189500D01*
X222011Y189501D01*
X222012Y189501D01*
X222012Y189500D01*
X222011Y189500D01*
G37*
%LPD*%
%LPC*%
G36*
X495599Y116812D02*
X495599Y116812D01*
X495599Y116813D01*
X495601Y116813D01*
X495601Y116812D01*
X495599Y116812D01*
G37*
%LPD*%
%LPC*%
G36*
X311899Y117597D02*
X311899Y117597D01*
X311899Y117598D01*
X311901Y117598D01*
X311901Y117597D01*
X311899Y117597D01*
G37*
%LPD*%
%LPC*%
G36*
X492276Y213148D02*
X492276Y213148D01*
X492276Y213149D01*
X492278Y213149D01*
X492278Y213148D01*
X492276Y213148D01*
G37*
%LPD*%
%LPC*%
G36*
X644445Y37099D02*
X644445Y37099D01*
X644445Y37101D01*
X644447Y37101D01*
X644447Y37099D01*
X644445Y37099D01*
G37*
%LPD*%
%LPC*%
G36*
X266992Y156534D02*
X266992Y156534D01*
X266992Y156536D01*
X266993Y156536D01*
X266993Y156534D01*
X266992Y156534D01*
G37*
%LPD*%
D10*
X492277Y162349D03*
X492277Y213149D03*
D11*
X324600Y159136D03*
X375400Y159136D03*
D12*
X324600Y76934D03*
X375400Y76846D03*
D13*
X222012Y189501D03*
X222012Y164101D03*
X222012Y138701D03*
X222012Y113301D03*
D14*
X306182Y262915D02*
X306182Y276995D01*
X256182Y226995D02*
X256182Y212915D01*
X281182Y212915D02*
X281182Y226995D01*
X356182Y226995D02*
X356182Y212915D01*
X331182Y212915D02*
X331182Y226995D01*
D15*
X266993Y54935D03*
X266993Y80335D03*
X266993Y105735D03*
X266993Y131135D03*
X266993Y156535D03*
D16*
X311900Y117598D03*
X388100Y117598D03*
D17*
X495600Y116813D03*
X419400Y116813D03*
D18*
X644446Y37100D03*
D13*
X619046Y37100D03*
X593646Y37100D03*
X568246Y37100D03*
X542846Y37100D03*
D19*
X576916Y211090D03*
X611916Y211090D03*
D11*
X433068Y28972D03*
X483868Y28972D03*
D20*
X416752Y267450D03*
D21*
X442152Y267450D03*
X467552Y267450D03*
D22*
X631000Y277500D03*
X549000Y277500D03*
D23*
X610000Y277500D03*
D24*
X590000Y277500D03*
X570000Y277500D03*
D25*
X100000Y50000D03*
X100000Y250000D03*
X600000Y150000D03*
X450000Y150000D03*
X350000Y250000D03*
X350000Y50000D03*
M02*
