G04 EAGLE Gerber RS-274X export*
G75*
%MOMM*%
%FSLAX34Y34*%
%LPD*%
%IN*%
%IPPOS*%
%AMOC8*
5,1,8,0,0,1.08239X$1,22.5*%
G01*
%ADD10C,0.254000*%


D10*
X0Y25000D02*
X95Y22821D01*
X380Y20659D01*
X852Y18530D01*
X1508Y16450D01*
X2342Y14435D01*
X3349Y12500D01*
X4521Y10661D01*
X5849Y8930D01*
X7322Y7322D01*
X8930Y5849D01*
X10661Y4521D01*
X12500Y3349D01*
X14435Y2342D01*
X16450Y1508D01*
X18530Y852D01*
X20659Y380D01*
X22821Y95D01*
X25000Y0D01*
X312500Y0D01*
X312936Y19D01*
X313368Y76D01*
X313794Y170D01*
X314210Y302D01*
X314613Y468D01*
X315000Y670D01*
X315368Y904D01*
X315714Y1170D01*
X316036Y1464D01*
X316330Y1786D01*
X316596Y2132D01*
X316830Y2500D01*
X317032Y2887D01*
X317198Y3290D01*
X317330Y3706D01*
X317424Y4132D01*
X317481Y4564D01*
X317500Y5000D01*
X317576Y6743D01*
X317804Y8473D01*
X318181Y10176D01*
X318706Y11840D01*
X319374Y13452D01*
X320180Y15000D01*
X321117Y16472D01*
X322179Y17856D01*
X323358Y19142D01*
X324644Y20321D01*
X326028Y21383D01*
X327500Y22321D01*
X329048Y23126D01*
X330660Y23794D01*
X332324Y24319D01*
X334027Y24696D01*
X335757Y24924D01*
X337500Y25000D01*
X339243Y24924D01*
X340973Y24696D01*
X342676Y24319D01*
X344340Y23794D01*
X345952Y23126D01*
X347500Y22321D01*
X348972Y21383D01*
X350356Y20321D01*
X351642Y19142D01*
X352821Y17856D01*
X353883Y16472D01*
X354821Y15000D01*
X355626Y13452D01*
X356294Y11840D01*
X356819Y10176D01*
X357196Y8473D01*
X357424Y6743D01*
X357500Y5000D01*
X357519Y4564D01*
X357576Y4132D01*
X357670Y3706D01*
X357802Y3290D01*
X357968Y2887D01*
X358170Y2500D01*
X358404Y2132D01*
X358670Y1786D01*
X358964Y1464D01*
X359286Y1170D01*
X359632Y904D01*
X360000Y670D01*
X360387Y468D01*
X360790Y302D01*
X361206Y170D01*
X361632Y76D01*
X362064Y19D01*
X362500Y0D01*
X650000Y0D01*
X652179Y95D01*
X654341Y380D01*
X656470Y852D01*
X658551Y1508D01*
X660565Y2342D01*
X662500Y3349D01*
X664339Y4521D01*
X666070Y5849D01*
X667678Y7322D01*
X669151Y8930D01*
X670479Y10661D01*
X671651Y12500D01*
X672658Y14435D01*
X673492Y16450D01*
X674148Y18530D01*
X674620Y20659D01*
X674905Y22821D01*
X675000Y25000D01*
X675000Y280000D01*
X674905Y282179D01*
X674620Y284341D01*
X674148Y286470D01*
X673492Y288551D01*
X672658Y290565D01*
X671651Y292500D01*
X670479Y294339D01*
X669151Y296070D01*
X667678Y297678D01*
X666070Y299151D01*
X664339Y300479D01*
X662500Y301651D01*
X660565Y302658D01*
X658551Y303492D01*
X656470Y304148D01*
X654341Y304620D01*
X652179Y304905D01*
X650000Y305000D01*
X25000Y305000D01*
X22821Y304905D01*
X20659Y304620D01*
X18530Y304148D01*
X16450Y303492D01*
X14435Y302658D01*
X12500Y301651D01*
X10661Y300479D01*
X8930Y299151D01*
X7322Y297678D01*
X5849Y296070D01*
X4521Y294339D01*
X3349Y292500D01*
X2342Y290565D01*
X1508Y288551D01*
X852Y286470D01*
X380Y284341D01*
X95Y282179D01*
X0Y280000D01*
X0Y25000D01*
X326182Y217455D02*
X326201Y217019D01*
X326258Y216587D01*
X326352Y216161D01*
X326484Y215745D01*
X326650Y215342D01*
X326852Y214955D01*
X327086Y214587D01*
X327352Y214241D01*
X327646Y213919D01*
X327968Y213625D01*
X328314Y213359D01*
X328682Y213125D01*
X329069Y212923D01*
X329472Y212757D01*
X329888Y212625D01*
X330314Y212531D01*
X330746Y212474D01*
X331182Y212455D01*
X331618Y212474D01*
X332050Y212531D01*
X332476Y212625D01*
X332892Y212757D01*
X333295Y212923D01*
X333682Y213125D01*
X334050Y213359D01*
X334396Y213625D01*
X334718Y213919D01*
X335012Y214241D01*
X335278Y214587D01*
X335512Y214955D01*
X335714Y215342D01*
X335880Y215745D01*
X336012Y216161D01*
X336106Y216587D01*
X336163Y217019D01*
X336182Y217455D01*
X336182Y222455D01*
X336163Y222891D01*
X336106Y223323D01*
X336012Y223749D01*
X335880Y224165D01*
X335714Y224568D01*
X335512Y224955D01*
X335278Y225323D01*
X335012Y225669D01*
X334718Y225991D01*
X334396Y226285D01*
X334050Y226551D01*
X333682Y226785D01*
X333295Y226987D01*
X332892Y227153D01*
X332476Y227285D01*
X332050Y227379D01*
X331618Y227436D01*
X331182Y227455D01*
X330746Y227436D01*
X330314Y227379D01*
X329888Y227285D01*
X329472Y227153D01*
X329069Y226987D01*
X328682Y226785D01*
X328314Y226551D01*
X327968Y226285D01*
X327646Y225991D01*
X327352Y225669D01*
X327086Y225323D01*
X326852Y224955D01*
X326650Y224568D01*
X326484Y224165D01*
X326352Y223749D01*
X326258Y223323D01*
X326201Y222891D01*
X326182Y222455D01*
X326182Y217455D01*
X351182Y217455D02*
X351201Y217019D01*
X351258Y216587D01*
X351352Y216161D01*
X351484Y215745D01*
X351650Y215342D01*
X351852Y214955D01*
X352086Y214587D01*
X352352Y214241D01*
X352646Y213919D01*
X352968Y213625D01*
X353314Y213359D01*
X353682Y213125D01*
X354069Y212923D01*
X354472Y212757D01*
X354888Y212625D01*
X355314Y212531D01*
X355746Y212474D01*
X356182Y212455D01*
X356618Y212474D01*
X357050Y212531D01*
X357476Y212625D01*
X357892Y212757D01*
X358295Y212923D01*
X358682Y213125D01*
X359050Y213359D01*
X359396Y213625D01*
X359718Y213919D01*
X360012Y214241D01*
X360278Y214587D01*
X360512Y214955D01*
X360714Y215342D01*
X360880Y215745D01*
X361012Y216161D01*
X361106Y216587D01*
X361163Y217019D01*
X361182Y217455D01*
X361182Y222455D01*
X361163Y222891D01*
X361106Y223323D01*
X361012Y223749D01*
X360880Y224165D01*
X360714Y224568D01*
X360512Y224955D01*
X360278Y225323D01*
X360012Y225669D01*
X359718Y225991D01*
X359396Y226285D01*
X359050Y226551D01*
X358682Y226785D01*
X358295Y226987D01*
X357892Y227153D01*
X357476Y227285D01*
X357050Y227379D01*
X356618Y227436D01*
X356182Y227455D01*
X355746Y227436D01*
X355314Y227379D01*
X354888Y227285D01*
X354472Y227153D01*
X354069Y226987D01*
X353682Y226785D01*
X353314Y226551D01*
X352968Y226285D01*
X352646Y225991D01*
X352352Y225669D01*
X352086Y225323D01*
X351852Y224955D01*
X351650Y224568D01*
X351484Y224165D01*
X351352Y223749D01*
X351258Y223323D01*
X351201Y222891D01*
X351182Y222455D01*
X351182Y217455D01*
X276182Y217455D02*
X276201Y217019D01*
X276258Y216587D01*
X276352Y216161D01*
X276484Y215745D01*
X276650Y215342D01*
X276852Y214955D01*
X277086Y214587D01*
X277352Y214241D01*
X277646Y213919D01*
X277968Y213625D01*
X278314Y213359D01*
X278682Y213125D01*
X279069Y212923D01*
X279472Y212757D01*
X279888Y212625D01*
X280314Y212531D01*
X280746Y212474D01*
X281182Y212455D01*
X281618Y212474D01*
X282050Y212531D01*
X282476Y212625D01*
X282892Y212757D01*
X283295Y212923D01*
X283682Y213125D01*
X284050Y213359D01*
X284396Y213625D01*
X284718Y213919D01*
X285012Y214241D01*
X285278Y214587D01*
X285512Y214955D01*
X285714Y215342D01*
X285880Y215745D01*
X286012Y216161D01*
X286106Y216587D01*
X286163Y217019D01*
X286182Y217455D01*
X286182Y222455D01*
X286163Y222891D01*
X286106Y223323D01*
X286012Y223749D01*
X285880Y224165D01*
X285714Y224568D01*
X285512Y224955D01*
X285278Y225323D01*
X285012Y225669D01*
X284718Y225991D01*
X284396Y226285D01*
X284050Y226551D01*
X283682Y226785D01*
X283295Y226987D01*
X282892Y227153D01*
X282476Y227285D01*
X282050Y227379D01*
X281618Y227436D01*
X281182Y227455D01*
X280746Y227436D01*
X280314Y227379D01*
X279888Y227285D01*
X279472Y227153D01*
X279069Y226987D01*
X278682Y226785D01*
X278314Y226551D01*
X277968Y226285D01*
X277646Y225991D01*
X277352Y225669D01*
X277086Y225323D01*
X276852Y224955D01*
X276650Y224568D01*
X276484Y224165D01*
X276352Y223749D01*
X276258Y223323D01*
X276201Y222891D01*
X276182Y222455D01*
X276182Y217455D01*
X251182Y217455D02*
X251201Y217019D01*
X251258Y216587D01*
X251352Y216161D01*
X251484Y215745D01*
X251650Y215342D01*
X251852Y214955D01*
X252086Y214587D01*
X252352Y214241D01*
X252646Y213919D01*
X252968Y213625D01*
X253314Y213359D01*
X253682Y213125D01*
X254069Y212923D01*
X254472Y212757D01*
X254888Y212625D01*
X255314Y212531D01*
X255746Y212474D01*
X256182Y212455D01*
X256618Y212474D01*
X257050Y212531D01*
X257476Y212625D01*
X257892Y212757D01*
X258295Y212923D01*
X258682Y213125D01*
X259050Y213359D01*
X259396Y213625D01*
X259718Y213919D01*
X260012Y214241D01*
X260278Y214587D01*
X260512Y214955D01*
X260714Y215342D01*
X260880Y215745D01*
X261012Y216161D01*
X261106Y216587D01*
X261163Y217019D01*
X261182Y217455D01*
X261182Y222455D01*
X261163Y222891D01*
X261106Y223323D01*
X261012Y223749D01*
X260880Y224165D01*
X260714Y224568D01*
X260512Y224955D01*
X260278Y225323D01*
X260012Y225669D01*
X259718Y225991D01*
X259396Y226285D01*
X259050Y226551D01*
X258682Y226785D01*
X258295Y226987D01*
X257892Y227153D01*
X257476Y227285D01*
X257050Y227379D01*
X256618Y227436D01*
X256182Y227455D01*
X255746Y227436D01*
X255314Y227379D01*
X254888Y227285D01*
X254472Y227153D01*
X254069Y226987D01*
X253682Y226785D01*
X253314Y226551D01*
X252968Y226285D01*
X252646Y225991D01*
X252352Y225669D01*
X252086Y225323D01*
X251852Y224955D01*
X251650Y224568D01*
X251484Y224165D01*
X251352Y223749D01*
X251258Y223323D01*
X251201Y222891D01*
X251182Y222455D01*
X251182Y217455D01*
X301182Y267455D02*
X301201Y267019D01*
X301258Y266587D01*
X301352Y266161D01*
X301484Y265745D01*
X301650Y265342D01*
X301852Y264955D01*
X302086Y264587D01*
X302352Y264241D01*
X302646Y263919D01*
X302968Y263625D01*
X303314Y263359D01*
X303682Y263125D01*
X304069Y262923D01*
X304472Y262757D01*
X304888Y262625D01*
X305314Y262531D01*
X305746Y262474D01*
X306182Y262455D01*
X306618Y262474D01*
X307050Y262531D01*
X307476Y262625D01*
X307892Y262757D01*
X308295Y262923D01*
X308682Y263125D01*
X309050Y263359D01*
X309396Y263625D01*
X309718Y263919D01*
X310012Y264241D01*
X310278Y264587D01*
X310512Y264955D01*
X310714Y265342D01*
X310880Y265745D01*
X311012Y266161D01*
X311106Y266587D01*
X311163Y267019D01*
X311182Y267455D01*
X311182Y272455D01*
X311163Y272891D01*
X311106Y273323D01*
X311012Y273749D01*
X310880Y274165D01*
X310714Y274568D01*
X310512Y274955D01*
X310278Y275323D01*
X310012Y275669D01*
X309718Y275991D01*
X309396Y276285D01*
X309050Y276551D01*
X308682Y276785D01*
X308295Y276987D01*
X307892Y277153D01*
X307476Y277285D01*
X307050Y277379D01*
X306618Y277436D01*
X306182Y277455D01*
X305746Y277436D01*
X305314Y277379D01*
X304888Y277285D01*
X304472Y277153D01*
X304069Y276987D01*
X303682Y276785D01*
X303314Y276551D01*
X302968Y276285D01*
X302646Y275991D01*
X302352Y275669D01*
X302086Y275323D01*
X301852Y274955D01*
X301650Y274568D01*
X301484Y274165D01*
X301352Y273749D01*
X301258Y273323D01*
X301201Y272891D01*
X301182Y272455D01*
X301182Y267455D01*
M02*
