G04 EAGLE Gerber RS-274X export*
G75*
%MOMM*%
%FSLAX34Y34*%
%LPD*%
%INSilkscreen Top*%
%IPPOS*%
%AMOC8*
5,1,8,0,0,1.08239X$1,22.5*%
G01*
%ADD10C,0.304800*%
%ADD11C,0.152400*%
%ADD12C,0.127000*%
%ADD13R,0.508000X0.508000*%
%ADD14C,0.200000*%
%ADD15C,0.101600*%
%ADD16R,0.381000X0.508000*%
%ADD17C,0.150000*%
%ADD18C,0.500000*%
%ADD19C,0.076200*%

G36*
X128594Y122898D02*
X128594Y122898D01*
X128701Y122912D01*
X128714Y122918D01*
X128727Y122920D01*
X128823Y122972D01*
X128921Y123019D01*
X128930Y123029D01*
X128942Y123035D01*
X129017Y123115D01*
X129094Y123191D01*
X129100Y123203D01*
X129109Y123214D01*
X129154Y123312D01*
X129203Y123409D01*
X129206Y123427D01*
X129210Y123436D01*
X129212Y123457D01*
X129232Y123554D01*
X130329Y134344D01*
X132396Y134943D01*
X132418Y134954D01*
X132474Y134971D01*
X134930Y135988D01*
X134951Y136001D01*
X135005Y136024D01*
X136891Y137062D01*
X145296Y130208D01*
X145390Y130154D01*
X145482Y130097D01*
X145496Y130094D01*
X145508Y130087D01*
X145614Y130066D01*
X145720Y130041D01*
X145734Y130043D01*
X145747Y130040D01*
X145855Y130055D01*
X145963Y130065D01*
X145975Y130071D01*
X145989Y130073D01*
X146086Y130121D01*
X146185Y130166D01*
X146199Y130177D01*
X146208Y130181D01*
X146223Y130197D01*
X146299Y130259D01*
X152331Y136291D01*
X152394Y136379D01*
X152461Y136465D01*
X152465Y136478D01*
X152473Y136490D01*
X152505Y136593D01*
X152540Y136696D01*
X152540Y136710D01*
X152544Y136723D01*
X152541Y136831D01*
X152541Y136940D01*
X152537Y136953D01*
X152536Y136967D01*
X152498Y137069D01*
X152464Y137171D01*
X152454Y137186D01*
X152451Y137195D01*
X152437Y137212D01*
X152382Y137294D01*
X145533Y145694D01*
X146265Y146981D01*
X146272Y147000D01*
X146294Y147036D01*
X147132Y148845D01*
X147143Y148883D01*
X147162Y148919D01*
X147175Y149000D01*
X147197Y149080D01*
X147195Y149120D01*
X147202Y149159D01*
X147188Y149241D01*
X147184Y149324D01*
X147169Y149361D01*
X147162Y149400D01*
X147123Y149473D01*
X147092Y149550D01*
X147066Y149580D01*
X147047Y149616D01*
X146987Y149672D01*
X146933Y149735D01*
X146899Y149755D01*
X146869Y149783D01*
X146739Y149852D01*
X134613Y154875D01*
X134502Y154901D01*
X134390Y154930D01*
X134383Y154929D01*
X134376Y154931D01*
X134262Y154919D01*
X134147Y154910D01*
X134140Y154908D01*
X134133Y154907D01*
X134028Y154859D01*
X133923Y154814D01*
X133917Y154809D01*
X133910Y154806D01*
X133827Y154728D01*
X133741Y154651D01*
X133736Y154643D01*
X133732Y154639D01*
X133725Y154626D01*
X133661Y154527D01*
X132846Y152949D01*
X131816Y151581D01*
X130572Y150405D01*
X129149Y149454D01*
X127586Y148754D01*
X125928Y148327D01*
X124225Y148183D01*
X122320Y148363D01*
X120485Y148894D01*
X118782Y149758D01*
X117270Y150925D01*
X116002Y152354D01*
X115024Y153994D01*
X114369Y155789D01*
X114060Y157674D01*
X114109Y159583D01*
X114513Y161450D01*
X115259Y163208D01*
X116321Y164796D01*
X117660Y166159D01*
X119229Y167247D01*
X120975Y168023D01*
X122834Y168459D01*
X124743Y168541D01*
X126633Y168265D01*
X128438Y167640D01*
X130095Y166690D01*
X131545Y165447D01*
X132738Y163955D01*
X133664Y162205D01*
X133732Y162116D01*
X133736Y162110D01*
X133744Y162097D01*
X133747Y162095D01*
X133796Y162026D01*
X133805Y162019D01*
X133812Y162010D01*
X133905Y161948D01*
X133995Y161883D01*
X134005Y161880D01*
X134014Y161874D01*
X134122Y161845D01*
X134228Y161812D01*
X134239Y161813D01*
X134250Y161810D01*
X134361Y161816D01*
X134472Y161820D01*
X134485Y161824D01*
X134493Y161825D01*
X134511Y161832D01*
X134613Y161863D01*
X146739Y166886D01*
X146773Y166907D01*
X146811Y166920D01*
X146876Y166971D01*
X146946Y167015D01*
X146972Y167046D01*
X147003Y167070D01*
X147049Y167139D01*
X147101Y167203D01*
X147115Y167241D01*
X147137Y167274D01*
X147158Y167354D01*
X147187Y167432D01*
X147189Y167472D01*
X147199Y167510D01*
X147193Y167593D01*
X147195Y167675D01*
X147184Y167714D01*
X147181Y167754D01*
X147132Y167893D01*
X146294Y169702D01*
X146283Y169718D01*
X146265Y169757D01*
X145533Y171044D01*
X152382Y179444D01*
X152436Y179538D01*
X152494Y179630D01*
X152497Y179643D01*
X152504Y179655D01*
X152524Y179762D01*
X152549Y179867D01*
X152548Y179881D01*
X152550Y179895D01*
X152536Y180002D01*
X152525Y180110D01*
X152520Y180123D01*
X152518Y180137D01*
X152470Y180234D01*
X152425Y180333D01*
X152414Y180346D01*
X152409Y180355D01*
X152394Y180370D01*
X152331Y180447D01*
X146299Y186479D01*
X146211Y186542D01*
X146125Y186608D01*
X146112Y186613D01*
X146101Y186621D01*
X145998Y186652D01*
X145895Y186688D01*
X145881Y186688D01*
X145867Y186692D01*
X145759Y186688D01*
X145651Y186689D01*
X145637Y186684D01*
X145624Y186684D01*
X145522Y186646D01*
X145419Y186611D01*
X145404Y186602D01*
X145395Y186598D01*
X145378Y186584D01*
X145296Y186530D01*
X136891Y179676D01*
X135005Y180714D01*
X134983Y180722D01*
X134930Y180750D01*
X132474Y181767D01*
X132451Y181773D01*
X132396Y181795D01*
X130329Y182394D01*
X129232Y193184D01*
X129204Y193288D01*
X129179Y193394D01*
X129172Y193406D01*
X129168Y193419D01*
X129108Y193509D01*
X129050Y193602D01*
X129040Y193610D01*
X129032Y193622D01*
X128946Y193688D01*
X128862Y193757D01*
X128849Y193761D01*
X128838Y193770D01*
X128735Y193804D01*
X128633Y193843D01*
X128616Y193844D01*
X128607Y193848D01*
X128585Y193848D01*
X128487Y193857D01*
X119957Y193857D01*
X119849Y193840D01*
X119742Y193826D01*
X119729Y193820D01*
X119716Y193818D01*
X119620Y193766D01*
X119523Y193719D01*
X119513Y193709D01*
X119501Y193703D01*
X119426Y193623D01*
X119349Y193547D01*
X119343Y193535D01*
X119334Y193525D01*
X119289Y193426D01*
X119240Y193329D01*
X119237Y193311D01*
X119233Y193302D01*
X119231Y193281D01*
X119211Y193184D01*
X118114Y182394D01*
X116047Y181795D01*
X116025Y181784D01*
X115969Y181767D01*
X113513Y180750D01*
X113492Y180737D01*
X113438Y180714D01*
X111552Y179676D01*
X103147Y186530D01*
X103053Y186584D01*
X102961Y186641D01*
X102947Y186644D01*
X102935Y186651D01*
X102829Y186672D01*
X102723Y186697D01*
X102709Y186695D01*
X102696Y186698D01*
X102588Y186683D01*
X102480Y186673D01*
X102468Y186667D01*
X102454Y186665D01*
X102357Y186617D01*
X102258Y186572D01*
X102244Y186561D01*
X102235Y186557D01*
X102220Y186541D01*
X102144Y186479D01*
X96112Y180447D01*
X96049Y180359D01*
X95982Y180273D01*
X95978Y180260D01*
X95970Y180248D01*
X95938Y180145D01*
X95903Y180042D01*
X95903Y180028D01*
X95899Y180015D01*
X95902Y179907D01*
X95902Y179798D01*
X95906Y179785D01*
X95907Y179771D01*
X95945Y179669D01*
X95979Y179567D01*
X95989Y179552D01*
X95992Y179543D01*
X96006Y179526D01*
X96061Y179444D01*
X102914Y171038D01*
X101876Y169152D01*
X101868Y169130D01*
X101840Y169078D01*
X100823Y166622D01*
X100818Y166599D01*
X100796Y166544D01*
X100197Y164476D01*
X89407Y163379D01*
X89302Y163351D01*
X89196Y163326D01*
X89185Y163319D01*
X89171Y163316D01*
X89081Y163255D01*
X88989Y163198D01*
X88980Y163187D01*
X88969Y163179D01*
X88903Y163093D01*
X88834Y163009D01*
X88829Y162996D01*
X88821Y162985D01*
X88786Y162882D01*
X88748Y162781D01*
X88746Y162763D01*
X88743Y162754D01*
X88743Y162732D01*
X88733Y162634D01*
X88733Y154104D01*
X88751Y153997D01*
X88765Y153889D01*
X88771Y153877D01*
X88773Y153863D01*
X88824Y153767D01*
X88872Y153670D01*
X88881Y153660D01*
X88888Y153648D01*
X88967Y153574D01*
X89044Y153497D01*
X89056Y153491D01*
X89066Y153481D01*
X89165Y153436D01*
X89262Y153388D01*
X89279Y153384D01*
X89288Y153380D01*
X89310Y153378D01*
X89407Y153359D01*
X100197Y152262D01*
X100796Y150194D01*
X100806Y150173D01*
X100823Y150116D01*
X101361Y148818D01*
X101840Y147660D01*
X101853Y147640D01*
X101876Y147586D01*
X102914Y145700D01*
X96061Y137294D01*
X96007Y137200D01*
X95950Y137108D01*
X95946Y137095D01*
X95939Y137083D01*
X95919Y136976D01*
X95894Y136871D01*
X95895Y136857D01*
X95893Y136843D01*
X95907Y136736D01*
X95918Y136628D01*
X95923Y136615D01*
X95925Y136602D01*
X95973Y136504D01*
X96018Y136405D01*
X96029Y136392D01*
X96034Y136383D01*
X96049Y136368D01*
X96112Y136291D01*
X102144Y130259D01*
X102232Y130196D01*
X102318Y130130D01*
X102331Y130125D01*
X102342Y130117D01*
X102446Y130086D01*
X102548Y130050D01*
X102562Y130050D01*
X102576Y130046D01*
X102684Y130050D01*
X102792Y130049D01*
X102806Y130054D01*
X102819Y130054D01*
X102921Y130092D01*
X103024Y130127D01*
X103039Y130136D01*
X103048Y130140D01*
X103065Y130154D01*
X103147Y130208D01*
X111552Y137062D01*
X113438Y136024D01*
X113460Y136016D01*
X113513Y135988D01*
X115969Y134971D01*
X115992Y134965D01*
X116047Y134943D01*
X118114Y134344D01*
X119211Y123554D01*
X119239Y123450D01*
X119264Y123344D01*
X119271Y123332D01*
X119275Y123319D01*
X119335Y123229D01*
X119393Y123136D01*
X119403Y123128D01*
X119411Y123116D01*
X119497Y123050D01*
X119581Y122982D01*
X119594Y122977D01*
X119605Y122968D01*
X119708Y122934D01*
X119810Y122895D01*
X119827Y122894D01*
X119836Y122890D01*
X119858Y122891D01*
X119957Y122881D01*
X128487Y122881D01*
X128594Y122898D01*
G37*
D10*
X485927Y184701D02*
X492277Y184701D01*
X498627Y184701D01*
D11*
X492277Y184701D02*
X492277Y172509D01*
D10*
X492277Y191051D02*
X485927Y191051D01*
X492277Y191051D02*
X498627Y191051D01*
D11*
X492277Y191051D02*
X492277Y202989D01*
X482117Y150919D02*
X502437Y150919D01*
X504977Y153459D02*
X504977Y222039D01*
X502437Y224579D02*
X482117Y224579D01*
X479577Y222039D02*
X479577Y153459D01*
X479577Y222039D02*
X479579Y222139D01*
X479585Y222238D01*
X479595Y222338D01*
X479608Y222436D01*
X479626Y222535D01*
X479647Y222632D01*
X479672Y222728D01*
X479701Y222824D01*
X479734Y222918D01*
X479770Y223011D01*
X479810Y223102D01*
X479854Y223192D01*
X479901Y223280D01*
X479951Y223366D01*
X480005Y223450D01*
X480062Y223532D01*
X480122Y223611D01*
X480186Y223689D01*
X480252Y223763D01*
X480321Y223835D01*
X480393Y223904D01*
X480467Y223970D01*
X480545Y224034D01*
X480624Y224094D01*
X480706Y224151D01*
X480790Y224205D01*
X480876Y224255D01*
X480964Y224302D01*
X481054Y224346D01*
X481145Y224386D01*
X481238Y224422D01*
X481332Y224455D01*
X481428Y224484D01*
X481524Y224509D01*
X481621Y224530D01*
X481720Y224548D01*
X481818Y224561D01*
X481918Y224571D01*
X482017Y224577D01*
X482117Y224579D01*
X502437Y224579D02*
X502537Y224577D01*
X502636Y224571D01*
X502736Y224561D01*
X502834Y224548D01*
X502933Y224530D01*
X503030Y224509D01*
X503126Y224484D01*
X503222Y224455D01*
X503316Y224422D01*
X503409Y224386D01*
X503500Y224346D01*
X503590Y224302D01*
X503678Y224255D01*
X503764Y224205D01*
X503848Y224151D01*
X503930Y224094D01*
X504009Y224034D01*
X504087Y223970D01*
X504161Y223904D01*
X504233Y223835D01*
X504302Y223763D01*
X504368Y223689D01*
X504432Y223611D01*
X504492Y223532D01*
X504549Y223450D01*
X504603Y223366D01*
X504653Y223280D01*
X504700Y223192D01*
X504744Y223102D01*
X504784Y223011D01*
X504820Y222918D01*
X504853Y222824D01*
X504882Y222728D01*
X504907Y222632D01*
X504928Y222535D01*
X504946Y222436D01*
X504959Y222338D01*
X504969Y222238D01*
X504975Y222139D01*
X504977Y222039D01*
X504977Y153459D02*
X504975Y153359D01*
X504969Y153260D01*
X504959Y153160D01*
X504946Y153062D01*
X504928Y152963D01*
X504907Y152866D01*
X504882Y152770D01*
X504853Y152674D01*
X504820Y152580D01*
X504784Y152487D01*
X504744Y152396D01*
X504700Y152306D01*
X504653Y152218D01*
X504603Y152132D01*
X504549Y152048D01*
X504492Y151966D01*
X504432Y151887D01*
X504368Y151809D01*
X504302Y151735D01*
X504233Y151663D01*
X504161Y151594D01*
X504087Y151528D01*
X504009Y151464D01*
X503930Y151404D01*
X503848Y151347D01*
X503764Y151293D01*
X503678Y151243D01*
X503590Y151196D01*
X503500Y151152D01*
X503409Y151112D01*
X503316Y151076D01*
X503222Y151043D01*
X503126Y151014D01*
X503030Y150989D01*
X502933Y150968D01*
X502834Y150950D01*
X502736Y150937D01*
X502636Y150927D01*
X502537Y150921D01*
X502437Y150919D01*
X482117Y150919D02*
X482017Y150921D01*
X481918Y150927D01*
X481818Y150937D01*
X481720Y150950D01*
X481621Y150968D01*
X481524Y150989D01*
X481428Y151014D01*
X481332Y151043D01*
X481238Y151076D01*
X481145Y151112D01*
X481054Y151152D01*
X480964Y151196D01*
X480876Y151243D01*
X480790Y151293D01*
X480706Y151347D01*
X480624Y151404D01*
X480545Y151464D01*
X480467Y151528D01*
X480393Y151594D01*
X480321Y151663D01*
X480252Y151735D01*
X480186Y151809D01*
X480122Y151887D01*
X480062Y151966D01*
X480005Y152048D01*
X479951Y152132D01*
X479901Y152218D01*
X479854Y152306D01*
X479810Y152396D01*
X479770Y152487D01*
X479734Y152580D01*
X479701Y152674D01*
X479672Y152770D01*
X479647Y152866D01*
X479626Y152963D01*
X479608Y153062D01*
X479595Y153160D01*
X479585Y153260D01*
X479579Y153359D01*
X479577Y153459D01*
D12*
X464020Y184656D02*
X461480Y184656D01*
X461380Y184658D01*
X461281Y184664D01*
X461181Y184674D01*
X461083Y184687D01*
X460984Y184705D01*
X460887Y184726D01*
X460791Y184751D01*
X460695Y184780D01*
X460601Y184813D01*
X460508Y184849D01*
X460417Y184889D01*
X460327Y184933D01*
X460239Y184980D01*
X460153Y185030D01*
X460069Y185084D01*
X459987Y185141D01*
X459908Y185201D01*
X459830Y185265D01*
X459756Y185331D01*
X459684Y185400D01*
X459615Y185472D01*
X459549Y185546D01*
X459485Y185624D01*
X459425Y185703D01*
X459368Y185785D01*
X459314Y185869D01*
X459264Y185955D01*
X459217Y186043D01*
X459173Y186133D01*
X459133Y186224D01*
X459097Y186317D01*
X459064Y186411D01*
X459035Y186507D01*
X459010Y186603D01*
X458989Y186700D01*
X458971Y186799D01*
X458958Y186897D01*
X458948Y186997D01*
X458942Y187096D01*
X458940Y187196D01*
X458940Y193546D01*
X458942Y193646D01*
X458948Y193745D01*
X458958Y193845D01*
X458971Y193943D01*
X458989Y194042D01*
X459010Y194139D01*
X459035Y194235D01*
X459064Y194331D01*
X459097Y194425D01*
X459133Y194518D01*
X459173Y194609D01*
X459217Y194699D01*
X459264Y194787D01*
X459314Y194873D01*
X459368Y194957D01*
X459425Y195039D01*
X459485Y195118D01*
X459549Y195196D01*
X459615Y195270D01*
X459684Y195342D01*
X459756Y195411D01*
X459830Y195477D01*
X459908Y195541D01*
X459987Y195601D01*
X460069Y195658D01*
X460153Y195712D01*
X460239Y195762D01*
X460327Y195809D01*
X460417Y195853D01*
X460508Y195893D01*
X460601Y195929D01*
X460695Y195962D01*
X460791Y195991D01*
X460887Y196016D01*
X460984Y196037D01*
X461083Y196055D01*
X461181Y196068D01*
X461281Y196078D01*
X461380Y196084D01*
X461480Y196086D01*
X464020Y196086D01*
X468502Y193546D02*
X471677Y196086D01*
X471677Y184656D01*
X468502Y184656D02*
X474852Y184656D01*
D10*
X346952Y165486D02*
X346952Y159136D01*
X346952Y152786D01*
D11*
X346952Y159136D02*
X334760Y159136D01*
D10*
X353302Y159136D02*
X353302Y165486D01*
X353302Y159136D02*
X353302Y152786D01*
D11*
X353302Y159136D02*
X365240Y159136D01*
X313170Y169296D02*
X313170Y148976D01*
X315710Y146436D02*
X384290Y146436D01*
X386830Y148976D02*
X386830Y169296D01*
X384290Y171836D02*
X315710Y171836D01*
X384290Y171836D02*
X384390Y171834D01*
X384489Y171828D01*
X384589Y171818D01*
X384687Y171805D01*
X384786Y171787D01*
X384883Y171766D01*
X384979Y171741D01*
X385075Y171712D01*
X385169Y171679D01*
X385262Y171643D01*
X385353Y171603D01*
X385443Y171559D01*
X385531Y171512D01*
X385617Y171462D01*
X385701Y171408D01*
X385783Y171351D01*
X385862Y171291D01*
X385940Y171227D01*
X386014Y171161D01*
X386086Y171092D01*
X386155Y171020D01*
X386221Y170946D01*
X386285Y170868D01*
X386345Y170789D01*
X386402Y170707D01*
X386456Y170623D01*
X386506Y170537D01*
X386553Y170449D01*
X386597Y170359D01*
X386637Y170268D01*
X386673Y170175D01*
X386706Y170081D01*
X386735Y169985D01*
X386760Y169889D01*
X386781Y169792D01*
X386799Y169693D01*
X386812Y169595D01*
X386822Y169495D01*
X386828Y169396D01*
X386830Y169296D01*
X386830Y148976D02*
X386828Y148876D01*
X386822Y148777D01*
X386812Y148677D01*
X386799Y148579D01*
X386781Y148480D01*
X386760Y148383D01*
X386735Y148287D01*
X386706Y148191D01*
X386673Y148097D01*
X386637Y148004D01*
X386597Y147913D01*
X386553Y147823D01*
X386506Y147735D01*
X386456Y147649D01*
X386402Y147565D01*
X386345Y147483D01*
X386285Y147404D01*
X386221Y147326D01*
X386155Y147252D01*
X386086Y147180D01*
X386014Y147111D01*
X385940Y147045D01*
X385862Y146981D01*
X385783Y146921D01*
X385701Y146864D01*
X385617Y146810D01*
X385531Y146760D01*
X385443Y146713D01*
X385353Y146669D01*
X385262Y146629D01*
X385169Y146593D01*
X385075Y146560D01*
X384979Y146531D01*
X384883Y146506D01*
X384786Y146485D01*
X384687Y146467D01*
X384589Y146454D01*
X384489Y146444D01*
X384390Y146438D01*
X384290Y146436D01*
X315710Y146436D02*
X315610Y146438D01*
X315511Y146444D01*
X315411Y146454D01*
X315313Y146467D01*
X315214Y146485D01*
X315117Y146506D01*
X315021Y146531D01*
X314925Y146560D01*
X314831Y146593D01*
X314738Y146629D01*
X314647Y146669D01*
X314557Y146713D01*
X314469Y146760D01*
X314383Y146810D01*
X314299Y146864D01*
X314217Y146921D01*
X314138Y146981D01*
X314060Y147045D01*
X313986Y147111D01*
X313914Y147180D01*
X313845Y147252D01*
X313779Y147326D01*
X313715Y147404D01*
X313655Y147483D01*
X313598Y147565D01*
X313544Y147649D01*
X313494Y147735D01*
X313447Y147823D01*
X313403Y147913D01*
X313363Y148004D01*
X313327Y148097D01*
X313294Y148191D01*
X313265Y148287D01*
X313240Y148383D01*
X313219Y148480D01*
X313201Y148579D01*
X313188Y148677D01*
X313178Y148777D01*
X313172Y148876D01*
X313170Y148976D01*
X313170Y169296D02*
X313172Y169396D01*
X313178Y169495D01*
X313188Y169595D01*
X313201Y169693D01*
X313219Y169792D01*
X313240Y169889D01*
X313265Y169985D01*
X313294Y170081D01*
X313327Y170175D01*
X313363Y170268D01*
X313403Y170359D01*
X313447Y170449D01*
X313494Y170537D01*
X313544Y170623D01*
X313598Y170707D01*
X313655Y170789D01*
X313715Y170868D01*
X313779Y170946D01*
X313845Y171020D01*
X313914Y171092D01*
X313986Y171161D01*
X314060Y171227D01*
X314138Y171291D01*
X314217Y171351D01*
X314299Y171408D01*
X314383Y171462D01*
X314469Y171512D01*
X314557Y171559D01*
X314647Y171603D01*
X314738Y171643D01*
X314831Y171679D01*
X314925Y171712D01*
X315021Y171741D01*
X315117Y171766D01*
X315214Y171787D01*
X315313Y171805D01*
X315411Y171818D01*
X315511Y171828D01*
X315610Y171834D01*
X315710Y171836D01*
D12*
X298287Y151787D02*
X295747Y151787D01*
X295647Y151789D01*
X295548Y151795D01*
X295448Y151805D01*
X295350Y151818D01*
X295251Y151836D01*
X295154Y151857D01*
X295058Y151882D01*
X294962Y151911D01*
X294868Y151944D01*
X294775Y151980D01*
X294684Y152020D01*
X294594Y152064D01*
X294506Y152111D01*
X294420Y152161D01*
X294336Y152215D01*
X294254Y152272D01*
X294175Y152332D01*
X294097Y152396D01*
X294023Y152462D01*
X293951Y152531D01*
X293882Y152603D01*
X293816Y152677D01*
X293752Y152755D01*
X293692Y152834D01*
X293635Y152916D01*
X293581Y153000D01*
X293531Y153086D01*
X293484Y153174D01*
X293440Y153264D01*
X293400Y153355D01*
X293364Y153448D01*
X293331Y153542D01*
X293302Y153638D01*
X293277Y153734D01*
X293256Y153831D01*
X293238Y153930D01*
X293225Y154028D01*
X293215Y154128D01*
X293209Y154227D01*
X293207Y154327D01*
X293207Y160677D01*
X293209Y160777D01*
X293215Y160876D01*
X293225Y160976D01*
X293238Y161074D01*
X293256Y161173D01*
X293277Y161270D01*
X293302Y161366D01*
X293331Y161462D01*
X293364Y161556D01*
X293400Y161649D01*
X293440Y161740D01*
X293484Y161830D01*
X293531Y161918D01*
X293581Y162004D01*
X293635Y162088D01*
X293692Y162170D01*
X293752Y162249D01*
X293816Y162327D01*
X293882Y162401D01*
X293951Y162473D01*
X294023Y162542D01*
X294097Y162608D01*
X294175Y162672D01*
X294254Y162732D01*
X294336Y162789D01*
X294420Y162843D01*
X294506Y162893D01*
X294594Y162940D01*
X294684Y162984D01*
X294775Y163024D01*
X294868Y163060D01*
X294962Y163093D01*
X295058Y163122D01*
X295154Y163147D01*
X295251Y163168D01*
X295350Y163186D01*
X295448Y163199D01*
X295548Y163209D01*
X295647Y163215D01*
X295747Y163217D01*
X298287Y163217D01*
X306262Y163218D02*
X306366Y163216D01*
X306471Y163210D01*
X306575Y163201D01*
X306678Y163188D01*
X306781Y163170D01*
X306883Y163150D01*
X306985Y163125D01*
X307085Y163097D01*
X307185Y163065D01*
X307283Y163029D01*
X307380Y162990D01*
X307475Y162948D01*
X307569Y162902D01*
X307661Y162852D01*
X307751Y162800D01*
X307839Y162744D01*
X307925Y162684D01*
X308009Y162622D01*
X308090Y162557D01*
X308169Y162489D01*
X308246Y162417D01*
X308319Y162344D01*
X308391Y162267D01*
X308459Y162188D01*
X308524Y162107D01*
X308586Y162023D01*
X308646Y161937D01*
X308702Y161849D01*
X308754Y161759D01*
X308804Y161667D01*
X308850Y161573D01*
X308892Y161478D01*
X308931Y161381D01*
X308967Y161283D01*
X308999Y161183D01*
X309027Y161083D01*
X309052Y160981D01*
X309072Y160879D01*
X309090Y160776D01*
X309103Y160673D01*
X309112Y160569D01*
X309118Y160464D01*
X309120Y160360D01*
X306262Y163217D02*
X306144Y163215D01*
X306025Y163209D01*
X305907Y163200D01*
X305790Y163187D01*
X305673Y163169D01*
X305556Y163149D01*
X305440Y163124D01*
X305325Y163096D01*
X305212Y163063D01*
X305099Y163028D01*
X304987Y162988D01*
X304877Y162946D01*
X304768Y162899D01*
X304660Y162849D01*
X304555Y162796D01*
X304451Y162739D01*
X304349Y162679D01*
X304249Y162616D01*
X304151Y162549D01*
X304055Y162480D01*
X303962Y162407D01*
X303871Y162331D01*
X303782Y162253D01*
X303696Y162171D01*
X303613Y162087D01*
X303532Y162001D01*
X303455Y161911D01*
X303380Y161820D01*
X303308Y161726D01*
X303239Y161629D01*
X303174Y161531D01*
X303111Y161430D01*
X303052Y161327D01*
X302996Y161223D01*
X302944Y161117D01*
X302895Y161009D01*
X302850Y160900D01*
X302808Y160789D01*
X302770Y160677D01*
X308167Y158138D02*
X308243Y158213D01*
X308318Y158292D01*
X308389Y158373D01*
X308458Y158457D01*
X308523Y158543D01*
X308585Y158631D01*
X308645Y158721D01*
X308701Y158813D01*
X308754Y158908D01*
X308803Y159004D01*
X308849Y159102D01*
X308892Y159201D01*
X308931Y159302D01*
X308966Y159404D01*
X308998Y159507D01*
X309026Y159611D01*
X309051Y159716D01*
X309072Y159823D01*
X309089Y159929D01*
X309102Y160036D01*
X309111Y160144D01*
X309117Y160252D01*
X309119Y160360D01*
X308167Y158137D02*
X302769Y151787D01*
X309119Y151787D01*
D10*
X346963Y83245D02*
X346952Y76895D01*
X346941Y70545D01*
D11*
X346952Y76895D02*
X334760Y76917D01*
D10*
X353302Y76884D02*
X353313Y83234D01*
X353302Y76884D02*
X353291Y70534D01*
D11*
X353302Y76884D02*
X365240Y76863D01*
X313188Y87114D02*
X313152Y66794D01*
X315688Y64250D02*
X384268Y64130D01*
X386812Y66666D02*
X386848Y86986D01*
X384312Y89530D02*
X315732Y89650D01*
X384312Y89530D02*
X384412Y89528D01*
X384512Y89522D01*
X384611Y89512D01*
X384710Y89498D01*
X384808Y89480D01*
X384905Y89459D01*
X385002Y89433D01*
X385097Y89404D01*
X385191Y89371D01*
X385284Y89335D01*
X385375Y89295D01*
X385465Y89251D01*
X385553Y89204D01*
X385639Y89153D01*
X385723Y89099D01*
X385805Y89042D01*
X385884Y88982D01*
X385961Y88919D01*
X386035Y88852D01*
X386107Y88783D01*
X386176Y88711D01*
X386242Y88636D01*
X386305Y88559D01*
X386366Y88479D01*
X386422Y88397D01*
X386476Y88313D01*
X386526Y88227D01*
X386573Y88139D01*
X386617Y88049D01*
X386656Y87958D01*
X386693Y87865D01*
X386725Y87771D01*
X386754Y87675D01*
X386779Y87579D01*
X386800Y87481D01*
X386817Y87383D01*
X386831Y87284D01*
X386841Y87185D01*
X386846Y87085D01*
X386848Y86986D01*
X386812Y66666D02*
X386810Y66566D01*
X386804Y66466D01*
X386794Y66367D01*
X386780Y66268D01*
X386762Y66170D01*
X386741Y66073D01*
X386715Y65976D01*
X386686Y65881D01*
X386653Y65787D01*
X386617Y65694D01*
X386577Y65603D01*
X386533Y65513D01*
X386486Y65425D01*
X386435Y65339D01*
X386381Y65255D01*
X386324Y65173D01*
X386264Y65094D01*
X386201Y65017D01*
X386134Y64943D01*
X386065Y64871D01*
X385993Y64802D01*
X385918Y64736D01*
X385841Y64673D01*
X385761Y64613D01*
X385679Y64556D01*
X385595Y64502D01*
X385509Y64452D01*
X385421Y64405D01*
X385331Y64361D01*
X385240Y64322D01*
X385147Y64285D01*
X385053Y64253D01*
X384957Y64224D01*
X384861Y64199D01*
X384763Y64178D01*
X384665Y64161D01*
X384566Y64147D01*
X384467Y64137D01*
X384367Y64132D01*
X384268Y64130D01*
X315688Y64250D02*
X315588Y64252D01*
X315488Y64258D01*
X315389Y64268D01*
X315290Y64282D01*
X315192Y64300D01*
X315095Y64321D01*
X314998Y64347D01*
X314903Y64376D01*
X314809Y64409D01*
X314716Y64445D01*
X314625Y64485D01*
X314535Y64529D01*
X314447Y64576D01*
X314361Y64627D01*
X314277Y64681D01*
X314195Y64738D01*
X314116Y64798D01*
X314039Y64861D01*
X313965Y64928D01*
X313893Y64997D01*
X313824Y65069D01*
X313758Y65144D01*
X313695Y65221D01*
X313634Y65301D01*
X313578Y65383D01*
X313524Y65467D01*
X313474Y65553D01*
X313427Y65641D01*
X313383Y65731D01*
X313344Y65822D01*
X313307Y65915D01*
X313275Y66009D01*
X313246Y66105D01*
X313221Y66201D01*
X313200Y66299D01*
X313183Y66397D01*
X313169Y66496D01*
X313159Y66595D01*
X313154Y66695D01*
X313152Y66794D01*
X313188Y87114D02*
X313190Y87214D01*
X313196Y87314D01*
X313206Y87413D01*
X313220Y87512D01*
X313238Y87610D01*
X313259Y87707D01*
X313285Y87804D01*
X313314Y87899D01*
X313347Y87993D01*
X313383Y88086D01*
X313423Y88177D01*
X313467Y88267D01*
X313514Y88355D01*
X313565Y88441D01*
X313619Y88525D01*
X313676Y88607D01*
X313736Y88686D01*
X313799Y88763D01*
X313866Y88837D01*
X313935Y88909D01*
X314007Y88978D01*
X314082Y89044D01*
X314159Y89107D01*
X314239Y89167D01*
X314321Y89224D01*
X314405Y89278D01*
X314491Y89328D01*
X314579Y89375D01*
X314669Y89419D01*
X314760Y89458D01*
X314853Y89495D01*
X314947Y89527D01*
X315043Y89556D01*
X315139Y89581D01*
X315237Y89602D01*
X315335Y89619D01*
X315434Y89633D01*
X315533Y89643D01*
X315633Y89648D01*
X315732Y89650D01*
D12*
X296205Y69497D02*
X293665Y69502D01*
X293565Y69504D01*
X293465Y69510D01*
X293366Y69520D01*
X293267Y69534D01*
X293169Y69552D01*
X293072Y69573D01*
X292975Y69599D01*
X292880Y69628D01*
X292786Y69661D01*
X292693Y69697D01*
X292602Y69737D01*
X292512Y69781D01*
X292424Y69828D01*
X292338Y69879D01*
X292254Y69933D01*
X292172Y69990D01*
X292093Y70050D01*
X292016Y70113D01*
X291942Y70180D01*
X291870Y70249D01*
X291801Y70321D01*
X291735Y70396D01*
X291672Y70473D01*
X291611Y70553D01*
X291555Y70635D01*
X291501Y70719D01*
X291451Y70805D01*
X291404Y70893D01*
X291360Y70983D01*
X291321Y71074D01*
X291284Y71167D01*
X291252Y71261D01*
X291223Y71357D01*
X291198Y71453D01*
X291177Y71551D01*
X291160Y71649D01*
X291146Y71748D01*
X291136Y71847D01*
X291131Y71947D01*
X291129Y72046D01*
X291140Y78396D01*
X291142Y78496D01*
X291148Y78596D01*
X291158Y78695D01*
X291172Y78794D01*
X291190Y78892D01*
X291211Y78989D01*
X291237Y79086D01*
X291266Y79181D01*
X291299Y79275D01*
X291335Y79368D01*
X291375Y79459D01*
X291419Y79549D01*
X291466Y79637D01*
X291517Y79723D01*
X291571Y79807D01*
X291628Y79889D01*
X291688Y79968D01*
X291751Y80045D01*
X291818Y80119D01*
X291887Y80191D01*
X291959Y80260D01*
X292034Y80326D01*
X292111Y80389D01*
X292191Y80450D01*
X292273Y80506D01*
X292357Y80560D01*
X292443Y80610D01*
X292531Y80657D01*
X292621Y80701D01*
X292712Y80740D01*
X292805Y80777D01*
X292899Y80809D01*
X292995Y80838D01*
X293091Y80863D01*
X293189Y80884D01*
X293287Y80901D01*
X293386Y80915D01*
X293485Y80925D01*
X293585Y80930D01*
X293684Y80932D01*
X293685Y80932D02*
X296225Y80927D01*
X300687Y69489D02*
X303862Y69484D01*
X303861Y69484D02*
X303972Y69486D01*
X304083Y69491D01*
X304193Y69501D01*
X304303Y69514D01*
X304413Y69531D01*
X304522Y69552D01*
X304630Y69577D01*
X304737Y69605D01*
X304843Y69638D01*
X304948Y69674D01*
X305051Y69713D01*
X305153Y69756D01*
X305254Y69803D01*
X305353Y69853D01*
X305450Y69907D01*
X305545Y69964D01*
X305638Y70024D01*
X305729Y70087D01*
X305817Y70154D01*
X305904Y70223D01*
X305987Y70296D01*
X306069Y70371D01*
X306147Y70449D01*
X306223Y70530D01*
X306296Y70614D01*
X306366Y70700D01*
X306432Y70788D01*
X306496Y70879D01*
X306557Y70972D01*
X306614Y71067D01*
X306668Y71164D01*
X306718Y71262D01*
X306765Y71363D01*
X306809Y71464D01*
X306849Y71568D01*
X306885Y71673D01*
X306917Y71779D01*
X306946Y71886D01*
X306971Y71993D01*
X306993Y72102D01*
X307010Y72212D01*
X307024Y72322D01*
X307034Y72432D01*
X307040Y72543D01*
X307042Y72653D01*
X307040Y72764D01*
X307035Y72875D01*
X307025Y72985D01*
X307012Y73095D01*
X306995Y73205D01*
X306974Y73314D01*
X306949Y73422D01*
X306921Y73529D01*
X306888Y73635D01*
X306852Y73740D01*
X306813Y73843D01*
X306770Y73945D01*
X306723Y74046D01*
X306673Y74145D01*
X306619Y74242D01*
X306562Y74337D01*
X306502Y74430D01*
X306439Y74521D01*
X306372Y74609D01*
X306303Y74696D01*
X306230Y74779D01*
X306155Y74861D01*
X306077Y74939D01*
X305996Y75015D01*
X305912Y75088D01*
X305826Y75158D01*
X305738Y75224D01*
X305647Y75288D01*
X305554Y75349D01*
X305459Y75406D01*
X305362Y75460D01*
X305264Y75510D01*
X305163Y75557D01*
X305062Y75601D01*
X304958Y75641D01*
X304853Y75677D01*
X304747Y75709D01*
X304640Y75738D01*
X304533Y75763D01*
X304424Y75785D01*
X304314Y75802D01*
X304204Y75816D01*
X304094Y75826D01*
X303983Y75832D01*
X303873Y75834D01*
X304517Y80913D02*
X300707Y80919D01*
X304516Y80913D02*
X304616Y80911D01*
X304716Y80905D01*
X304815Y80895D01*
X304914Y80881D01*
X305012Y80863D01*
X305109Y80842D01*
X305206Y80816D01*
X305301Y80787D01*
X305395Y80754D01*
X305488Y80718D01*
X305579Y80678D01*
X305669Y80634D01*
X305757Y80587D01*
X305843Y80536D01*
X305927Y80482D01*
X306009Y80425D01*
X306088Y80365D01*
X306165Y80302D01*
X306239Y80235D01*
X306311Y80166D01*
X306380Y80094D01*
X306446Y80019D01*
X306509Y79942D01*
X306570Y79862D01*
X306626Y79780D01*
X306680Y79696D01*
X306730Y79610D01*
X306777Y79522D01*
X306821Y79432D01*
X306860Y79341D01*
X306897Y79248D01*
X306929Y79154D01*
X306958Y79058D01*
X306983Y78962D01*
X307004Y78864D01*
X307021Y78766D01*
X307035Y78667D01*
X307045Y78568D01*
X307050Y78468D01*
X307052Y78369D01*
X307050Y78269D01*
X307044Y78169D01*
X307034Y78070D01*
X307020Y77971D01*
X307002Y77873D01*
X306981Y77776D01*
X306955Y77679D01*
X306926Y77584D01*
X306893Y77490D01*
X306857Y77397D01*
X306817Y77306D01*
X306773Y77216D01*
X306726Y77128D01*
X306675Y77042D01*
X306621Y76958D01*
X306564Y76876D01*
X306504Y76797D01*
X306441Y76720D01*
X306374Y76646D01*
X306305Y76574D01*
X306233Y76505D01*
X306158Y76439D01*
X306081Y76376D01*
X306001Y76315D01*
X305919Y76259D01*
X305835Y76205D01*
X305749Y76155D01*
X305661Y76108D01*
X305571Y76064D01*
X305480Y76025D01*
X305387Y75988D01*
X305293Y75956D01*
X305197Y75927D01*
X305101Y75902D01*
X305003Y75881D01*
X304905Y75864D01*
X304806Y75850D01*
X304707Y75840D01*
X304607Y75835D01*
X304508Y75833D01*
X301968Y75837D01*
D13*
X222012Y113301D03*
X222012Y138701D03*
X222012Y164101D03*
X222012Y189501D03*
D14*
X214392Y14241D02*
X30242Y14241D01*
X29613Y14233D01*
X28983Y14240D01*
X28354Y14263D01*
X27726Y14301D01*
X27099Y14354D01*
X26474Y14422D01*
X25850Y14505D01*
X25228Y14604D01*
X24609Y14717D01*
X23993Y14845D01*
X23380Y14988D01*
X22771Y15146D01*
X22166Y15319D01*
X21565Y15506D01*
X20969Y15707D01*
X20377Y15923D01*
X19792Y16153D01*
X19212Y16398D01*
X18638Y16656D01*
X18070Y16928D01*
X17509Y17213D01*
X16956Y17512D01*
X16409Y17825D01*
X15871Y18150D01*
X15340Y18489D01*
X14818Y18840D01*
X14304Y19203D01*
X13799Y19579D01*
X13304Y19967D01*
X12818Y20367D01*
X12342Y20779D01*
X11875Y21202D01*
X11420Y21636D01*
X10975Y22081D01*
X10540Y22536D01*
X10117Y23002D01*
X9706Y23478D01*
X9306Y23964D01*
X8917Y24459D01*
X8541Y24964D01*
X8177Y25477D01*
X7826Y25999D01*
X7487Y26530D01*
X7162Y27068D01*
X6849Y27615D01*
X6550Y28168D01*
X6264Y28729D01*
X5992Y29296D01*
X5733Y29870D01*
X5489Y30450D01*
X5258Y31036D01*
X5042Y31627D01*
X4840Y32223D01*
X4653Y32824D01*
X4480Y33429D01*
X4322Y34038D01*
X4179Y34651D01*
X4050Y35267D01*
X3937Y35886D01*
X3838Y36507D01*
X3755Y37131D01*
X3686Y37757D01*
X3633Y38384D01*
X3595Y39012D01*
X3572Y39641D01*
X3572Y83437D01*
X3538Y84031D01*
X3519Y84625D01*
X3514Y85220D01*
X3524Y85815D01*
X3547Y86409D01*
X3585Y87003D01*
X3637Y87595D01*
X3703Y88186D01*
X3784Y88775D01*
X3878Y89363D01*
X3987Y89947D01*
X4109Y90529D01*
X4245Y91108D01*
X4396Y91684D01*
X4560Y92256D01*
X4737Y92823D01*
X4928Y93386D01*
X5133Y93945D01*
X5351Y94498D01*
X5582Y95046D01*
X5826Y95589D01*
X6083Y96125D01*
X6353Y96655D01*
X6636Y97178D01*
X6931Y97695D01*
X7238Y98204D01*
X7557Y98706D01*
X7889Y99200D01*
X8232Y99686D01*
X8586Y100163D01*
X22687Y121358D01*
X23222Y121954D01*
X23743Y122562D01*
X24250Y123183D01*
X24741Y123816D01*
X25217Y124461D01*
X25678Y125117D01*
X26122Y125783D01*
X26551Y126460D01*
X26963Y127147D01*
X27358Y127844D01*
X27737Y128550D01*
X28099Y129265D01*
X28443Y129989D01*
X28770Y130720D01*
X29080Y131459D01*
X29372Y132206D01*
X29645Y132959D01*
X29901Y133718D01*
X30138Y134483D01*
X30357Y135254D01*
X30557Y136030D01*
X30739Y136810D01*
X30902Y137595D01*
X31046Y138383D01*
X31171Y139174D01*
X31278Y139969D01*
X31365Y140765D01*
X31433Y141563D01*
X31482Y142363D01*
X31511Y143164D01*
X31512Y143164D02*
X31512Y166624D01*
X31505Y167229D01*
X31483Y167833D01*
X31447Y168437D01*
X31397Y169040D01*
X31332Y169642D01*
X31253Y170241D01*
X31160Y170839D01*
X31052Y171434D01*
X30931Y172027D01*
X30795Y172616D01*
X30645Y173203D01*
X30482Y173785D01*
X30304Y174363D01*
X30113Y174937D01*
X29908Y175506D01*
X29690Y176071D01*
X29458Y176630D01*
X29213Y177183D01*
X28955Y177730D01*
X28684Y178271D01*
X28401Y178805D01*
X28104Y179332D01*
X27795Y179852D01*
X27474Y180365D01*
X27141Y180870D01*
X26796Y181367D01*
X26439Y181855D01*
X26070Y182335D01*
X25690Y182806D01*
X25300Y183267D01*
X24898Y183720D01*
X24485Y184162D01*
X11868Y202459D01*
X11301Y203190D01*
X10750Y203935D01*
X10218Y204692D01*
X9704Y205462D01*
X9208Y206244D01*
X8731Y207037D01*
X8274Y207842D01*
X7835Y208657D01*
X7416Y209483D01*
X7017Y210318D01*
X6638Y211163D01*
X6279Y212016D01*
X5940Y212878D01*
X5622Y213747D01*
X5325Y214624D01*
X5049Y215508D01*
X4794Y216398D01*
X4560Y217294D01*
X4347Y218195D01*
X4157Y219101D01*
X3987Y220011D01*
X3840Y220925D01*
X3714Y221842D01*
X3610Y222762D01*
X3528Y223684D01*
X3468Y224608D01*
X3430Y225533D01*
X3415Y226459D01*
X3421Y227384D01*
X3449Y228310D01*
X3499Y229234D01*
X3571Y230157D01*
X3572Y230157D02*
X3572Y268241D01*
X3595Y268870D01*
X3633Y269498D01*
X3686Y270125D01*
X3755Y270751D01*
X3838Y271375D01*
X3937Y271996D01*
X4050Y272615D01*
X4179Y273231D01*
X4322Y273844D01*
X4480Y274453D01*
X4653Y275058D01*
X4840Y275659D01*
X5042Y276255D01*
X5258Y276846D01*
X5489Y277432D01*
X5733Y278012D01*
X5992Y278586D01*
X6264Y279153D01*
X6550Y279714D01*
X6849Y280267D01*
X7162Y280814D01*
X7487Y281352D01*
X7826Y281883D01*
X8177Y282405D01*
X8541Y282918D01*
X8917Y283423D01*
X9306Y283918D01*
X9706Y284404D01*
X10117Y284880D01*
X10540Y285346D01*
X10975Y285801D01*
X11420Y286246D01*
X11875Y286680D01*
X12342Y287103D01*
X12818Y287515D01*
X13304Y287915D01*
X13799Y288303D01*
X14304Y288679D01*
X14818Y289042D01*
X15340Y289393D01*
X15871Y289732D01*
X16409Y290057D01*
X16956Y290370D01*
X17509Y290669D01*
X18070Y290954D01*
X18638Y291226D01*
X19212Y291484D01*
X19792Y291729D01*
X20377Y291959D01*
X20969Y292175D01*
X21565Y292376D01*
X22166Y292563D01*
X22771Y292736D01*
X23380Y292894D01*
X23993Y293037D01*
X24609Y293165D01*
X25228Y293278D01*
X25850Y293377D01*
X26474Y293460D01*
X27099Y293528D01*
X27726Y293581D01*
X28354Y293619D01*
X28983Y293642D01*
X29613Y293649D01*
X30242Y293641D01*
X214392Y293641D01*
X215006Y293634D01*
X215619Y293611D01*
X216232Y293574D01*
X216843Y293522D01*
X217454Y293456D01*
X218062Y293374D01*
X218668Y293278D01*
X219272Y293168D01*
X219873Y293043D01*
X220471Y292903D01*
X221065Y292749D01*
X221655Y292580D01*
X222241Y292398D01*
X222822Y292201D01*
X223399Y291990D01*
X223970Y291766D01*
X224536Y291528D01*
X225096Y291276D01*
X225649Y291010D01*
X226196Y290732D01*
X226736Y290440D01*
X227269Y290135D01*
X227794Y289817D01*
X228312Y289487D01*
X228821Y289145D01*
X229322Y288790D01*
X229814Y288423D01*
X230297Y288045D01*
X230771Y287655D01*
X231235Y287253D01*
X231690Y286841D01*
X232134Y286417D01*
X232568Y285983D01*
X232992Y285539D01*
X233404Y285084D01*
X233806Y284620D01*
X234196Y284146D01*
X234574Y283663D01*
X234941Y283171D01*
X235296Y282670D01*
X235638Y282161D01*
X235968Y281643D01*
X236286Y281118D01*
X236591Y280585D01*
X236883Y280045D01*
X237161Y279498D01*
X237427Y278945D01*
X237679Y278385D01*
X237917Y277819D01*
X238141Y277248D01*
X238352Y276671D01*
X238549Y276090D01*
X238731Y275504D01*
X238900Y274914D01*
X239054Y274320D01*
X239194Y273722D01*
X239319Y273121D01*
X239429Y272517D01*
X239525Y271911D01*
X239607Y271303D01*
X239673Y270692D01*
X239725Y270081D01*
X239762Y269468D01*
X239785Y268855D01*
X239792Y268241D01*
X239792Y39641D01*
X239785Y39027D01*
X239762Y38414D01*
X239725Y37801D01*
X239673Y37190D01*
X239607Y36579D01*
X239525Y35971D01*
X239429Y35365D01*
X239319Y34761D01*
X239194Y34160D01*
X239054Y33562D01*
X238900Y32968D01*
X238731Y32378D01*
X238549Y31792D01*
X238352Y31211D01*
X238141Y30634D01*
X237917Y30063D01*
X237679Y29497D01*
X237427Y28937D01*
X237161Y28384D01*
X236883Y27837D01*
X236591Y27297D01*
X236286Y26764D01*
X235968Y26239D01*
X235638Y25721D01*
X235296Y25212D01*
X234941Y24711D01*
X234574Y24219D01*
X234196Y23736D01*
X233806Y23262D01*
X233404Y22798D01*
X232992Y22343D01*
X232568Y21899D01*
X232134Y21465D01*
X231690Y21041D01*
X231235Y20629D01*
X230771Y20227D01*
X230297Y19837D01*
X229814Y19459D01*
X229322Y19092D01*
X228821Y18737D01*
X228312Y18395D01*
X227794Y18065D01*
X227269Y17747D01*
X226736Y17442D01*
X226196Y17150D01*
X225649Y16872D01*
X225096Y16606D01*
X224536Y16354D01*
X223970Y16116D01*
X223399Y15892D01*
X222822Y15681D01*
X222241Y15484D01*
X221655Y15302D01*
X221065Y15133D01*
X220471Y14979D01*
X219873Y14839D01*
X219272Y14714D01*
X218668Y14604D01*
X218062Y14508D01*
X217454Y14426D01*
X216843Y14360D01*
X216232Y14308D01*
X215619Y14271D01*
X215006Y14248D01*
X214392Y14241D01*
D12*
X246182Y184955D02*
X366182Y184955D01*
X246182Y184955D02*
X246182Y299955D01*
X266182Y299955D01*
X271182Y299955D01*
X271182Y334955D01*
X341182Y334955D01*
X341182Y299955D01*
X342182Y299955D01*
X366182Y299955D01*
X366182Y184955D01*
X342182Y299955D02*
X266182Y299955D01*
D15*
X285793Y201296D02*
X285793Y192200D01*
X285791Y192100D01*
X285785Y192001D01*
X285776Y191902D01*
X285763Y191803D01*
X285745Y191705D01*
X285725Y191608D01*
X285700Y191511D01*
X285672Y191416D01*
X285640Y191321D01*
X285605Y191228D01*
X285566Y191137D01*
X285523Y191047D01*
X285477Y190958D01*
X285428Y190872D01*
X285376Y190787D01*
X285320Y190705D01*
X285261Y190624D01*
X285199Y190546D01*
X285134Y190471D01*
X285067Y190398D01*
X284996Y190327D01*
X284923Y190260D01*
X284848Y190195D01*
X284770Y190133D01*
X284689Y190074D01*
X284607Y190018D01*
X284522Y189966D01*
X284436Y189917D01*
X284347Y189871D01*
X284257Y189828D01*
X284166Y189789D01*
X284073Y189754D01*
X283978Y189722D01*
X283883Y189694D01*
X283786Y189669D01*
X283689Y189649D01*
X283591Y189631D01*
X283492Y189618D01*
X283393Y189609D01*
X283294Y189603D01*
X283194Y189601D01*
X283194Y189602D02*
X281895Y189602D01*
X290420Y189602D02*
X294318Y201296D01*
X298216Y189602D01*
X297242Y192525D02*
X291395Y192525D01*
X305075Y189602D02*
X307673Y189602D01*
X305075Y189601D02*
X304975Y189603D01*
X304876Y189609D01*
X304777Y189618D01*
X304678Y189631D01*
X304580Y189649D01*
X304483Y189669D01*
X304386Y189694D01*
X304291Y189722D01*
X304196Y189754D01*
X304103Y189789D01*
X304012Y189828D01*
X303922Y189871D01*
X303833Y189917D01*
X303747Y189966D01*
X303662Y190018D01*
X303580Y190074D01*
X303499Y190133D01*
X303421Y190195D01*
X303346Y190260D01*
X303273Y190327D01*
X303202Y190398D01*
X303135Y190471D01*
X303070Y190546D01*
X303008Y190624D01*
X302949Y190705D01*
X302893Y190787D01*
X302841Y190872D01*
X302792Y190958D01*
X302746Y191047D01*
X302703Y191137D01*
X302664Y191228D01*
X302629Y191321D01*
X302597Y191416D01*
X302569Y191511D01*
X302544Y191608D01*
X302524Y191705D01*
X302506Y191803D01*
X302493Y191902D01*
X302484Y192001D01*
X302478Y192100D01*
X302476Y192200D01*
X302476Y198697D01*
X302478Y198797D01*
X302484Y198896D01*
X302493Y198995D01*
X302506Y199094D01*
X302524Y199192D01*
X302544Y199289D01*
X302569Y199386D01*
X302597Y199481D01*
X302629Y199575D01*
X302664Y199669D01*
X302703Y199760D01*
X302746Y199850D01*
X302792Y199939D01*
X302841Y200025D01*
X302893Y200110D01*
X302949Y200192D01*
X303008Y200273D01*
X303070Y200351D01*
X303135Y200426D01*
X303202Y200499D01*
X303273Y200570D01*
X303346Y200637D01*
X303421Y200702D01*
X303499Y200764D01*
X303580Y200823D01*
X303662Y200878D01*
X303747Y200931D01*
X303833Y200980D01*
X303922Y201026D01*
X304012Y201069D01*
X304103Y201108D01*
X304196Y201143D01*
X304291Y201175D01*
X304386Y201203D01*
X304483Y201228D01*
X304580Y201248D01*
X304678Y201266D01*
X304777Y201279D01*
X304876Y201288D01*
X304975Y201294D01*
X305075Y201296D01*
X307673Y201296D01*
X312592Y201296D02*
X312592Y189602D01*
X312592Y194149D02*
X319089Y201296D01*
X315191Y196748D02*
X319089Y189602D01*
D11*
X327140Y127758D02*
X327040Y127756D01*
X326941Y127750D01*
X326841Y127740D01*
X326743Y127727D01*
X326644Y127709D01*
X326547Y127688D01*
X326451Y127663D01*
X326355Y127634D01*
X326261Y127601D01*
X326168Y127565D01*
X326077Y127525D01*
X325987Y127481D01*
X325899Y127434D01*
X325813Y127384D01*
X325729Y127330D01*
X325647Y127273D01*
X325568Y127213D01*
X325490Y127149D01*
X325416Y127083D01*
X325344Y127014D01*
X325275Y126942D01*
X325209Y126868D01*
X325145Y126790D01*
X325085Y126711D01*
X325028Y126629D01*
X324974Y126545D01*
X324924Y126459D01*
X324877Y126371D01*
X324833Y126281D01*
X324793Y126190D01*
X324757Y126097D01*
X324724Y126003D01*
X324695Y125907D01*
X324670Y125811D01*
X324649Y125714D01*
X324631Y125615D01*
X324618Y125517D01*
X324608Y125417D01*
X324602Y125318D01*
X324600Y125218D01*
X324600Y109978D02*
X324602Y109878D01*
X324608Y109779D01*
X324618Y109679D01*
X324631Y109581D01*
X324649Y109482D01*
X324670Y109385D01*
X324695Y109289D01*
X324724Y109193D01*
X324757Y109099D01*
X324793Y109006D01*
X324833Y108915D01*
X324877Y108825D01*
X324924Y108737D01*
X324974Y108651D01*
X325028Y108567D01*
X325085Y108485D01*
X325145Y108406D01*
X325209Y108328D01*
X325275Y108254D01*
X325344Y108182D01*
X325416Y108113D01*
X325490Y108047D01*
X325568Y107983D01*
X325647Y107923D01*
X325729Y107866D01*
X325813Y107812D01*
X325899Y107762D01*
X325987Y107715D01*
X326077Y107671D01*
X326168Y107631D01*
X326261Y107595D01*
X326355Y107562D01*
X326451Y107533D01*
X326547Y107508D01*
X326644Y107487D01*
X326743Y107469D01*
X326841Y107456D01*
X326941Y107446D01*
X327040Y107440D01*
X327140Y107438D01*
X372860Y107438D02*
X372960Y107440D01*
X373059Y107446D01*
X373159Y107456D01*
X373257Y107469D01*
X373356Y107487D01*
X373453Y107508D01*
X373549Y107533D01*
X373645Y107562D01*
X373739Y107595D01*
X373832Y107631D01*
X373923Y107671D01*
X374013Y107715D01*
X374101Y107762D01*
X374187Y107812D01*
X374271Y107866D01*
X374353Y107923D01*
X374432Y107983D01*
X374510Y108047D01*
X374584Y108113D01*
X374656Y108182D01*
X374725Y108254D01*
X374791Y108328D01*
X374855Y108406D01*
X374915Y108485D01*
X374972Y108567D01*
X375026Y108651D01*
X375076Y108737D01*
X375123Y108825D01*
X375167Y108915D01*
X375207Y109006D01*
X375243Y109099D01*
X375276Y109193D01*
X375305Y109289D01*
X375330Y109385D01*
X375351Y109482D01*
X375369Y109581D01*
X375382Y109679D01*
X375392Y109779D01*
X375398Y109878D01*
X375400Y109978D01*
X375400Y125218D02*
X375398Y125318D01*
X375392Y125417D01*
X375382Y125517D01*
X375369Y125615D01*
X375351Y125714D01*
X375330Y125811D01*
X375305Y125907D01*
X375276Y126003D01*
X375243Y126097D01*
X375207Y126190D01*
X375167Y126281D01*
X375123Y126371D01*
X375076Y126459D01*
X375026Y126545D01*
X374972Y126629D01*
X374915Y126711D01*
X374855Y126790D01*
X374791Y126868D01*
X374725Y126942D01*
X374656Y127014D01*
X374584Y127083D01*
X374510Y127149D01*
X374432Y127213D01*
X374353Y127273D01*
X374271Y127330D01*
X374187Y127384D01*
X374101Y127434D01*
X374013Y127481D01*
X373923Y127525D01*
X373832Y127565D01*
X373739Y127601D01*
X373645Y127634D01*
X373549Y127663D01*
X373453Y127688D01*
X373356Y127709D01*
X373257Y127727D01*
X373159Y127740D01*
X373059Y127750D01*
X372960Y127756D01*
X372860Y127758D01*
X324600Y125218D02*
X324600Y109978D01*
X327140Y127758D02*
X330950Y127758D01*
X332220Y126488D01*
X330950Y107438D02*
X327140Y107438D01*
X330950Y107438D02*
X332220Y108708D01*
X367780Y126488D02*
X369050Y127758D01*
X367780Y126488D02*
X332220Y126488D01*
X367780Y108708D02*
X369050Y107438D01*
X367780Y108708D02*
X332220Y108708D01*
X369050Y127758D02*
X372860Y127758D01*
X372860Y107438D02*
X369050Y107438D01*
X375400Y109978D02*
X375400Y125218D01*
D16*
X377305Y117598D03*
X322695Y117598D03*
D12*
X344704Y120486D02*
X344704Y111850D01*
X344704Y120486D02*
X347103Y120486D01*
X347200Y120484D01*
X347296Y120478D01*
X347392Y120469D01*
X347488Y120455D01*
X347583Y120438D01*
X347677Y120416D01*
X347770Y120391D01*
X347863Y120363D01*
X347954Y120330D01*
X348043Y120294D01*
X348131Y120254D01*
X348218Y120211D01*
X348303Y120165D01*
X348385Y120115D01*
X348466Y120061D01*
X348544Y120005D01*
X348620Y119945D01*
X348694Y119883D01*
X348765Y119817D01*
X348833Y119749D01*
X348899Y119678D01*
X348961Y119604D01*
X349021Y119528D01*
X349077Y119450D01*
X349131Y119369D01*
X349181Y119286D01*
X349227Y119202D01*
X349270Y119115D01*
X349310Y119027D01*
X349346Y118938D01*
X349379Y118847D01*
X349407Y118754D01*
X349432Y118661D01*
X349454Y118567D01*
X349471Y118472D01*
X349485Y118376D01*
X349494Y118280D01*
X349500Y118184D01*
X349502Y118087D01*
X349500Y117990D01*
X349494Y117894D01*
X349485Y117798D01*
X349471Y117702D01*
X349454Y117607D01*
X349432Y117513D01*
X349407Y117420D01*
X349379Y117327D01*
X349346Y117236D01*
X349310Y117147D01*
X349270Y117059D01*
X349227Y116972D01*
X349181Y116887D01*
X349131Y116805D01*
X349077Y116724D01*
X349021Y116646D01*
X348961Y116570D01*
X348899Y116496D01*
X348833Y116425D01*
X348765Y116357D01*
X348694Y116291D01*
X348620Y116229D01*
X348544Y116169D01*
X348466Y116113D01*
X348385Y116059D01*
X348303Y116009D01*
X348218Y115963D01*
X348131Y115920D01*
X348043Y115880D01*
X347954Y115844D01*
X347863Y115811D01*
X347770Y115783D01*
X347677Y115758D01*
X347583Y115736D01*
X347488Y115719D01*
X347392Y115705D01*
X347296Y115696D01*
X347200Y115690D01*
X347103Y115688D01*
X344704Y115688D01*
X347582Y115688D02*
X349501Y111850D01*
X353544Y118566D02*
X355943Y120486D01*
X355943Y111850D01*
X353544Y111850D02*
X358342Y111850D01*
D11*
X480360Y106653D02*
X480460Y106655D01*
X480559Y106661D01*
X480659Y106671D01*
X480757Y106684D01*
X480856Y106702D01*
X480953Y106723D01*
X481049Y106748D01*
X481145Y106777D01*
X481239Y106810D01*
X481332Y106846D01*
X481423Y106886D01*
X481513Y106930D01*
X481601Y106977D01*
X481687Y107027D01*
X481771Y107081D01*
X481853Y107138D01*
X481932Y107198D01*
X482010Y107262D01*
X482084Y107328D01*
X482156Y107397D01*
X482225Y107469D01*
X482291Y107543D01*
X482355Y107621D01*
X482415Y107700D01*
X482472Y107782D01*
X482526Y107866D01*
X482576Y107952D01*
X482623Y108040D01*
X482667Y108130D01*
X482707Y108221D01*
X482743Y108314D01*
X482776Y108408D01*
X482805Y108504D01*
X482830Y108600D01*
X482851Y108697D01*
X482869Y108796D01*
X482882Y108894D01*
X482892Y108994D01*
X482898Y109093D01*
X482900Y109193D01*
X482900Y124433D02*
X482898Y124533D01*
X482892Y124632D01*
X482882Y124732D01*
X482869Y124830D01*
X482851Y124929D01*
X482830Y125026D01*
X482805Y125122D01*
X482776Y125218D01*
X482743Y125312D01*
X482707Y125405D01*
X482667Y125496D01*
X482623Y125586D01*
X482576Y125674D01*
X482526Y125760D01*
X482472Y125844D01*
X482415Y125926D01*
X482355Y126005D01*
X482291Y126083D01*
X482225Y126157D01*
X482156Y126229D01*
X482084Y126298D01*
X482010Y126364D01*
X481932Y126428D01*
X481853Y126488D01*
X481771Y126545D01*
X481687Y126599D01*
X481601Y126649D01*
X481513Y126696D01*
X481423Y126740D01*
X481332Y126780D01*
X481239Y126816D01*
X481145Y126849D01*
X481049Y126878D01*
X480953Y126903D01*
X480856Y126924D01*
X480757Y126942D01*
X480659Y126955D01*
X480559Y126965D01*
X480460Y126971D01*
X480360Y126973D01*
X434640Y126973D02*
X434540Y126971D01*
X434441Y126965D01*
X434341Y126955D01*
X434243Y126942D01*
X434144Y126924D01*
X434047Y126903D01*
X433951Y126878D01*
X433855Y126849D01*
X433761Y126816D01*
X433668Y126780D01*
X433577Y126740D01*
X433487Y126696D01*
X433399Y126649D01*
X433313Y126599D01*
X433229Y126545D01*
X433147Y126488D01*
X433068Y126428D01*
X432990Y126364D01*
X432916Y126298D01*
X432844Y126229D01*
X432775Y126157D01*
X432709Y126083D01*
X432645Y126005D01*
X432585Y125926D01*
X432528Y125844D01*
X432474Y125760D01*
X432424Y125674D01*
X432377Y125586D01*
X432333Y125496D01*
X432293Y125405D01*
X432257Y125312D01*
X432224Y125218D01*
X432195Y125122D01*
X432170Y125026D01*
X432149Y124929D01*
X432131Y124830D01*
X432118Y124732D01*
X432108Y124632D01*
X432102Y124533D01*
X432100Y124433D01*
X432100Y109193D02*
X432102Y109093D01*
X432108Y108994D01*
X432118Y108894D01*
X432131Y108796D01*
X432149Y108697D01*
X432170Y108600D01*
X432195Y108504D01*
X432224Y108408D01*
X432257Y108314D01*
X432293Y108221D01*
X432333Y108130D01*
X432377Y108040D01*
X432424Y107952D01*
X432474Y107866D01*
X432528Y107782D01*
X432585Y107700D01*
X432645Y107621D01*
X432709Y107543D01*
X432775Y107469D01*
X432844Y107397D01*
X432916Y107328D01*
X432990Y107262D01*
X433068Y107198D01*
X433147Y107138D01*
X433229Y107081D01*
X433313Y107027D01*
X433399Y106977D01*
X433487Y106930D01*
X433577Y106886D01*
X433668Y106846D01*
X433761Y106810D01*
X433855Y106777D01*
X433951Y106748D01*
X434047Y106723D01*
X434144Y106702D01*
X434243Y106684D01*
X434341Y106671D01*
X434441Y106661D01*
X434540Y106655D01*
X434640Y106653D01*
X482900Y109193D02*
X482900Y124433D01*
X480360Y106653D02*
X476550Y106653D01*
X475280Y107923D01*
X476550Y126973D02*
X480360Y126973D01*
X476550Y126973D02*
X475280Y125703D01*
X439720Y107923D02*
X438450Y106653D01*
X439720Y107923D02*
X475280Y107923D01*
X439720Y125703D02*
X438450Y126973D01*
X439720Y125703D02*
X475280Y125703D01*
X438450Y106653D02*
X434640Y106653D01*
X434640Y126973D02*
X438450Y126973D01*
X432100Y124433D02*
X432100Y109193D01*
D16*
X430195Y116813D03*
X484805Y116813D03*
D15*
X452347Y112495D02*
X452347Y121385D01*
X454817Y121385D01*
X454817Y121384D02*
X454915Y121382D01*
X455013Y121376D01*
X455111Y121366D01*
X455208Y121353D01*
X455305Y121335D01*
X455401Y121314D01*
X455495Y121289D01*
X455589Y121260D01*
X455682Y121228D01*
X455773Y121191D01*
X455863Y121152D01*
X455951Y121108D01*
X456037Y121061D01*
X456122Y121011D01*
X456204Y120958D01*
X456284Y120901D01*
X456362Y120841D01*
X456437Y120778D01*
X456510Y120712D01*
X456580Y120643D01*
X456647Y120572D01*
X456712Y120498D01*
X456773Y120421D01*
X456832Y120342D01*
X456887Y120261D01*
X456939Y120178D01*
X456987Y120092D01*
X457032Y120005D01*
X457074Y119916D01*
X457112Y119826D01*
X457146Y119734D01*
X457177Y119641D01*
X457204Y119546D01*
X457227Y119451D01*
X457247Y119354D01*
X457262Y119258D01*
X457274Y119160D01*
X457282Y119062D01*
X457286Y118964D01*
X457286Y118866D01*
X457282Y118768D01*
X457274Y118670D01*
X457262Y118572D01*
X457247Y118476D01*
X457227Y118379D01*
X457204Y118284D01*
X457177Y118189D01*
X457146Y118096D01*
X457112Y118004D01*
X457074Y117914D01*
X457032Y117825D01*
X456987Y117738D01*
X456939Y117652D01*
X456887Y117569D01*
X456832Y117488D01*
X456773Y117409D01*
X456712Y117332D01*
X456647Y117258D01*
X456580Y117187D01*
X456510Y117118D01*
X456437Y117052D01*
X456362Y116989D01*
X456284Y116929D01*
X456204Y116872D01*
X456122Y116819D01*
X456037Y116769D01*
X455951Y116722D01*
X455863Y116678D01*
X455773Y116639D01*
X455682Y116602D01*
X455589Y116570D01*
X455495Y116541D01*
X455401Y116516D01*
X455305Y116495D01*
X455208Y116477D01*
X455111Y116464D01*
X455013Y116454D01*
X454915Y116448D01*
X454817Y116446D01*
X452347Y116446D01*
X455311Y116446D02*
X457286Y112495D01*
X466137Y119162D02*
X466135Y119254D01*
X466129Y119346D01*
X466120Y119437D01*
X466107Y119528D01*
X466090Y119618D01*
X466069Y119708D01*
X466045Y119796D01*
X466017Y119884D01*
X465985Y119970D01*
X465950Y120055D01*
X465911Y120138D01*
X465869Y120220D01*
X465824Y120300D01*
X465775Y120378D01*
X465723Y120454D01*
X465668Y120527D01*
X465610Y120599D01*
X465550Y120668D01*
X465486Y120734D01*
X465420Y120798D01*
X465351Y120858D01*
X465279Y120916D01*
X465206Y120971D01*
X465130Y121023D01*
X465052Y121072D01*
X464972Y121117D01*
X464890Y121159D01*
X464807Y121198D01*
X464722Y121233D01*
X464636Y121265D01*
X464548Y121293D01*
X464460Y121317D01*
X464370Y121338D01*
X464280Y121355D01*
X464189Y121368D01*
X464098Y121377D01*
X464006Y121383D01*
X463914Y121385D01*
X463914Y121384D02*
X463808Y121382D01*
X463703Y121376D01*
X463598Y121366D01*
X463493Y121353D01*
X463389Y121335D01*
X463286Y121314D01*
X463183Y121289D01*
X463081Y121260D01*
X462981Y121227D01*
X462882Y121191D01*
X462784Y121151D01*
X462688Y121107D01*
X462593Y121060D01*
X462501Y121010D01*
X462410Y120956D01*
X462321Y120898D01*
X462235Y120838D01*
X462151Y120774D01*
X462069Y120708D01*
X461989Y120638D01*
X461913Y120565D01*
X461839Y120490D01*
X461768Y120412D01*
X461700Y120331D01*
X461634Y120248D01*
X461572Y120162D01*
X461514Y120075D01*
X461458Y119985D01*
X461406Y119893D01*
X461357Y119799D01*
X461312Y119704D01*
X461270Y119607D01*
X461232Y119508D01*
X461198Y119409D01*
X465395Y117433D02*
X465464Y117502D01*
X465530Y117572D01*
X465593Y117646D01*
X465652Y117722D01*
X465709Y117800D01*
X465763Y117880D01*
X465813Y117963D01*
X465860Y118047D01*
X465903Y118134D01*
X465943Y118222D01*
X465979Y118311D01*
X466012Y118402D01*
X466041Y118494D01*
X466066Y118588D01*
X466087Y118682D01*
X466105Y118777D01*
X466118Y118873D01*
X466128Y118969D01*
X466134Y119065D01*
X466136Y119162D01*
X465395Y117433D02*
X461197Y112495D01*
X466136Y112495D01*
D14*
X542846Y6620D02*
X644446Y6620D01*
X542846Y6620D02*
X542232Y6627D01*
X541619Y6650D01*
X541006Y6687D01*
X540395Y6739D01*
X539784Y6805D01*
X539176Y6887D01*
X538570Y6983D01*
X537966Y7093D01*
X537365Y7218D01*
X536767Y7358D01*
X536173Y7512D01*
X535583Y7681D01*
X534997Y7863D01*
X534416Y8060D01*
X533839Y8271D01*
X533268Y8495D01*
X532702Y8733D01*
X532142Y8985D01*
X531589Y9251D01*
X531042Y9529D01*
X530502Y9821D01*
X529969Y10126D01*
X529444Y10444D01*
X528926Y10774D01*
X528417Y11116D01*
X527916Y11471D01*
X527424Y11838D01*
X526941Y12216D01*
X526467Y12606D01*
X526003Y13008D01*
X525548Y13420D01*
X525104Y13844D01*
X524670Y14278D01*
X524246Y14722D01*
X523834Y15177D01*
X523432Y15641D01*
X523042Y16115D01*
X522664Y16598D01*
X522297Y17090D01*
X521942Y17591D01*
X521600Y18100D01*
X521270Y18618D01*
X520952Y19143D01*
X520647Y19676D01*
X520355Y20216D01*
X520077Y20763D01*
X519811Y21316D01*
X519559Y21876D01*
X519321Y22442D01*
X519097Y23013D01*
X518886Y23590D01*
X518689Y24171D01*
X518507Y24757D01*
X518338Y25347D01*
X518184Y25941D01*
X518044Y26539D01*
X517919Y27140D01*
X517809Y27744D01*
X517713Y28350D01*
X517631Y28958D01*
X517565Y29569D01*
X517513Y30180D01*
X517476Y30793D01*
X517453Y31406D01*
X517446Y32020D01*
X517446Y222520D01*
X517453Y223134D01*
X517476Y223747D01*
X517513Y224360D01*
X517565Y224971D01*
X517631Y225582D01*
X517713Y226190D01*
X517809Y226796D01*
X517919Y227400D01*
X518044Y228001D01*
X518184Y228599D01*
X518338Y229193D01*
X518507Y229783D01*
X518689Y230369D01*
X518886Y230950D01*
X519097Y231527D01*
X519321Y232098D01*
X519559Y232664D01*
X519811Y233224D01*
X520077Y233777D01*
X520355Y234324D01*
X520647Y234864D01*
X520952Y235397D01*
X521270Y235922D01*
X521600Y236440D01*
X521942Y236949D01*
X522297Y237450D01*
X522664Y237942D01*
X523042Y238425D01*
X523432Y238899D01*
X523834Y239363D01*
X524246Y239818D01*
X524670Y240262D01*
X525104Y240696D01*
X525548Y241120D01*
X526003Y241532D01*
X526467Y241934D01*
X526941Y242324D01*
X527424Y242702D01*
X527916Y243069D01*
X528417Y243424D01*
X528926Y243766D01*
X529444Y244096D01*
X529969Y244414D01*
X530502Y244719D01*
X531042Y245011D01*
X531589Y245289D01*
X532142Y245555D01*
X532702Y245807D01*
X533268Y246045D01*
X533839Y246269D01*
X534416Y246480D01*
X534997Y246677D01*
X535583Y246859D01*
X536173Y247028D01*
X536767Y247182D01*
X537365Y247322D01*
X537966Y247447D01*
X538570Y247557D01*
X539176Y247653D01*
X539784Y247735D01*
X540395Y247801D01*
X541006Y247853D01*
X541619Y247890D01*
X542232Y247913D01*
X542846Y247920D01*
X644446Y247920D01*
X645060Y247913D01*
X645673Y247890D01*
X646286Y247853D01*
X646897Y247801D01*
X647508Y247735D01*
X648116Y247653D01*
X648722Y247557D01*
X649326Y247447D01*
X649927Y247322D01*
X650525Y247182D01*
X651119Y247028D01*
X651709Y246859D01*
X652295Y246677D01*
X652876Y246480D01*
X653453Y246269D01*
X654024Y246045D01*
X654590Y245807D01*
X655150Y245555D01*
X655703Y245289D01*
X656250Y245011D01*
X656790Y244719D01*
X657323Y244414D01*
X657848Y244096D01*
X658366Y243766D01*
X658875Y243424D01*
X659376Y243069D01*
X659868Y242702D01*
X660351Y242324D01*
X660825Y241934D01*
X661289Y241532D01*
X661744Y241120D01*
X662188Y240696D01*
X662622Y240262D01*
X663046Y239818D01*
X663458Y239363D01*
X663860Y238899D01*
X664250Y238425D01*
X664628Y237942D01*
X664995Y237450D01*
X665350Y236949D01*
X665692Y236440D01*
X666022Y235922D01*
X666340Y235397D01*
X666645Y234864D01*
X666937Y234324D01*
X667215Y233777D01*
X667481Y233224D01*
X667733Y232664D01*
X667971Y232098D01*
X668195Y231527D01*
X668406Y230950D01*
X668603Y230369D01*
X668785Y229783D01*
X668954Y229193D01*
X669108Y228599D01*
X669248Y228001D01*
X669373Y227400D01*
X669483Y226796D01*
X669579Y226190D01*
X669661Y225582D01*
X669727Y224971D01*
X669779Y224360D01*
X669816Y223747D01*
X669839Y223134D01*
X669846Y222520D01*
X669846Y32020D01*
X669839Y31406D01*
X669816Y30793D01*
X669779Y30180D01*
X669727Y29569D01*
X669661Y28958D01*
X669579Y28350D01*
X669483Y27744D01*
X669373Y27140D01*
X669248Y26539D01*
X669108Y25941D01*
X668954Y25347D01*
X668785Y24757D01*
X668603Y24171D01*
X668406Y23590D01*
X668195Y23013D01*
X667971Y22442D01*
X667733Y21876D01*
X667481Y21316D01*
X667215Y20763D01*
X666937Y20216D01*
X666645Y19676D01*
X666340Y19143D01*
X666022Y18618D01*
X665692Y18100D01*
X665350Y17591D01*
X664995Y17090D01*
X664628Y16598D01*
X664250Y16115D01*
X663860Y15641D01*
X663458Y15177D01*
X663046Y14722D01*
X662622Y14278D01*
X662188Y13844D01*
X661744Y13420D01*
X661289Y13008D01*
X660825Y12606D01*
X660351Y12216D01*
X659868Y11838D01*
X659376Y11471D01*
X658875Y11116D01*
X658366Y10774D01*
X657848Y10444D01*
X657323Y10126D01*
X656790Y9821D01*
X656250Y9529D01*
X655703Y9251D01*
X655150Y8985D01*
X654590Y8733D01*
X654024Y8495D01*
X653453Y8271D01*
X652876Y8060D01*
X652295Y7863D01*
X651709Y7681D01*
X651119Y7512D01*
X650525Y7358D01*
X649927Y7218D01*
X649326Y7093D01*
X648722Y6983D01*
X648116Y6887D01*
X647508Y6805D01*
X646897Y6739D01*
X646286Y6687D01*
X645673Y6650D01*
X645060Y6627D01*
X644446Y6620D01*
D10*
X455420Y28972D02*
X455420Y35322D01*
X455420Y28972D02*
X455420Y22622D01*
D11*
X455420Y28972D02*
X443228Y28972D01*
D10*
X461770Y28972D02*
X461770Y35322D01*
X461770Y28972D02*
X461770Y22622D01*
D11*
X461770Y28972D02*
X473708Y28972D01*
X421638Y39132D02*
X421638Y18812D01*
X424178Y16272D02*
X492758Y16272D01*
X495298Y18812D02*
X495298Y39132D01*
X492758Y41672D02*
X424178Y41672D01*
X492758Y41672D02*
X492858Y41670D01*
X492957Y41664D01*
X493057Y41654D01*
X493155Y41641D01*
X493254Y41623D01*
X493351Y41602D01*
X493447Y41577D01*
X493543Y41548D01*
X493637Y41515D01*
X493730Y41479D01*
X493821Y41439D01*
X493911Y41395D01*
X493999Y41348D01*
X494085Y41298D01*
X494169Y41244D01*
X494251Y41187D01*
X494330Y41127D01*
X494408Y41063D01*
X494482Y40997D01*
X494554Y40928D01*
X494623Y40856D01*
X494689Y40782D01*
X494753Y40704D01*
X494813Y40625D01*
X494870Y40543D01*
X494924Y40459D01*
X494974Y40373D01*
X495021Y40285D01*
X495065Y40195D01*
X495105Y40104D01*
X495141Y40011D01*
X495174Y39917D01*
X495203Y39821D01*
X495228Y39725D01*
X495249Y39628D01*
X495267Y39529D01*
X495280Y39431D01*
X495290Y39331D01*
X495296Y39232D01*
X495298Y39132D01*
X495298Y18812D02*
X495296Y18712D01*
X495290Y18613D01*
X495280Y18513D01*
X495267Y18415D01*
X495249Y18316D01*
X495228Y18219D01*
X495203Y18123D01*
X495174Y18027D01*
X495141Y17933D01*
X495105Y17840D01*
X495065Y17749D01*
X495021Y17659D01*
X494974Y17571D01*
X494924Y17485D01*
X494870Y17401D01*
X494813Y17319D01*
X494753Y17240D01*
X494689Y17162D01*
X494623Y17088D01*
X494554Y17016D01*
X494482Y16947D01*
X494408Y16881D01*
X494330Y16817D01*
X494251Y16757D01*
X494169Y16700D01*
X494085Y16646D01*
X493999Y16596D01*
X493911Y16549D01*
X493821Y16505D01*
X493730Y16465D01*
X493637Y16429D01*
X493543Y16396D01*
X493447Y16367D01*
X493351Y16342D01*
X493254Y16321D01*
X493155Y16303D01*
X493057Y16290D01*
X492957Y16280D01*
X492858Y16274D01*
X492758Y16272D01*
X424178Y16272D02*
X424078Y16274D01*
X423979Y16280D01*
X423879Y16290D01*
X423781Y16303D01*
X423682Y16321D01*
X423585Y16342D01*
X423489Y16367D01*
X423393Y16396D01*
X423299Y16429D01*
X423206Y16465D01*
X423115Y16505D01*
X423025Y16549D01*
X422937Y16596D01*
X422851Y16646D01*
X422767Y16700D01*
X422685Y16757D01*
X422606Y16817D01*
X422528Y16881D01*
X422454Y16947D01*
X422382Y17016D01*
X422313Y17088D01*
X422247Y17162D01*
X422183Y17240D01*
X422123Y17319D01*
X422066Y17401D01*
X422012Y17485D01*
X421962Y17571D01*
X421915Y17659D01*
X421871Y17749D01*
X421831Y17840D01*
X421795Y17933D01*
X421762Y18027D01*
X421733Y18123D01*
X421708Y18219D01*
X421687Y18316D01*
X421669Y18415D01*
X421656Y18513D01*
X421646Y18613D01*
X421640Y18712D01*
X421638Y18812D01*
X421638Y39132D02*
X421640Y39232D01*
X421646Y39331D01*
X421656Y39431D01*
X421669Y39529D01*
X421687Y39628D01*
X421708Y39725D01*
X421733Y39821D01*
X421762Y39917D01*
X421795Y40011D01*
X421831Y40104D01*
X421871Y40195D01*
X421915Y40285D01*
X421962Y40373D01*
X422012Y40459D01*
X422066Y40543D01*
X422123Y40625D01*
X422183Y40704D01*
X422247Y40782D01*
X422313Y40856D01*
X422382Y40928D01*
X422454Y40997D01*
X422528Y41063D01*
X422606Y41127D01*
X422685Y41187D01*
X422767Y41244D01*
X422851Y41298D01*
X422937Y41348D01*
X423025Y41395D01*
X423115Y41439D01*
X423206Y41479D01*
X423299Y41515D01*
X423393Y41548D01*
X423489Y41577D01*
X423585Y41602D01*
X423682Y41623D01*
X423781Y41641D01*
X423879Y41654D01*
X423979Y41664D01*
X424078Y41670D01*
X424178Y41672D01*
D12*
X454277Y46413D02*
X456817Y46413D01*
X454277Y46413D02*
X454177Y46415D01*
X454078Y46421D01*
X453978Y46431D01*
X453880Y46444D01*
X453781Y46462D01*
X453684Y46483D01*
X453588Y46508D01*
X453492Y46537D01*
X453398Y46570D01*
X453305Y46606D01*
X453214Y46646D01*
X453124Y46690D01*
X453036Y46737D01*
X452950Y46787D01*
X452866Y46841D01*
X452784Y46898D01*
X452705Y46958D01*
X452627Y47022D01*
X452553Y47088D01*
X452481Y47157D01*
X452412Y47229D01*
X452346Y47303D01*
X452282Y47381D01*
X452222Y47460D01*
X452165Y47542D01*
X452111Y47626D01*
X452061Y47712D01*
X452014Y47800D01*
X451970Y47890D01*
X451930Y47981D01*
X451894Y48074D01*
X451861Y48168D01*
X451832Y48264D01*
X451807Y48360D01*
X451786Y48457D01*
X451768Y48556D01*
X451755Y48654D01*
X451745Y48754D01*
X451739Y48853D01*
X451737Y48953D01*
X451737Y55303D01*
X451739Y55403D01*
X451745Y55502D01*
X451755Y55602D01*
X451768Y55700D01*
X451786Y55799D01*
X451807Y55896D01*
X451832Y55992D01*
X451861Y56088D01*
X451894Y56182D01*
X451930Y56275D01*
X451970Y56366D01*
X452014Y56456D01*
X452061Y56544D01*
X452111Y56630D01*
X452165Y56714D01*
X452222Y56796D01*
X452282Y56875D01*
X452346Y56953D01*
X452412Y57027D01*
X452481Y57099D01*
X452553Y57168D01*
X452627Y57234D01*
X452705Y57298D01*
X452784Y57358D01*
X452866Y57415D01*
X452950Y57469D01*
X453036Y57519D01*
X453124Y57566D01*
X453214Y57610D01*
X453305Y57650D01*
X453398Y57686D01*
X453492Y57719D01*
X453588Y57748D01*
X453684Y57773D01*
X453781Y57794D01*
X453880Y57812D01*
X453978Y57825D01*
X454078Y57835D01*
X454177Y57841D01*
X454277Y57843D01*
X456817Y57843D01*
X463839Y57843D02*
X461299Y48953D01*
X467649Y48953D01*
X465744Y51493D02*
X465744Y46413D01*
X397702Y245350D02*
X397702Y296150D01*
X397702Y245350D02*
X486602Y245350D01*
X486602Y296150D01*
X486589Y297232D01*
X486549Y298314D01*
X486483Y299395D01*
X486391Y300473D01*
X486273Y301549D01*
X486128Y302622D01*
X485958Y303691D01*
X485761Y304755D01*
X485539Y305815D01*
X485290Y306868D01*
X485017Y307916D01*
X484717Y308956D01*
X484393Y309989D01*
X484043Y311013D01*
X483669Y312029D01*
X483270Y313035D01*
X482847Y314031D01*
X482399Y315017D01*
X481928Y315992D01*
X481433Y316954D01*
X480915Y317905D01*
X480373Y318842D01*
X479809Y319766D01*
X479223Y320676D01*
X478615Y321572D01*
X477985Y322452D01*
X477334Y323317D01*
X476662Y324165D01*
X475970Y324997D01*
X475257Y325812D01*
X474525Y326610D01*
X473774Y327389D01*
X473004Y328150D01*
X472215Y328891D01*
X471409Y329614D01*
X470585Y330316D01*
X469745Y330999D01*
X468888Y331660D01*
X468016Y332301D01*
X467128Y332920D01*
X466225Y333517D01*
X465308Y334092D01*
X464377Y334645D01*
X463433Y335175D01*
X462476Y335681D01*
X461508Y336164D01*
X460528Y336624D01*
X459537Y337059D01*
X458535Y337471D01*
X457524Y337857D01*
X456504Y338219D01*
X455475Y338556D01*
X454439Y338868D01*
X453395Y339155D01*
X452344Y339416D01*
X451288Y339651D01*
X450226Y339861D01*
X449159Y340044D01*
X448088Y340202D01*
X447014Y340333D01*
X445936Y340439D01*
X444857Y340518D01*
X443775Y340570D01*
X442693Y340597D01*
X441611Y340597D01*
X440529Y340570D01*
X439447Y340518D01*
X438368Y340439D01*
X437290Y340333D01*
X436216Y340202D01*
X435145Y340044D01*
X434078Y339861D01*
X433016Y339651D01*
X431960Y339416D01*
X430909Y339155D01*
X429865Y338868D01*
X428829Y338556D01*
X427800Y338219D01*
X426780Y337857D01*
X425769Y337471D01*
X424767Y337059D01*
X423776Y336624D01*
X422796Y336164D01*
X421828Y335681D01*
X420871Y335175D01*
X419927Y334645D01*
X418996Y334092D01*
X418079Y333517D01*
X417176Y332920D01*
X416288Y332301D01*
X415416Y331660D01*
X414559Y330999D01*
X413719Y330316D01*
X412895Y329614D01*
X412089Y328891D01*
X411300Y328150D01*
X410530Y327389D01*
X409779Y326610D01*
X409047Y325812D01*
X408334Y324997D01*
X407642Y324165D01*
X406970Y323317D01*
X406319Y322452D01*
X405689Y321572D01*
X405081Y320676D01*
X404495Y319766D01*
X403931Y318842D01*
X403389Y317905D01*
X402871Y316954D01*
X402376Y315992D01*
X401905Y315017D01*
X401457Y314031D01*
X401034Y313035D01*
X400635Y312029D01*
X400261Y311013D01*
X399911Y309989D01*
X399587Y308956D01*
X399287Y307916D01*
X399014Y306868D01*
X398765Y305815D01*
X398543Y304755D01*
X398346Y303691D01*
X398176Y302622D01*
X398031Y301549D01*
X397913Y300473D01*
X397821Y299395D01*
X397755Y298314D01*
X397715Y297232D01*
X397702Y296150D01*
D14*
X391152Y268150D02*
X391154Y268213D01*
X391160Y268275D01*
X391170Y268337D01*
X391183Y268399D01*
X391201Y268459D01*
X391222Y268518D01*
X391247Y268576D01*
X391276Y268632D01*
X391308Y268686D01*
X391343Y268738D01*
X391381Y268787D01*
X391423Y268835D01*
X391467Y268879D01*
X391515Y268921D01*
X391564Y268959D01*
X391616Y268994D01*
X391670Y269026D01*
X391726Y269055D01*
X391784Y269080D01*
X391843Y269101D01*
X391903Y269119D01*
X391965Y269132D01*
X392027Y269142D01*
X392089Y269148D01*
X392152Y269150D01*
X392215Y269148D01*
X392277Y269142D01*
X392339Y269132D01*
X392401Y269119D01*
X392461Y269101D01*
X392520Y269080D01*
X392578Y269055D01*
X392634Y269026D01*
X392688Y268994D01*
X392740Y268959D01*
X392789Y268921D01*
X392837Y268879D01*
X392881Y268835D01*
X392923Y268787D01*
X392961Y268738D01*
X392996Y268686D01*
X393028Y268632D01*
X393057Y268576D01*
X393082Y268518D01*
X393103Y268459D01*
X393121Y268399D01*
X393134Y268337D01*
X393144Y268275D01*
X393150Y268213D01*
X393152Y268150D01*
X393150Y268087D01*
X393144Y268025D01*
X393134Y267963D01*
X393121Y267901D01*
X393103Y267841D01*
X393082Y267782D01*
X393057Y267724D01*
X393028Y267668D01*
X392996Y267614D01*
X392961Y267562D01*
X392923Y267513D01*
X392881Y267465D01*
X392837Y267421D01*
X392789Y267379D01*
X392740Y267341D01*
X392688Y267306D01*
X392634Y267274D01*
X392578Y267245D01*
X392520Y267220D01*
X392461Y267199D01*
X392401Y267181D01*
X392339Y267168D01*
X392277Y267158D01*
X392215Y267152D01*
X392152Y267150D01*
X392089Y267152D01*
X392027Y267158D01*
X391965Y267168D01*
X391903Y267181D01*
X391843Y267199D01*
X391784Y267220D01*
X391726Y267245D01*
X391670Y267274D01*
X391616Y267306D01*
X391564Y267341D01*
X391515Y267379D01*
X391467Y267421D01*
X391423Y267465D01*
X391381Y267513D01*
X391343Y267562D01*
X391308Y267614D01*
X391276Y267668D01*
X391247Y267724D01*
X391222Y267782D01*
X391201Y267841D01*
X391183Y267901D01*
X391170Y267963D01*
X391160Y268025D01*
X391154Y268087D01*
X391152Y268150D01*
D15*
X399326Y241026D02*
X399326Y229342D01*
X399326Y241026D02*
X402572Y241026D01*
X402685Y241024D01*
X402798Y241018D01*
X402911Y241008D01*
X403024Y240994D01*
X403136Y240977D01*
X403247Y240955D01*
X403357Y240930D01*
X403467Y240900D01*
X403575Y240867D01*
X403682Y240830D01*
X403788Y240790D01*
X403892Y240745D01*
X403995Y240697D01*
X404096Y240646D01*
X404195Y240591D01*
X404292Y240533D01*
X404387Y240471D01*
X404480Y240406D01*
X404570Y240338D01*
X404658Y240267D01*
X404744Y240192D01*
X404827Y240115D01*
X404907Y240035D01*
X404984Y239952D01*
X405059Y239866D01*
X405130Y239778D01*
X405198Y239688D01*
X405263Y239595D01*
X405325Y239500D01*
X405383Y239403D01*
X405438Y239304D01*
X405489Y239203D01*
X405537Y239100D01*
X405582Y238996D01*
X405622Y238890D01*
X405659Y238783D01*
X405692Y238675D01*
X405722Y238565D01*
X405747Y238455D01*
X405769Y238344D01*
X405786Y238232D01*
X405800Y238119D01*
X405810Y238006D01*
X405816Y237893D01*
X405818Y237780D01*
X405816Y237667D01*
X405810Y237554D01*
X405800Y237441D01*
X405786Y237328D01*
X405769Y237216D01*
X405747Y237105D01*
X405722Y236995D01*
X405692Y236885D01*
X405659Y236777D01*
X405622Y236670D01*
X405582Y236564D01*
X405537Y236460D01*
X405489Y236357D01*
X405438Y236256D01*
X405383Y236157D01*
X405325Y236060D01*
X405263Y235965D01*
X405198Y235872D01*
X405130Y235782D01*
X405059Y235694D01*
X404984Y235608D01*
X404907Y235525D01*
X404827Y235445D01*
X404744Y235368D01*
X404658Y235293D01*
X404570Y235222D01*
X404480Y235154D01*
X404387Y235089D01*
X404292Y235027D01*
X404195Y234969D01*
X404096Y234914D01*
X403995Y234863D01*
X403892Y234815D01*
X403788Y234770D01*
X403682Y234730D01*
X403575Y234693D01*
X403467Y234660D01*
X403357Y234630D01*
X403247Y234605D01*
X403136Y234583D01*
X403024Y234566D01*
X402911Y234552D01*
X402798Y234542D01*
X402685Y234536D01*
X402572Y234534D01*
X402572Y234535D02*
X399326Y234535D01*
X403221Y234535D02*
X405817Y229342D01*
X410682Y229342D02*
X413928Y229342D01*
X414041Y229344D01*
X414154Y229350D01*
X414267Y229360D01*
X414380Y229374D01*
X414492Y229391D01*
X414603Y229413D01*
X414713Y229438D01*
X414823Y229468D01*
X414931Y229501D01*
X415038Y229538D01*
X415144Y229578D01*
X415248Y229623D01*
X415351Y229671D01*
X415452Y229722D01*
X415551Y229777D01*
X415648Y229835D01*
X415743Y229897D01*
X415836Y229962D01*
X415926Y230030D01*
X416014Y230101D01*
X416100Y230176D01*
X416183Y230253D01*
X416263Y230333D01*
X416340Y230416D01*
X416415Y230502D01*
X416486Y230590D01*
X416554Y230680D01*
X416619Y230773D01*
X416681Y230868D01*
X416739Y230965D01*
X416794Y231064D01*
X416845Y231165D01*
X416893Y231268D01*
X416938Y231372D01*
X416978Y231478D01*
X417015Y231585D01*
X417048Y231693D01*
X417078Y231803D01*
X417103Y231913D01*
X417125Y232024D01*
X417142Y232136D01*
X417156Y232249D01*
X417166Y232362D01*
X417172Y232475D01*
X417174Y232588D01*
X417172Y232701D01*
X417166Y232814D01*
X417156Y232927D01*
X417142Y233040D01*
X417125Y233152D01*
X417103Y233263D01*
X417078Y233373D01*
X417048Y233483D01*
X417015Y233591D01*
X416978Y233698D01*
X416938Y233804D01*
X416893Y233908D01*
X416845Y234011D01*
X416794Y234112D01*
X416739Y234211D01*
X416681Y234308D01*
X416619Y234403D01*
X416554Y234496D01*
X416486Y234586D01*
X416415Y234674D01*
X416340Y234760D01*
X416263Y234843D01*
X416183Y234923D01*
X416100Y235000D01*
X416014Y235075D01*
X415926Y235146D01*
X415836Y235214D01*
X415743Y235279D01*
X415648Y235341D01*
X415551Y235399D01*
X415452Y235454D01*
X415351Y235505D01*
X415248Y235553D01*
X415144Y235598D01*
X415038Y235638D01*
X414931Y235675D01*
X414823Y235708D01*
X414713Y235738D01*
X414603Y235763D01*
X414492Y235785D01*
X414380Y235802D01*
X414267Y235816D01*
X414154Y235826D01*
X414041Y235832D01*
X413928Y235834D01*
X414577Y241026D02*
X410682Y241026D01*
X414577Y241026D02*
X414678Y241024D01*
X414778Y241018D01*
X414878Y241008D01*
X414978Y240995D01*
X415077Y240977D01*
X415176Y240956D01*
X415273Y240931D01*
X415370Y240902D01*
X415465Y240869D01*
X415559Y240833D01*
X415651Y240793D01*
X415742Y240750D01*
X415831Y240703D01*
X415918Y240653D01*
X416004Y240599D01*
X416087Y240542D01*
X416167Y240482D01*
X416246Y240419D01*
X416322Y240352D01*
X416395Y240283D01*
X416465Y240211D01*
X416533Y240137D01*
X416598Y240060D01*
X416659Y239980D01*
X416718Y239898D01*
X416773Y239814D01*
X416825Y239728D01*
X416874Y239640D01*
X416919Y239550D01*
X416961Y239458D01*
X416999Y239365D01*
X417033Y239270D01*
X417064Y239175D01*
X417091Y239078D01*
X417114Y238980D01*
X417134Y238881D01*
X417149Y238781D01*
X417161Y238681D01*
X417169Y238581D01*
X417173Y238480D01*
X417173Y238380D01*
X417169Y238279D01*
X417161Y238179D01*
X417149Y238079D01*
X417134Y237979D01*
X417114Y237880D01*
X417091Y237782D01*
X417064Y237685D01*
X417033Y237590D01*
X416999Y237495D01*
X416961Y237402D01*
X416919Y237310D01*
X416874Y237220D01*
X416825Y237132D01*
X416773Y237046D01*
X416718Y236962D01*
X416659Y236880D01*
X416598Y236800D01*
X416533Y236723D01*
X416465Y236649D01*
X416395Y236577D01*
X416322Y236508D01*
X416246Y236441D01*
X416167Y236378D01*
X416087Y236318D01*
X416004Y236261D01*
X415918Y236207D01*
X415831Y236157D01*
X415742Y236110D01*
X415651Y236067D01*
X415559Y236027D01*
X415465Y235991D01*
X415370Y235958D01*
X415273Y235929D01*
X415176Y235904D01*
X415077Y235883D01*
X414978Y235865D01*
X414878Y235852D01*
X414778Y235842D01*
X414678Y235836D01*
X414577Y235834D01*
X414577Y235833D02*
X411981Y235833D01*
D17*
X547000Y255500D02*
X633000Y255500D01*
X633000Y299500D02*
X547000Y299500D01*
D18*
X611000Y249750D03*
D19*
X582769Y260684D02*
X582767Y260594D01*
X582761Y260505D01*
X582751Y260416D01*
X582738Y260328D01*
X582720Y260240D01*
X582699Y260153D01*
X582674Y260067D01*
X582645Y259982D01*
X582613Y259898D01*
X582577Y259816D01*
X582537Y259736D01*
X582494Y259658D01*
X582447Y259581D01*
X582398Y259506D01*
X582345Y259434D01*
X582289Y259364D01*
X582230Y259297D01*
X582168Y259232D01*
X582103Y259170D01*
X582036Y259111D01*
X581966Y259055D01*
X581894Y259002D01*
X581819Y258953D01*
X581743Y258906D01*
X581664Y258863D01*
X581584Y258823D01*
X581502Y258787D01*
X581418Y258755D01*
X581333Y258726D01*
X581247Y258701D01*
X581160Y258680D01*
X581072Y258662D01*
X580984Y258649D01*
X580895Y258639D01*
X580806Y258633D01*
X580716Y258631D01*
X580589Y258633D01*
X580462Y258638D01*
X580336Y258648D01*
X580210Y258661D01*
X580084Y258677D01*
X579959Y258698D01*
X579834Y258722D01*
X579711Y258749D01*
X579588Y258780D01*
X579466Y258815D01*
X579345Y258853D01*
X579225Y258895D01*
X579107Y258941D01*
X578990Y258989D01*
X578874Y259042D01*
X578760Y259097D01*
X578648Y259156D01*
X578537Y259218D01*
X578428Y259283D01*
X578322Y259352D01*
X578217Y259423D01*
X578114Y259498D01*
X578014Y259576D01*
X577916Y259656D01*
X577820Y259739D01*
X577727Y259825D01*
X577636Y259914D01*
X577893Y265816D02*
X577895Y265906D01*
X577901Y265995D01*
X577911Y266084D01*
X577924Y266173D01*
X577942Y266260D01*
X577963Y266347D01*
X577988Y266433D01*
X578017Y266518D01*
X578049Y266602D01*
X578085Y266684D01*
X578125Y266764D01*
X578168Y266843D01*
X578215Y266919D01*
X578264Y266994D01*
X578317Y267066D01*
X578373Y267136D01*
X578432Y267203D01*
X578494Y267268D01*
X578559Y267330D01*
X578626Y267389D01*
X578696Y267445D01*
X578768Y267498D01*
X578843Y267547D01*
X578920Y267594D01*
X578998Y267637D01*
X579078Y267677D01*
X579160Y267713D01*
X579244Y267745D01*
X579329Y267774D01*
X579415Y267799D01*
X579502Y267820D01*
X579590Y267838D01*
X579678Y267851D01*
X579767Y267861D01*
X579856Y267867D01*
X579946Y267869D01*
X580070Y267867D01*
X580194Y267861D01*
X580317Y267851D01*
X580440Y267837D01*
X580563Y267819D01*
X580684Y267797D01*
X580806Y267772D01*
X580926Y267742D01*
X581045Y267709D01*
X581163Y267671D01*
X581280Y267630D01*
X581395Y267586D01*
X581509Y267537D01*
X581622Y267485D01*
X581732Y267429D01*
X581841Y267370D01*
X581948Y267307D01*
X582053Y267241D01*
X582155Y267172D01*
X582255Y267099D01*
X578919Y264020D02*
X578843Y264067D01*
X578768Y264118D01*
X578696Y264172D01*
X578626Y264229D01*
X578559Y264289D01*
X578494Y264352D01*
X578432Y264417D01*
X578373Y264485D01*
X578317Y264556D01*
X578264Y264629D01*
X578214Y264704D01*
X578168Y264782D01*
X578125Y264861D01*
X578085Y264942D01*
X578049Y265025D01*
X578017Y265109D01*
X577988Y265194D01*
X577963Y265281D01*
X577942Y265369D01*
X577924Y265457D01*
X577911Y265546D01*
X577901Y265636D01*
X577895Y265726D01*
X577893Y265816D01*
X581742Y262480D02*
X581819Y262433D01*
X581894Y262382D01*
X581966Y262328D01*
X582036Y262271D01*
X582103Y262211D01*
X582168Y262148D01*
X582230Y262083D01*
X582289Y262015D01*
X582345Y261944D01*
X582398Y261871D01*
X582448Y261796D01*
X582494Y261718D01*
X582537Y261639D01*
X582577Y261558D01*
X582613Y261475D01*
X582645Y261391D01*
X582674Y261306D01*
X582699Y261219D01*
X582720Y261132D01*
X582738Y261043D01*
X582751Y260954D01*
X582761Y260864D01*
X582767Y260774D01*
X582769Y260684D01*
X581743Y262480D02*
X578920Y264020D01*
X585997Y267869D02*
X588050Y258631D01*
X590103Y264790D01*
X592156Y258631D01*
X594209Y267869D01*
X597737Y265816D02*
X600303Y267869D01*
X600303Y258631D01*
X597737Y258631D02*
X602869Y258631D01*
M02*
