G04 EAGLE Gerber RS-274X export*
G75*
%MOMM*%
%FSLAX34Y34*%
%LPD*%
%INSoldermask Top*%
%IPPOS*%
%AMOC8*
5,1,8,0,0,1.08239X$1,22.5*%
G01*
%ADD10P,1.649562X8X112.500000*%
%ADD11P,1.649562X8X22.500000*%
%ADD12P,1.649562X8X382.400000*%
%ADD13C,1.981200*%
%ADD14C,1.611200*%
%ADD15C,2.133600*%
%ADD16P,2.034460X8X22.500000*%
%ADD17P,2.034460X8X202.500000*%
%ADD18R,1.981200X1.981200*%
%ADD19C,2.387600*%
%ADD20R,1.471200X1.471200*%
%ADD21C,1.471200*%
%ADD22C,2.503200*%
%ADD23R,1.511200X1.511200*%
%ADD24C,1.511200*%
%ADD25C,0.959600*%


D10*
X492277Y162349D03*
X492277Y213149D03*
D11*
X324600Y159136D03*
X375400Y159136D03*
D12*
X324600Y76934D03*
X375400Y76846D03*
D13*
X222012Y189501D03*
X222012Y164101D03*
X222012Y138701D03*
X222012Y113301D03*
D14*
X306182Y262915D02*
X306182Y276995D01*
X256182Y226995D02*
X256182Y212915D01*
X281182Y212915D02*
X281182Y226995D01*
X356182Y226995D02*
X356182Y212915D01*
X331182Y212915D02*
X331182Y226995D01*
D15*
X266993Y54935D03*
X266993Y80335D03*
X266993Y105735D03*
X266993Y131135D03*
X266993Y156535D03*
D16*
X311900Y117598D03*
X388100Y117598D03*
D17*
X495600Y116813D03*
X419400Y116813D03*
D18*
X644446Y37100D03*
D13*
X619046Y37100D03*
X593646Y37100D03*
X568246Y37100D03*
X542846Y37100D03*
D19*
X576916Y211090D03*
X611916Y211090D03*
D11*
X433068Y28972D03*
X483868Y28972D03*
D20*
X416752Y267450D03*
D21*
X442152Y267450D03*
X467552Y267450D03*
D22*
X631000Y277500D03*
X549000Y277500D03*
D23*
X610000Y277500D03*
D24*
X590000Y277500D03*
X570000Y277500D03*
D25*
X100000Y50000D03*
X100000Y250000D03*
X600000Y150000D03*
X450000Y150000D03*
X350000Y250000D03*
X350000Y50000D03*
M02*
